<?xml version="1.0" encoding="utf-8"?>
<!-- Generator: Adobe Illustrator 21.1.0, SVG Export Plug-In . SVG Version: 6.00 Build 0)  -->
<svg version="1.1" id="Layer_1" xmlns="http://www.w3.org/2000/svg" xmlns:xlink="http://www.w3.org/1999/xlink" x="0px" y="0px"
	 viewBox="0 0 214 214" style="enable-background:new 0 0 214 214;" xml:space="preserve">
<style type="text/css">
	.st0{fill:#499AED;}
	.st1{fill:#FFFFFF;}
</style>
<circle class="st0" cx="107" cy="107" r="107"/>
<g>
	<g>
		<path class="st1" d="M148.8,67.9h-25.3c-3.9-6.6-9.1-12.5-15.1-17.2c-0.9-0.7-2.1-0.7-2.9,0c-6,4.8-11.1,10.7-15,17.2H65.2
			c-6.4,0-11.7,5.2-11.7,11.7v58.9c0,6.4,5.2,11.7,11.7,11.7h30.1v5.6c-6.3,0.1-11.5,5.3-11.5,11.7c0,1.3,1,2.3,2.3,2.3h41.6
			c1.3,0,2.3-1,2.3-2.3c0-6.4-5.1-11.6-11.5-11.7v-5.6h30.1c6.4,0,11.7-5.2,11.7-11.7V79.6C160.5,73.2,155.2,67.9,148.8,67.9z
			 M107,55.5c13.4,11.4,21,27.9,21,45.6v18.1H86v-18.1C86,83.5,93.6,66.9,107,55.5z M94.4,126.2l-1.2-2.4h27.5l-1.2,2.4
			c-3.3,6.7-7.5,12.8-12.5,18.2C102,139,97.8,132.9,94.4,126.2z M114,150.1v5.6h-14v-5.6H114z M65.2,145.4L65.2,145.4
			c-3.9,0.1-7-3-7-6.9v-4.2h28.4c1.3,0,2.3-1,2.3-2.3s-1-2.3-2.3-2.3H58.2v-50c0-3.9,3.1-7,7-7h22.7c-0.1,0.2-0.2,0.4-0.3,0.6
			c-2.5,5.2-4.3,10.8-5.3,16.5C73.5,94.3,68,103.5,68,113.5v8c0,1.3,1,2.3,2.3,2.3H88l2.2,4.5c3.1,6.2,6.9,11.9,11.4,17.1H65.2z
			 M81.3,95.8v23.4h-8.6v-5.7C72.7,106.5,75.9,100.1,81.3,95.8z M125.1,165.1H89c1-2.7,3.6-4.7,6.6-4.7h22.9
			C121.5,160.4,124.1,162.4,125.1,165.1z M155.8,129.6h-26.4c-0.5,0-1.1,0.2-1.5,0.7c-0.4,0.4-0.7,1-0.7,1.6c0,0.6,0.2,1.1,0.7,1.6
			c0.4,0.4,0.9,0.6,1.5,0.7h26.4v4.2c0,3.9-3.1,7-7,7h-36.5c4.5-5.2,8.3-10.9,11.4-17.1l2.3-4.5h17.7c1.3,0,2.3-1,2.3-2.3v-8
			c0-10-5.5-19.2-14.3-23.9c-1-5.7-2.8-11.3-5.3-16.5c-0.1-0.2-0.2-0.4-0.3-0.6h22.8c3.9,0,7,3.1,7,7L155.8,129.6z M132.7,119.2
			V95.8c5.4,4.2,8.6,10.7,8.6,17.7v5.7H132.7z"/>
	</g>
</g>
<g>
	<g>
		<path class="st1" d="M107,83.4c-7.5,0-13.5,6.1-13.5,13.5s6.1,13.5,13.5,13.5c7.5,0,13.5-6.1,13.5-13.5S114.5,83.4,107,83.4z
			 M107,105.8c-4.9,0-8.9-4-8.9-8.9s4-8.9,8.9-8.9s8.9,4,8.9,8.9S111.9,105.8,107,105.8z"/>
	</g>
</g>
</svg>
