<?xml version="1.0" encoding="utf-8"?>
<!-- Generator: Adobe Illustrator 21.1.0, SVG Export Plug-In . SVG Version: 6.00 Build 0)  -->
<svg version="1.1" id="Layer_1" xmlns="http://www.w3.org/2000/svg" xmlns:xlink="http://www.w3.org/1999/xlink" x="0px" y="0px"
	 viewBox="0 0 214 214" style="enable-background:new 0 0 214 214;" xml:space="preserve">
<style type="text/css">
	.st0{fill:#499AED;}
	.st1{fill:#FFFFFF;}
</style>
<circle class="st0" cx="107" cy="107" r="107"/>
<g>
	<g>
		<path class="st1" d="M107,151.6c-3.9,0-7,3.1-7,7s3.1,7,7,7s7-3.1,7-7C114,154.7,110.9,151.6,107,151.6z M107,160.8
			c-1.2,0-2.2-1-2.2-2.2s1-2.2,2.2-2.2s2.2,1,2.2,2.2S108.2,160.8,107,160.8z"/>
	</g>
</g>
<g>
	<g>
		<path class="st1" d="M111.8,57.9h-9.5c-1.3,0-2.4,1.1-2.4,2.4s1.1,2.4,2.4,2.4h9.5c1.3,0,2.4-1.1,2.4-2.4S113.1,57.9,111.8,57.9z"
			/>
	</g>
</g>
<g>
	<g>
		<path class="st1" d="M136.5,49.9h-59c-3.5,0-6.4,2.9-6.4,6.4v109.2c0,3.5,2.9,6.4,6.4,6.4h59.1c3.5,0,6.4-2.9,6.4-6.4V56.3
			C142.9,52.7,140.1,49.9,136.5,49.9z M138.2,165.5c0,0.9-0.7,1.6-1.6,1.6H77.5c-0.9,0-1.6-0.7-1.6-1.6v-15.4h62.3V165.5z
			 M138.2,145.3H75.8V70.7h62.3L138.2,145.3L138.2,145.3z M138.2,65.9H75.8v-9.6c0-0.9,0.7-1.6,1.6-1.6h59.1c0.9,0,1.6,0.7,1.6,1.6
			L138.2,65.9L138.2,65.9z"/>
	</g>
</g>
</svg>
