<?xml version="1.0" encoding="utf-8"?>
<!-- Generator: Adobe Illustrator 21.1.0, SVG Export Plug-In . SVG Version: 6.00 Build 0)  -->
<svg version="1.1" id="Layer_1" xmlns="http://www.w3.org/2000/svg" xmlns:xlink="http://www.w3.org/1999/xlink" x="0px" y="0px"
	 viewBox="0 0 214 214" style="enable-background:new 0 0 214 214;" xml:space="preserve">
<style type="text/css">
	.st0{fill:#499AED;}
	.st1{fill:#FFFFFF;}
</style>
<circle class="st0" cx="107" cy="107" r="107"/>
<g>
	<g>
		<path class="st1" d="M155.1,50H58.9c-6.4,0-11.7,5.2-11.7,11.7v83.6c0,6.4,5.2,11.7,11.7,11.7h7.5c1.3,0,2.3-1,2.3-2.3
			s-1-2.3-2.3-2.3h-7.5c-3.9,0-7-3.1-7-7V71.5c0.1,0,0.2,0,0.2,0h110v73.8c0,3.9-3.1,7-7,7h-9.6c-1.3,0-2.3,1-2.3,2.3s1,2.3,2.3,2.3
			h9.6c6.4,0,11.7-5.2,11.7-11.7V61.7C166.8,55.3,161.6,50,155.1,50z M162.1,66.8h-110c-0.1,0-0.2,0-0.2,0v-5.2c0-3.9,3.1-7,7-7
			h96.2c3.9,0,7,3.1,7,7V66.8L162.1,66.8z"/>
	</g>
</g>
<g>
	<g>
		<path class="st1" d="M151.8,58.4H99.1c-1.3,0-2.3,1-2.3,2.3s1,2.3,2.3,2.3h52.8c1.3,0,2.3-1,2.3-2.3
			C154.2,59.5,153.1,58.4,151.8,58.4z"/>
	</g>
</g>
<g>
	<g>
		<path class="st1" d="M73.2,59.1c-0.4-0.4-1-0.7-1.7-0.7c-0.6,0-1.2,0.2-1.7,0.7c-0.4,0.4-0.7,1-0.7,1.7c0,0.6,0.2,1.2,0.7,1.7
			s1,0.7,1.7,0.7c0.6,0,1.2-0.2,1.7-0.7c0.4-0.4,0.7-1,0.7-1.7C73.8,60.2,73.6,59.5,73.2,59.1z"/>
	</g>
</g>
<g>
	<g>
		<path class="st1" d="M63.8,59.1c-0.4-0.4-1-0.7-1.7-0.7c-0.6,0-1.2,0.2-1.7,0.7c-0.4,0.4-0.7,1-0.7,1.7c0,0.6,0.2,1.2,0.7,1.7
			s1,0.7,1.7,0.7c0.6,0,1.2-0.2,1.7-0.7c0.4-0.4,0.7-1,0.7-1.7C64.5,60.2,64.2,59.5,63.8,59.1z"/>
	</g>
</g>
<g>
	<g>
		<path class="st1" d="M82.5,59.1c-0.4-0.4-1-0.7-1.7-0.7c-0.6,0-1.2,0.2-1.7,0.7c-0.4,0.4-0.7,1-0.7,1.7c0,0.6,0.2,1.2,0.7,1.7
			s1,0.7,1.7,0.7s1.2-0.2,1.7-0.7c0.4-0.4,0.7-1,0.7-1.7C83.2,60.2,82.9,59.5,82.5,59.1z"/>
	</g>
</g>
<g>
	<g>
		<path class="st1" d="M122.4,121.8l-0.4-0.5c-0.1-0.1-0.2-0.2-0.3-0.3c-4-3.7-9.2-5.8-14.7-5.8c-11.9,0-21.6,9.7-21.6,21.6
			c0,1.3,1,2.3,2.3,2.3s2.3-1,2.3-2.3c0-9.3,7.6-16.9,16.9-16.9c3.7,0,7.3,1.2,10.2,3.4l-6.8,6.8c-1.3-0.7-2.9-0.9-4.5-0.7
			c-3.3,0.5-5.8,3-6.3,6.3c-0.4,2.7,0.6,5.3,2.7,7c1.3,1.1,3,1.6,4.7,1.6c1,0,1.9-0.2,2.9-0.5c1.9-0.7,3.4-2.2,4.1-4.1
			c0.8-2.1,0.7-4.3-0.3-6.2l8.5-8.5C123,124,123.1,122.8,122.4,121.8z M109.6,137.9c-0.2,0.6-0.8,1.1-1.4,1.4
			c-1.1,0.4-2.1,0.3-2.9-0.4c-0.8-0.6-1.2-1.6-1-2.6c0.2-1.2,1.1-2.2,2.3-2.3c0.1,0,0.3,0,0.4,0c0.9,0,1.7,0.4,2.2,1.1
			C109.8,135.8,110,136.9,109.6,137.9z"/>
	</g>
</g>
<g>
	<g>
		<path class="st1" d="M134.1,118l0.6-0.6c2.6-2.6,2.6-6.9,0-9.6c-2.6-2.6-6.9-2.6-9.6,0l-0.8,0.8c-4.4-2.7-9.5-4.4-14.9-4.8v-2.1h1
			c3.4,0,6.2-2.8,6.2-6.2c0-3.4-2.8-6.2-6.2-6.2h-6.7c-3.4,0-6.2,2.8-6.2,6.2c0,3.4,2.8,6.2,6.2,6.2h1v2.1
			c-5.4,0.4-10.5,2.1-14.9,4.8l-0.8-0.8c-2.6-2.6-6.9-2.6-9.6,0c-2.6,2.6-2.6,6.9,0,9.6L80,118c-3.7,5.3-5.9,11.8-5.9,18.7
			c0,18.2,14.8,33,33,33s33-14.8,33-33C140,129.8,137.8,123.3,134.1,118z M128.4,111.1c0.8-0.8,2.1-0.8,3,0c0.8,0.8,0.8,2.1,0,3
			l-0.2,0.2c-0.9-1-2-2-3-2.9L128.4,111.1z M103.7,97.1c-0.9,0-1.6-0.7-1.6-1.6s0.7-1.6,1.6-1.6h6.7c0.9,0,1.6,0.7,1.6,1.6
			s-0.7,1.6-1.6,1.6H103.7z M82.6,111.1c0.8-0.8,2.1-0.8,3,0l0.3,0.3c-1.1,0.9-2.1,1.9-3,2.9l-0.2-0.2
			C81.8,113.3,81.8,111.9,82.6,111.1z M107,165c-15.6,0-28.3-12.7-28.3-28.3s12.7-28.3,28.3-28.3s28.3,12.7,28.3,28.3
			S122.6,165,107,165z"/>
	</g>
</g>
</svg>
