<?xml version="1.0" encoding="utf-8"?>
<!-- Generator: Adobe Illustrator 21.1.0, SVG Export Plug-In . SVG Version: 6.00 Build 0)  -->
<svg version="1.1" id="Layer_1" xmlns="http://www.w3.org/2000/svg" xmlns:xlink="http://www.w3.org/1999/xlink" x="0px" y="0px"
	 viewBox="0 0 505 436" style="enable-background:new 0 0 505 436;" xml:space="preserve">
<style type="text/css">
	.st0{fill:#FFFFFF;}
</style>
<g>
	<path class="st0" d="M234,0v385.9c0,27.7-22.4,50.1-50,50.1H44.1C19.8,436,0,416.2,0,391.8V319l77.6-39.4H78v78.2h78V78.2H77.8
		L39.2,0H234z"/>
</g>
<g>
	<polygon class="st0" points="505,105.2 505,106 503.4,106 	"/>
</g>
<g>
	<g>
		<path class="st0" d="M427,143.8V78h-78v279h78V246h-54.8l38.6-78H505v222.9c0,24.4-19.8,44.1-44.1,44.1H321c-27.6,0-50-22.4-50-50
			V0h196.5C488.2,0,505,16.8,505,37.5v67.7l-1.6,0.8L427,143.8z"/>
	</g>
</g>
</svg>
