<?xml version="1.0" encoding="utf-8"?>
<!-- Generator: Adobe Illustrator 21.1.0, SVG Export Plug-In . SVG Version: 6.00 Build 0)  -->
<svg version="1.1" id="Layer_1" xmlns="http://www.w3.org/2000/svg" xmlns:xlink="http://www.w3.org/1999/xlink" x="0px" y="0px"
	 viewBox="0 0 214 214" style="enable-background:new 0 0 214 214;" xml:space="preserve">
<style type="text/css">
	.st0{fill:#499AED;}
	.st1{fill:#FFFFFF;}
	.st2{fill:none;}
</style>
<circle class="st0" cx="107" cy="107" r="107"/>
<g>
	<g>
		<path class="st1" d="M106.3,130.6c-1.4,0-2.5,1.1-2.5,2.5s1.1,2.5,2.5,2.5l0,0c1.4,0,2.5-1.1,2.5-2.5S107.7,130.6,106.3,130.6z"/>
	</g>
</g>
<g>
	<g>
		<path class="st1" d="M160.3,50.9H51.7c-5.9,0-10.7,4.8-10.7,10.7v71.6c0,7,5.7,12.7,12.7,12.7h38.6v9.6h-3.6
			c-5.9,0-10.7,4.8-10.7,10.7v2c0,1.4,1.1,2.5,2.5,2.5h43.9c0.1,0,0.2,0,0.2,0c0.1,0,36.2,0,36.2,0c5.5,0,10-4.5,10-10V61.6
			C171,55.7,166.2,50.9,160.3,50.9z M53.8,140.7c-4.2,0-7.6-3.4-7.6-7.6v-7.6h69v15.2H53.8z M115.2,145.8v9.6H97.4v-9.6H115.2z
			 M83.2,165.5C83.2,165.5,83.2,165.6,83.2,165.5L83.2,165.5L83.2,165.5c0.3-2.8,2.7-5,5.6-5h26.4v0.1c0,1.8,0.5,3.5,1.3,4.9H83.2z
			 M165.9,108.3v43.6h-45.7v-43.6H165.9z M120.2,103.2v-4.7c0-2.7,2.2-4.9,4.9-4.9H161c2.7,0,4.9,2.2,4.9,4.9v4.7H120.2z M166,160.7
			L166,160.7c-0.1,2.7-2.3,4.9-5,4.9h-35.8c-2.7,0-4.9-2.2-4.9-4.9V157H166V160.7z M166,89.8L166,89.8c-1.6-0.8-3.2-1.3-5-1.3h-35.8
			c-2.6,0-4.9,1-6.7,2.5l-3,5c-0.2,0.8-0.3,1.6-0.3,2.4v21.9h-69V61.6c0-3.1,2.5-5.6,5.6-5.6h108.6c3.1,0,5.6,2.5,5.6,5.6V89.8z"/>
	</g>
</g>
<g>
	<g>
		<path class="st1" d="M149.4,95.8h-12.6c-1.4,0-2.5,1.1-2.5,2.5s1.1,2.5,2.5,2.5h12.6c1.4,0,2.5-1.1,2.5-2.5S150.8,95.8,149.4,95.8
			z"/>
	</g>
</g>
<g>
	<g>
		<path class="st1" d="M143.1,158.8L143.1,158.8c-1.4,0-2.6,1.1-2.6,2.5s1.1,2.5,2.5,2.5l0,0c1.4,0,2.5-1.1,2.5-2.5
			S144.5,158.8,143.1,158.8z"/>
	</g>
</g>
<g>
	<g>
		<path class="st1" d="M128.6,130.1l4.7-4.7c1-1,1-2.6,0-3.6s-2.6-1-3.6,0l-6.5,6.5c-1,1-1,2.6,0,3.6l6.5,6.5
			c0.5,0.5,1.1,0.7,1.8,0.7s1.3-0.2,1.8-0.7c1-1,1-2.6,0-3.6L128.6,130.1z"/>
	</g>
</g>
<g>
	<g>
		<path class="st1" d="M163,128.3l-6.5-6.5c-1-1-2.6-1-3.6,0s-1,2.6,0,3.6l4.7,4.7l-4.7,4.7c-1,1-1,2.6,0,3.6
			c0.5,0.5,1.1,0.7,1.8,0.7s1.3-0.2,1.8-0.7l6.5-6.5C163.9,130.9,163.9,129.3,163,128.3z"/>
	</g>
</g>
<g>
	<g>
		<path class="st1" d="M148.9,120.2c-1.2-0.7-2.8-0.3-3.5,0.9l-9.1,15.5c-0.7,1.2-0.3,2.8,0.9,3.5c0.4,0.2,0.8,0.4,1.3,0.4
			c0.9,0,1.7-0.4,2.2-1.3l9.1-15.5C150.5,122.4,150.1,120.9,148.9,120.2z"/>
	</g>
</g>
<line class="st2" x1="118.5" y1="91" x2="115.5" y2="96"/>
<path class="st1" d="M118.5,91c-1.6,1.2-2.6,2.9-3,5"/>
</svg>
