<?xml version="1.0" encoding="utf-8"?>
<!-- Generator: Adobe Illustrator 21.1.0, SVG Export Plug-In . SVG Version: 6.00 Build 0)  -->
<svg version="1.1" id="Layer_1" xmlns="http://www.w3.org/2000/svg" xmlns:xlink="http://www.w3.org/1999/xlink" x="0px" y="0px"
	 viewBox="0 0 302 111" style="enable-background:new 0 0 302 111;" xml:space="preserve">
<style type="text/css">
	.st0{fill:#F89C33;}
	.st1{fill:#736357;}
</style>
<g>
	<path class="st0" d="M24.8,46.4l-3.3,14.3H10.7L18.8,25c0.8-3.5,2.1-6.3,4-8.4c2.2-2.4,4.8-3.6,7.9-3.6h12.7c3.1,0,5.7,1.2,7.9,3.6
		c1.9,2.1,3.3,4.9,4,8.4l8.1,35.8H52.6l-3.2-14.3H24.8z M47,35.9l-2.4-10.8c-0.2-0.9-0.7-1.3-1.3-1.3H30.9c-0.7,0-1.1,0.4-1.3,1.3
		l-2.4,10.8H47z"/>
	<path class="st0" d="M78.6,60.8H68V13h10.6V60.8z"/>
	<path class="st0" d="M101.9,60.8c-2.2,0-4.1-0.8-5.7-2.3v17.2H85.6V27.9h10.6v2.4c1.6-1.6,3.5-2.4,5.7-2.4h8.4
		c2.3,0,4.2,0.8,5.8,2.4c1.6,1.6,2.4,3.6,2.4,5.8v16.5c0,2.3-0.8,4.2-2.4,5.8c-1.6,1.6-3.5,2.4-5.8,2.4H101.9z M107.4,50.9
		c0.4,0,0.6-0.2,0.6-0.6v-12c0-0.4-0.2-0.6-0.6-0.6H96.8c-0.4,0-0.6,0.2-0.6,0.6v12c0,0.4,0.2,0.6,0.6,0.6H107.4z"/>
	<path class="st0" d="M136.1,30.2c1.6-1.6,3.5-2.4,5.7-2.4h8.4c2.3,0,4.2,0.8,5.8,2.4c1.6,1.6,2.4,3.6,2.4,5.8v24.7h-10.6V38.3
		c0-0.4-0.2-0.6-0.6-0.6h-10.6c-0.4,0-0.6,0.2-0.6,0.6v22.4h-10.6V13h10.6V30.2z"/>
	<path class="st0" d="M173.7,60.8c-2.3,0-4.2-0.8-5.8-2.4c-1.6-1.6-2.4-3.5-2.4-5.8v-7.9c0.2-2.1,1.3-3.2,3.3-3.3h19v-5.3
		c0-0.4-0.2-0.6-0.6-0.6h-9.8c-0.4,0-0.6,0.2-0.6,0.6v1.7h-10.6v-1.7c0-2.3,0.8-4.2,2.4-5.8c1.6-1.6,3.5-2.4,5.8-2.4h15.8
		c2.3,0,4.2,0.8,5.8,2.4c1.6,1.6,2.4,3.5,2.4,5.8v24.7h-10.6v-3c-1.4,2-3.3,3-5.7,3H173.7z M187.8,47.2h-10.4
		c-0.9,0-1.3,0.4-1.3,1.3v3.4c0,0.6,0.3,0.9,0.9,0.9h9.8c0.6,0,0.9-0.3,0.9-0.9V47.2z"/>
</g>
<g>
	<path class="st1" d="M149.3,98.2c0.4,0,0.6-0.2,0.6-0.6V63.6h9.9v34.1c0,0.4,0.2,0.6,0.6,0.6h13.9c0.4,0,0.6-0.2,0.6-0.6V63.6h9.8
		v36.8c0,2.1-0.8,3.9-2.3,5.4c-1.5,1.5-3.3,2.3-5.4,2.3h-15.6c-1.4,0-2.6-0.3-3.8-1c-1.2-0.7-2.1-1.6-2.7-2.7
		c-0.7,1.1-1.6,2-2.7,2.7c-1.2,0.7-2.4,1-3.8,1h-15.6c-2.1,0-3.9-0.8-5.4-2.3s-2.3-3.3-2.3-5.4V63.6h9.8v34.1c0,0.4,0.2,0.6,0.5,0.6
		H149.3z"/>
	<path class="st1" d="M221.8,93.4c0,0.6-0.2,1.1-0.6,1.5c-0.4,0.4-0.9,0.6-1.5,0.6H201v4.9c0,0.4,0.2,0.6,0.6,0.6h9.8
		c0.4,0,0.6-0.2,0.6-0.6v-2.2h9.8v2.2c0,2.1-0.8,3.9-2.3,5.4c-1.5,1.5-3.3,2.3-5.4,2.3h-15.3c-2.1,0-3.9-0.8-5.4-2.3
		c-1.5-1.5-2.3-3.3-2.3-5.4V85.1c0-2.1,0.8-3.9,2.3-5.4c1.5-1.5,3.3-2.3,5.4-2.3h15.3c2.1,0,3.9,0.8,5.4,2.3
		c1.5,1.5,2.3,3.3,2.3,5.4V93.4z M201.6,84.9c-0.4,0-0.6,0.2-0.6,0.6v4.7h10.9v-4.7c0-0.4-0.2-0.6-0.6-0.6H201.6z"/>
	<path class="st1" d="M236,108.1c-2.1,0-3.9-0.8-5.4-2.3c-1.5-1.5-2.3-3.3-2.3-5.4v-7.3c0.2-1.9,1.2-3,3.1-3.1h17.7v-4.9
		c0-0.4-0.2-0.6-0.6-0.6h-9.2c-0.4,0-0.6,0.2-0.6,0.6v1.6H229v-1.5c0-2.1,0.8-3.9,2.3-5.4c1.5-1.5,3.3-2.3,5.4-2.3h14.7
		c2.1,0,3.9,0.8,5.4,2.3c1.5,1.5,2.3,3.3,2.3,5.4v23h-9.8v-2.8c-1.3,1.9-3,2.8-5.3,2.8H236z M249.1,95.4h-9.7
		c-0.8,0-1.2,0.4-1.2,1.2v3.2c0,0.6,0.3,0.9,0.9,0.9h9.2c0.6,0,0.9-0.3,0.9-0.9V95.4z"/>
	<path class="st1" d="M275.3,108.1h-9.8V77.5h9.8v2.2c1.5-1.5,3.3-2.2,5.3-2.2h7.8c2.1,0,3.9,0.8,5.4,2.3c1.5,1.5,2.3,3.3,2.3,5.4
		v4.7h-9.8v-2c0-0.4-0.2-0.6-0.5-0.6h-9.8c-0.4,0-0.6,0.2-0.6,0.6V108.1z"/>
</g>
</svg>
