<?xml version="1.0" encoding="utf-8"?>
<!-- Generator: Adobe Illustrator 21.1.0, SVG Export Plug-In . SVG Version: 6.00 Build 0)  -->
<svg version="1.1" id="Layer_1" xmlns="http://www.w3.org/2000/svg" xmlns:xlink="http://www.w3.org/1999/xlink" x="0px" y="0px"
	 viewBox="0 0 294.2 70.6" style="enable-background:new 0 0 294.2 70.6;" xml:space="preserve">
<style type="text/css">
	.st0{fill:#98371B;}
</style>
<g>
	<path class="st0" d="M11.9,1.6c0,0.4,2.2,1.3,6.6,2.8c0,0.3,0.2,0.4,0.7,0.4L18.8,4V3.6c2,0.6,3,1.2,3,2L21.2,6l-0.7-0.4h-0.3V6
		c3.3,2.9,5,5.7,5,8.3c-0.8,4-1.8,5.9-3,5.9l0.3,0.8v1.2c0,0.5-0.4,0.8-1.3,0.8v0.4l0.3,0.8l-0.7,0.4l-0.6-0.4h-0.3v0.4
		c3.3,2.9,5,5.7,5,8.3c-0.8,4-1.8,5.9-3,5.9l0.4,0.8v1.2c0,0.5-0.6,0.9-1.7,1.2l-0.6-0.4c-2.6,1.3-6,2-10.3,2H8.3v0.8H7.9v-0.8H4.3
		c-1.5,0-2.3-1.7-2.3-5.2l-0.7-2.8V16.3c0-0.3,0.1-0.4,0.3-0.4c-0.2-0.2-0.3-1.4-0.3-3.6H1c0,1.3-0.2,2-0.7,2L0,13.5
		c0.2-2.7,0.3-4.8,0.3-6.4V6.8H1v1.6h0.3V4c0.3-1.3,1.8-2,4.3-2h5.6L11.9,1.6z M0.3,26.2H1v6.7c0,0.5-0.2,0.8-0.7,0.8L0,32.9
		c0.2-2.7,0.3-4.8,0.3-6.4V26.2z M10.6,27c-0.2,3.4-0.5,6-1,7.9v2.4l0.7-0.4h0.3c0.2,0,0.3,0.1,0.3,0.4l0.7-0.4
		c0.4,0.1,0.6,0.3,0.6,0.8c1.2-0.4,2.3-1.2,3.3-2.4l-0.3-0.8c0.3-0.4,0.6-1.5,1-3.2l-0.4-0.8c0-0.3,0.1-0.4,0.4-0.4
		c0-0.8-1.3-1.9-4-3.2H10.6z M10.3,8.4v0.4c0,0.3,0.1,0.4,0.3,0.4l-0.3,2v7.1c0.6,0,1,0.1,1,0.4l0.7-0.4c0.4,0.1,0.7,0.3,0.7,0.8
		c1.1-0.4,2.2-1.2,3.3-2.4l-0.3-0.8c0.3-0.4,0.6-1.5,1-3.2l-0.3-0.8c0-0.3,0.1-0.4,0.3-0.4c0-0.8-1.3-1.8-4-3.2H10.3z M23.1,38.1h1
		v0.8c0,0.4-0.3,0.8-1,1.2c0-0.3-0.1-0.4-0.3-0.4C23,39.2,23.1,38.7,23.1,38.1z M23.5,19.5h1v0.8c0,0.4-0.3,0.8-1,1.2
		c0-0.3-0.1-0.4-0.4-0.4C23.3,20.6,23.5,20.1,23.5,19.5z"/>
	<path class="st0" d="M41,1.1c0.7,0,1.3,0.1,1.7,0.2c0.3-0.1,0.6-0.1,0.8-0.1l0.6,0.1v0.3c-0.8,0.1-1.4,0.1-1.8,0.1v0.4h0.1
		c0.2,0,0.5,0,1-0.1c0.2,0,0.5,0.1,1,0.2c0.4-0.1,0.8-0.1,1.1-0.1c0.3,0,0.8,0,1.3,0.1c0.1,0,0.2,0,0.4-0.1l1.2,0.1
		c0.3,0,0.7,0,1-0.1c0.7,0.1,1.2,0.1,1.6,0.1c0.4,0,2,0,4.7-0.1c0.3,0.1,0.5,0.2,0.5,0.4C56.1,3.7,56,4.8,56,5.8V6h0.1
		c0-0.3,0.1-0.5,0.3-0.5h0.1v1.9c0,0.2-0.1,0.2-0.3,0.2c-0.1-0.2-0.1-0.3-0.1-0.4H56c0,0.3-0.1,0.5-0.2,0.5h-0.7
		c-1.1,0-2.1,0-3.3,0.1c-0.9-0.2-1.6-0.3-2.1-0.3c-0.2,0.1-0.4,0.2-0.4,0.3c-1-0.1-1.5-0.2-1.5-0.3l-0.6,0.1h-3
		c-0.3,0-0.8,0-1.3-0.1c-0.2,0.1-0.3,0.1-0.5,0.1v0.3l0.5,1c-0.1,1.4-0.3,2.1-0.6,2.1c0,0.3,0,0.5,0.1,0.5l-0.1,1.5v2.3
		c0,0.2,0,0.3,0.1,0.5c-0.1,0.1-0.1,0.3-0.1,0.5v1.6c0.5,0,0.8,0,0.8-0.1C47,17.9,49,18,49,18.3c-0.1,0-0.1,0-0.1,0.1
		c0.4-0.1,0.8-0.1,1-0.1c0.2,0,0.5,0.1,0.8,0.4c0-0.2,0.1-0.2,0.3-0.2c0.2,0,0.2,0.1,0.2,0.2v3.7l-0.2,0.4l0.2,0.4
		c-0.2,0-0.2,0.1-0.2,0.2v1.3c0,0.2-0.1,0.2-0.4,0.2v0.2l0.3,0.4c0,0.2-0.1,0.2-0.3,0.2c-0.4-0.1-0.8-0.1-1.1-0.1v-0.4L48,25.3h-1.5
		l-0.8-0.1c0,0.2,0.1,0.3,0.2,0.3h2.9l0.6,0.1c0,0.2-0.1,0.2-0.2,0.2h-1c-0.6,0-1.2,0-1.6,0.1c-0.5-0.1-1.1-0.1-1.7-0.1h-1.5
		l-0.4-0.2c-0.3,0.1-0.6,0.1-0.8,0.1v2.9l0.2-0.1h0.1v0.8c0,0.6-0.1,0.9-0.4,0.9v0.7c0.2,0,0.4,0.1,0.4,0.3v2.2c0,0.6,0,1.5,0.1,2.7
		l-0.5,0.7h-0.1v0.7h0.5c0-0.3,0.1-0.4,0.3-0.4h1.3l0.7,0.1c0.1-0.1,0.3-0.1,0.5-0.1c0.1,0.2,0.1,0.3,0.1,0.4h0.1
		c0.9,0,1.6,0,2.1,0.1c1.4-0.2,3.3-0.2,5.5-0.2H54c1.8,0,2.7,0.2,2.7,0.6v0.7c0,0.1,0,0.1-0.1,0.1l0.2,0.7c-0.1,0.8-0.1,1.5-0.1,2
		v0.4c0,0.2-0.1,0.3-0.4,0.3v0.6c0,0.1-0.2,0.2-0.5,0.5c-1.3-0.1-2.4-0.1-3-0.1h-6.8v0.1c0.5,0,0.7,0,0.7,0.1l0.3-0.1
		c0.7,0.1,1.1,0.1,1.3,0.1v0.2l-0.6,0.1h-3.5c-0.1,0-0.1,0-0.1-0.1c-0.3,0.1-0.6,0.2-0.8,0.4l-0.2-0.1c-0.2,0.1-0.3,0.1-0.4,0.1
		c-0.2,0-0.2,0-0.2-0.1L41.4,44h-1.6c-0.3,0-0.7,0-1.1,0.1c-0.4-0.2-1.9-0.3-4.6-0.4v-0.4h0.1c0.4,0,0.8,0,1.1,0.1l0.8-0.1
		c0.7,0.1,1.1,0.1,1.2,0.1c0.4-0.1,0.8-0.1,1.1-0.1v-0.1c-3,0-4.5-0.2-4.5-0.5V39c0-0.2-0.1-0.3-0.2-0.3c0.2-0.8,0.2-2.1,0.2-3.9v-1
		c-0.2,0-0.4-0.1-0.4-0.2V32c0-0.2,0.1-0.2,0.2-0.2l0.3,0.1v-0.5c0-2.2,0.1-4.1,0.2-5.5c0-0.1,0-0.2-0.1-0.4
		c0.1-0.4,0.1-0.8,0.1-1.1v-0.1l-0.1-0.7c0.2-0.4,0.2-1,0.2-1.8c0-0.4,0-0.9-0.1-1.6v-1.6c-0.2,0-0.4-0.5-0.5-1.5
		c0.1-2.4,0.3-3.6,0.4-3.6l-0.1-0.3v-0.1c0-0.2,0.1-0.2,0.2-0.2c0,0.1,0,0.1,0.1,0.1v-0.4l-0.2,0.1c-0.2,0-0.3-0.1-0.3-0.3
		c0-0.6,0.2-1,0.5-1V7.8c0-0.5,0-1,0.1-1.4c-0.1-0.4-0.1-0.9-0.1-1.5V2.6c-0.2,0-0.4-0.1-0.4-0.4c0.1-0.2,0.1-0.3,0.1-0.4h0.1
		c0.1,0,0.1,0,0.1,0.1c0.2-0.1,0.5-0.2,1.1-0.2C36.9,1.9,37.7,2,38.1,2l0.1-0.2h-1.1l-0.8-0.1V1.5c0-0.2,0.1-0.2,0.3-0.2h1.9
		c0.3,0,0.7,0,1.1,0.1C39.8,1.2,40.3,1.1,41,1.1z M33.9,31.1l0.1,0.2v0.1c0,0.2-0.1,0.2-0.2,0.2l-0.1-0.2v-0.1
		C33.7,31.1,33.8,31.1,33.9,31.1z M34.3,6.2l0.1,0.3v1.2c0,0.7,0,1.4-0.1,2.3c0.1,0.1,0.1,0.4,0.1,0.7L34,11l-0.1-0.2
		c0-0.2,0-0.3,0.1-0.5c-0.1-0.3-0.1-0.5-0.2-0.5C33.8,7.4,34,6.2,34.3,6.2z M42.2,32.9v0.5h0.1v-0.5H42.2z M42.9,11.2
		c0,0.1,0,0.1,0.1,0.1c-0.1,1.1-0.1,1.9-0.1,2.4V15c0,0.1,0,0.1-0.1,0.1c0.2,0.4,0.3,1,0.3,1.9v0.1c0,0.2-0.1,0.2-0.3,0.2
		c-0.2-0.2-0.2-0.4-0.2-0.5l0.1-1.2c-0.1-0.4-0.1-0.8-0.1-1l0.1-0.2c-0.1-0.1-0.2-0.5-0.2-1.1c0.2-0.3,0.2-0.5,0.2-0.7v-0.4
		l-0.1-0.8L42.9,11.2z M46.4,1.1h0.1c0.2,0,0.3,0.1,0.3,0.2c-0.1,0-0.1,0-0.1,0.1c1.5,0,2.3,0.1,2.3,0.4L48.7,2h-4.2
		c-0.2,0-0.3-0.1-0.3-0.2C45.7,1.6,46.4,1.4,46.4,1.1z M51.2,43.2l1.8,0.2c0,0.1-0.2,0.3-0.6,0.5h-0.1l-0.4-0.2h-2.5l-0.6-0.1
		c0,0.1,0,0.1-0.1,0.1l-0.1-0.3l0.2-0.1h0.7C50.1,43.3,50.7,43.3,51.2,43.2z M50.6,19.7v2.6h0.3l-0.1-0.5v-2.1H50.6z M51.8,1.2h0.1
		c0.2,0,0.2,0.1,0.2,0.2l-0.2,0.1h-0.1V1.2z M56,6.1c0,0.2,0,0.4-0.1,0.5C56,6.8,56,6.9,56,7h0.1V6.1H56z"/>
	<path class="st0" d="M75.9,1.5c1.4,0.1,2.4,0.1,2.8,0.1c0.6,0,1.8,0,3.6-0.1c0.7,0,1,0.5,1.1,1.5c0.2,1.7,0.5,2.8,1,3.2
		c0.7,3.5,1.1,5.3,1.1,5.3l-0.1,0.2l1.6,6.5c0,0.2-0.1,0.5-0.2,0.7c0.7,2.3,1.5,6.2,2.6,11.7c0.4,0,0.8,1.7,1.2,5.1l1,5.4
		c-0.2,0.1-0.3,0.1-0.4,0.1l0.4,2l-0.3,0.1c-0.3,0-2.4,0.1-6.3,0.3c0-0.2-0.1-0.3-0.3-0.3c0,0.3-0.1,0.4-0.2,0.4
		c-0.3-0.7-0.4-1.4-0.4-2c0.2,0,0.2-0.1,0.2-0.2c0-0.3-0.2-0.6-0.6-1c0.1,0,0.1,0,0.1-0.1c-0.1,0-0.4-0.8-0.7-2.3
		c0-0.2,0.1-0.2,0.4-0.2v-0.1c0-0.6-0.2-1.1-0.6-1.3c-0.2-1-0.5-1.9-0.9-2.7c0-0.1,0-0.1,0.1-0.1c-0.3-1.1-0.4-1.8-0.4-2.2l0.3-0.1
		c0-1.1-0.4-1.6-1.2-1.6H79c-0.4,0-0.6-0.2-0.6-0.5c-0.8,0.1-1.4,0.1-1.8,0.1h-0.6c-0.6,0.7-1.1,1.8-1.3,3.3c-0.1,0-0.2,0.1-0.3,0.4
		c0.3,0,0.5,0.1,0.5,0.2c-0.7,3-1.2,5-1.5,6c0,0.4-0.1,0.7-0.2,1.1c0.1,0.4,0.1,0.8,0.1,1.1c-0.1,0.3-0.3,1-0.6,2.1h-0.2
		c0-0.7,0.1-1.5,0.4-2.2h-0.4c-0.1,1.4-0.4,2.1-0.6,2.1h-0.1c-0.6,0-1.5,0.1-2.7,0.2c-1.5-0.1-2.7-0.1-3.6-0.1
		c0-0.2-0.1-0.3-0.2-0.3l-0.3,0.1l-0.1-0.3c0.4-2.5,0.7-3.7,1-3.7l0.1,0.3c-0.2,0.5-0.2,0.8-0.2,0.8v0.4h0.1l1.1-4.5
		c-0.2,0-0.2-0.1-0.2-0.2c0-0.4,0.6-2.9,1.7-7.6l-0.1-0.6c0.2-0.5,0.4-1.4,0.6-2.6c0-0.3,0.2-0.8,0.7-1.4l2.2-8.9l2.5-8.1
		c0.5-0.1,0.7-0.3,0.7-0.8c-0.1-0.1-0.1-0.3-0.1-0.5H75V5.8C75.4,3,75.7,1.5,75.9,1.5z M68.8,43.9h3v0.4h-3V43.9z M72.3,43.8
		c0.2,0,0.2,0.1,0.2,0.3c0,0.2-0.1,0.2-0.2,0.2c-0.2,0-0.3-0.1-0.3-0.2C72.1,43.9,72.2,43.8,72.3,43.8z M77.3,21.1h0.4v0.5L77.4,22
		v0.7H77v-0.2l0.1-0.8v-0.1H77c0,0.1-0.1,0.6-0.4,1.7c0.5-0.2,1.1-0.2,2-0.2c0.1,0,0.3,0,0.7,0.1c0.1-0.1,0.3-0.1,0.6-0.1l-0.1-0.3
		c0-0.1,0-0.2,0.1-0.4c-0.1-0.7-0.2-1.3-0.4-1.9l0.4-0.2c-0.3-2-0.6-3.9-1.1-5.8c-0.2,0-0.6,1.4-1.1,4.3
		C77.7,18.9,77.5,19.6,77.3,21.1z M80.4,22.7c0,0.1,0,0.2-0.1,0.4l0.2,0.1h0.3c-0.2-0.2-0.3-0.4-0.3-0.5H80.4z M90.2,43.6l1.3,0.1
		v0.4c-1.7,0.2-3.1,0.2-4.2,0.2h-2.4v-0.2H85L90.2,43.6z M87.3,18.8v0.4c-0.2,0-0.3-0.1-0.3-0.2L87.3,18.8z M87.7,20.6l0.1,0.3v0.2
		h-0.1c-0.2,0-0.3-0.1-0.3-0.2C87.5,20.7,87.6,20.6,87.7,20.6z"/>
	<path class="st0" d="M117.4,1.7c5.8,1.3,8.8,2.7,8.8,4l2.7-0.4h0.4c0.4,0,1,0.8,1.9,2.4L130.4,8c0-0.3-0.1-0.4-0.4-0.4V8
		c1.8,3.4,2.7,6.3,2.7,8.7l1.1-0.8c0.5,1.1,0.8,2,0.8,2.8h-0.4c-0.6,0-1-0.5-1.1-1.6h-0.4v0.4c0.3,0.5,0.4,1,0.4,1.6l-0.8,0.4h-0.4
		c-1.6,0-3.3,0.1-5,0.4c-2.1,0-3.5-1.3-4.2-4l-0.9-4.5l-0.8,0.4c-3.3-0.8-5.2-1.2-5.7-1.2c0,0.5-0.3,0.8-0.8,0.8
		c0-0.5-0.3-0.8-0.8-0.8c-3.7,3.6-5.6,7.9-5.6,13.2c0.4,0,0.8,0.4,1.1,1.2l-0.4,0.8c0.3,0.5,0.4,0.9,0.4,1.2
		c-0.5,0.3-0.9,0.4-1.1,0.4c0.2,1.2,1.1,3.7,2.7,7.6l0.8-0.4c3.3,0.8,5.2,1.2,5.7,1.2c0.1-0.5,0.3-0.8,0.8-0.8
		c0.1,0.5,0.3,0.8,0.8,0.8c3.3-3.4,5-7,5-10.8h0.4c0.3,0,0.4,0.1,0.4,0.4l0.8-0.4h0.8c0.7,0.4,2.6,1,5.7,1.6l0.8,1.2V29
		c-2.7,7-6.6,11.6-11.8,13.8c-2.5,1.1-4.3,1.6-5.4,1.6c-5.8-1.3-8.8-2.6-8.8-4l-2.7,0.4h-0.4c-0.4,0-1-0.8-1.9-2.4l0.8-0.4
		c0,0.3,0.1,0.4,0.4,0.4v-0.4c-1.4-2.3-2.6-6.1-3.4-11.5l0.4-6.3c-0.3-0.5-0.4-0.9-0.4-1.2c0.5-0.1,1.7-2.7,3.4-7.9
		c3.1-4.6,7.5-7.8,13.3-9.5H117.4z M101,9.6v1.2h-0.8v-0.4C100.3,9.9,100.6,9.6,101,9.6z M104.8,6.1c0.3,0.5,0.4,0.9,0.4,1.2
		c0,0.9-1,1.9-3,3.2l-0.4-0.8C103.5,7.3,104.5,6.1,104.8,6.1z M105.2,41.7c1.8,0.4,2.7,0.7,2.7,1.2l-0.8,0.4c-1.3,0-2.1-0.4-2.3-1.2
		C105.1,42.1,105.2,41.9,105.2,41.7z M125.8,2.9c1.5,0.2,2.3,0.5,2.3,1.2c-0.3,0-0.4,0.1-0.4,0.4c-1.8-0.4-2.7-0.8-2.7-1.2
		L125.8,2.9z M130.8,35.7l0.4,0.8c-1.7,2.4-2.8,3.6-3,3.6c-0.3-0.5-0.4-0.9-0.4-1.2C127.7,38,128.7,37,130.8,35.7z M131.9,35.3h0.8
		v0.4c0,0.5-0.3,0.8-0.8,0.8V35.3z"/>
	<path class="st0" d="M162.6,2.4h0.3c0.6,0,2.3-0.3,5.2-0.8C169.3,2,170,2.8,170,4c0,1.1-0.1,2.5-0.3,4.3c0,0.8,0.1,1.7,0.3,2.8
		c-0.2,3.9-0.3,7.1-0.3,9.7v3.1c0,2.6-0.2,3.9-0.6,3.9l0.3,2v10.1l-0.3,4.7h-3.2c-0.8-0.8-1.6-1.2-2.3-1.2h-2.9v-0.8
		c-0.4-0.3-0.6-0.6-0.6-1.2v-0.8c0-0.5,0.3-0.8,1-0.8c0-0.3-0.1-0.4-0.3-0.4l0.3-4.7v-4.7c-0.4-0.6-0.6-1.4-0.6-2.3h-0.6
		c-0.7,0-1.3-0.1-1.6-0.4l-1.9,0.4h-2.6c-0.4,0-0.6-0.3-0.6-0.8c0.3-0.3,1.8-0.5,4.5-0.8v-0.4h-4.8c-0.4,0.1-0.6,0.4-0.6,0.8
		c0,0.8,0.1,1.7,0.3,2.7c-0.2,3.1-0.3,5.8-0.3,8.2v1.6c0.2,2.2,0.1,3.9-0.2,5l-6.9-0.3c-0.4-0.6-0.6-1.5-0.6-2.7h-0.3V43h-0.6v-3.1
		l0.6-1.2V34c-0.6-0.9-1-2.5-1-4.7v-1.9c0-3.1,0.3-5.4,1-7c0-12.5,0.6-18.7,1.9-18.7h4.5c1.3,0,1.9,0.8,1.9,2.3l1.3-1.2l1,1.6v3.1
		c0,0.5-0.3,0.8-1,0.8v1.6h1v0.8c-0.6,1.3-1,1.9-1.3,2c0-0.5-0.2-0.8-0.6-0.8l0.2,4.5c-0.2,1.4-0.3,2.1-0.3,2.3v0.4h0.3h1.3
		c1.1,0,1.6,0.1,1.6,0.4c1.1-0.5,2.7-0.8,4.8-0.8l1.3,0.4l0.3-0.8v-1.2l-0.3-2.8l-0.5-2.1c-0.5-4.7-0.3-7,0.5-7V2.8L162.6,2.4z
		 M152.6,4.8l-0.3,3.5h0.6V4.8H152.6z"/>
	<path class="st0" d="M190.3,1.6c5.4,1,8.7,2,10.1,3l0.3-0.7c1,0.5,1.5,1,1.6,1.5v0.4l-0.3,1.9c0.2,0,0.5,0.1,0.9,0.4V7.2
		c-0.2-0.5-0.3-0.8-0.3-1.1h0.3c0.3,0,0.6,0.4,1,1.1v0.4c0,0.5-0.3,0.8-1,0.8c1.2,2.4,1.8,4.5,1.9,6.4l-0.6,0.4h-0.3
		c-1.3,0-2.7,0.1-4.1,0.4c-1.8,0-2.9-1.2-3.5-3.7c-0.9-1.5-1.9-2.3-3.1-2.3c0,0.5-0.2,0.7-0.6,0.7c-0.2,0-0.3-0.1-0.3-0.4l-0.6,0.4
		l-1-0.7h-0.9c-1.6,1.3-2.4,2.3-2.6,3l0.3,0.7c0,0.3-0.1,0.4-0.3,0.4c0,4.3,1,6.4,2.9,6.4c0.1-0.5,0.3-0.7,0.6-0.7h1.9
		c0.8,0.9,1.8,1.4,3.2,1.5c1.8,1,3,1.8,3.5,2.2h0.3v-0.4c-0.6,0-1-0.8-1.3-2.3l0.6-0.4l0.3,0.8c-0.2,0-0.3,0.1-0.3,0.4
		c1.5,0.9,2.4,1.7,2.5,2.2c-0.4,0.3-0.7,0.4-0.9,0.4c2.5,3.7,3.8,6.6,3.8,8.6c-0.2,2.3-0.7,4.2-1.6,5.6c0.6,0,0.9,0.3,0.9,0.8V39
		c0,0.4-0.3,0.8-0.9,1.1h-0.3l0.3-1.9c-0.4,0.3-0.7,0.4-1,0.4l0.3,1.8v0.4c-0.1,0.5-0.6,1-1.6,1.5l-0.3-0.7c-1.5,1-4.2,1.9-8.2,2.6
		c-4.2-0.7-7-1.6-8.5-2.6l-0.3,0.7c-0.9-0.5-1.5-1-1.6-1.5v-0.4l0.3-1.8c-0.2,0-0.6-0.1-1-0.4V39c0.2,0.5,0.3,0.9,0.3,1.1h-0.3
		c-0.3,0-0.6-0.4-0.9-1.1v-0.4c0-0.5,0.3-0.8,0.9-0.8c-1-2.1-1.6-3.6-1.6-4.5c0-1.2,1.7-2.1,5-2.6c0-0.3,0.1-0.4,0.3-0.4h0.6
		c0.2,0,0.3,0.1,0.3,0.4l0.6-0.4h0.3l0.3,2.6v0.4l-0.3,0.7c0.4,0,1.4,0.4,2.9,1.3l1.3,0.4l3-0.3c1.7-0.2,2.7-1.8,2.9-4.7l-0.3-0.8
		c0.2-0.5,0.3-0.9,0.3-1.1c-2.2-1.8-3.3-2.6-3.5-2.6h-2.2c-2.6,0-5.2-0.7-7.9-2.2l-0.3,0.7c-1-0.5-1.5-1-1.6-1.5v-0.4l0.3-1.8
		c-0.2,0-0.5-0.1-0.9-0.4v0.7c0.2,0.5,0.3,0.9,0.3,1.1h-0.3c-0.3,0-0.6-0.4-1-1.1V21c0-0.5,0.3-0.8,1-0.8c-1.1-2-1.6-4-1.6-6
		c0.2-2,1.4-4.8,3.8-8.2c-0.6,0-0.9-0.2-0.9-0.7c1.7-1.2,2.5-1.9,2.5-2.3c-0.2,0-0.3-0.1-0.3-0.4l0.6-0.4c0,0.2,0.1,0.4,0.3,0.4
		c-0.3,1.5-0.7,2.3-1.3,2.3v0.4h0.6c0-0.6,2-1.7,6-3.4V1.6z M180.2,28.9c0.2,0,0.5,0.1,0.9,0.4l1.9-0.4c0.4,0.1,0.6,0.3,0.6,0.7
		l-1.6,0.8l-0.3-0.8c-0.4,0-1.1,0.6-1.9,1.9l-0.3-0.7v-1.1C179.7,29.1,179.9,28.9,180.2,28.9z"/>
	<path class="st0" d="M219.2,1.2h4.1c0.3,0,0.6,0.4,0.9,1.2v0.4c0,0.3-0.1,0.4-0.3,0.4c0,0.3,0.1,0.4,0.3,0.4c0,0.2-0.1,1.9-0.3,5.3
		c0,2.1,0.1,7.8,0.3,17.2h-0.3c0,0.3,0.1,0.4,0.3,0.4l-0.3,2v3.3l-0.9,1.6v8.6c-0.8,1-1.2,1.7-1.2,2.1h-0.3v-0.8h-4.1
		c-1.4,0-2.1-1.8-2.1-5.3c0-0.5-0.3-1.2-0.9-2.1V16.8c0-0.6,0.1-1.2,0.3-1.6c-0.2-0.4-0.4-2.2-0.6-5.3c0.2-2.9,0.3-5.2,0.3-6.9
		C215.5,1.8,217.1,1.2,219.2,1.2z"/>
	<path class="st0" d="M242.3,1.6c1.7,0,4.6,0.6,8.8,1.9c0.7,0.1,2.3,1.1,4.7,2.8v0.1l-0.1,0.2c0.4,0.2,1.1,0.8,2.1,1.9l0.2-0.1h0.1
		V9l0.2-0.1c1.2,1.1,2.4,2.8,3.6,5.1c0.1,0.1,0.1,0.3,0.1,0.5c-0.2,0-0.2,0.1-0.2,0.3v0.1c0.5,1.4,0.9,3.4,1.3,6.2l-0.1,1.2
		c0.2,0,0.2,0.1,0.2,0.2v0.4c0,2.5-0.8,5.6-2.3,9.2c-0.9,1.4-1.8,2.4-2.7,2.9c-0.6,1.1-1.4,1.9-2.3,2.5c0.1,0.2,0.1,0.3,0.1,0.4
		c-0.4,0.7-1.9,1.9-4.4,3.4c-0.2,0.2-1.1,0.7-2.9,1.3c0-0.2-0.1-0.2-0.2-0.2h-0.5l-0.7,0.5h-0.1c-0.2-0.2-0.3-0.2-0.4-0.2
		c0,0.3-0.2,0.5-0.6,0.5l-0.1-0.2c-3.6,0.5-7.2,0.8-10.7,0.8c-1.4-0.2-2.1-0.4-2.3-0.6c-0.1-2-0.1-3.6-0.1-4.8v-5
		c-0.3-0.9-0.5-1.7-0.5-2.4c0.1-0.5,0.1-1.1,0.1-1.9h0.4l-0.2-4.1c-0.3,0-0.5-0.8-0.5-2.3c-0.1,0-0.1-0.1-0.1-0.2l0.1-1.2
		c-0.1-1.6-0.1-2.6-0.1-3.1l0.2-0.1l0.3,0.1c0-0.8,0-1.2,0.1-1.2c-0.2-0.3-0.3-0.5-0.3-0.6c0.1-0.7,0.1-1.1,0.1-1.3l-0.3,0.1
		c-0.2,0-0.2-0.1-0.2-0.2V13l0.5-0.5l-0.1-0.2l0.1-0.7l-0.1-0.2c0.1-0.2,0.1-0.3,0.1-0.4l-0.3-0.1v1h-0.2V9.7h0.2v0.6h0.1V3.2
		c0-0.1,0-0.1,0.1-0.1l-0.1-0.3V2.6c0-0.2,0.4-0.2,1.2-0.2V2.2h-1V2.1c0-0.3,0.7-0.4,2.1-0.4v0.1l-0.1,0.3c2-0.1,3.5-0.1,4.5-0.1
		h2.8C242.2,1.9,242.2,1.8,242.3,1.6z M241.2,9c0,0.5-0.2,0.7-0.6,0.7v1.1c0.2,0,0.3,1.3,0.5,4c-0.1,0.9-0.1,1.8-0.1,2.7v2.6
		c0,0.2-0.1,0.3-0.4,0.3l0.1,0.7l-0.1,0.7c0.1,1,0.1,1.6,0.1,2.1c0,0.3,0,1.4-0.1,3.5c0.2,0,0.4,0.6,0.4,1.9c0,0.9-0.1,1.3-0.2,1.3
		l0.1,0.3v1.2c0,0.2-0.1,0.2-0.4,0.2v2.8c0.1,0,0.2,0,0.5-0.1l1.1,0.1c1.2-0.2,2-0.4,2.4-0.4l-0.1-0.3c0-0.2,0.4-0.4,1.3-0.5
		c0-0.4,0.7-0.8,2.1-1.3l2.7-1.8c0.2,0.1,0.3,0.1,0.4,0.1c1.8-1.9,3-3.9,3.6-6.1c0.2-1.9,0.3-3,0.5-3.3c-0.2-3.8-0.7-6-1.5-6.7
		c0,0.1,0,0.1-0.1,0.1c0.5,1,0.8,1.7,0.8,2.3h-0.4c0-0.6-0.7-1.9-2.1-4l0.1-0.2c-1-1.1-2.5-2-4.5-2.9v-0.2h0.2
		c0-0.2-0.6-0.4-1.7-0.6h-1.4l-0.4-0.2c-0.2,0-0.3,0-0.5,0.1C243.5,9.2,242.7,9.1,241.2,9z M241.1,23.4l0.1,0.2V24
		c0,0.2-0.1,0.3-0.2,0.3h-0.1v-0.6C240.9,23.5,241,23.4,241.1,23.4z M253.6,25.8h0.4v0.1l-1,1.8l-0.1-0.2
		C253.3,26.5,253.6,26,253.6,25.8z"/>
	<path class="st0" d="M278.4,1.1c0.7,0,1.3,0.1,1.7,0.2c0.3-0.1,0.6-0.1,0.8-0.1l0.6,0.1v0.3c-0.8,0.1-1.4,0.1-1.8,0.1v0.4h0.1
		c0.2,0,0.5,0,1-0.1c0.2,0,0.5,0.1,1,0.2c0.4-0.1,0.8-0.1,1.1-0.1c0.3,0,0.8,0,1.3,0.1c0.1,0,0.2,0,0.4-0.1l1.2,0.1
		c0.3,0,0.7,0,1-0.1c0.7,0.1,1.2,0.1,1.6,0.1c0.4,0,2,0,4.7-0.1c0.3,0.1,0.5,0.2,0.5,0.4c-0.1,1.2-0.1,2.3-0.1,3.3V6h0.1
		c0-0.3,0.1-0.5,0.3-0.5h0.1v1.9c0,0.2-0.1,0.2-0.3,0.2c-0.1-0.2-0.1-0.3-0.1-0.4h-0.1c0,0.3-0.1,0.5-0.2,0.5h-0.7
		c-1.1,0-2.1,0-3.3,0.1c-0.9-0.2-1.6-0.3-2.1-0.3c-0.2,0.1-0.4,0.2-0.4,0.3c-1-0.1-1.5-0.2-1.5-0.3l-0.6,0.1h-3
		c-0.3,0-0.8,0-1.3-0.1c-0.2,0.1-0.3,0.1-0.5,0.1v0.3l0.5,1c-0.1,1.4-0.3,2.1-0.6,2.1c0,0.3,0,0.5,0.1,0.5l-0.1,1.5v2.3
		c0,0.2,0,0.3,0.1,0.5c-0.1,0.1-0.1,0.3-0.1,0.5v1.6c0.5,0,0.8,0,0.8-0.1c3.9,0.1,5.8,0.2,5.8,0.5c-0.1,0-0.1,0-0.1,0.1
		c0.4-0.1,0.8-0.1,1-0.1c0.2,0,0.5,0.1,0.8,0.4c0-0.2,0.1-0.2,0.3-0.2c0.2,0,0.2,0.1,0.2,0.2v3.7l-0.2,0.4l0.2,0.4
		c-0.2,0-0.2,0.1-0.2,0.2v1.3c0,0.2-0.1,0.2-0.4,0.2v0.2l0.3,0.4c0,0.2-0.1,0.2-0.3,0.2c-0.4-0.1-0.8-0.1-1.1-0.1v-0.4l-1.5,0.1H284
		l-0.8-0.1c0,0.2,0.1,0.3,0.2,0.3h2.9l0.6,0.1c0,0.2-0.1,0.2-0.2,0.2h-1c-0.6,0-1.2,0-1.6,0.1c-0.5-0.1-1.1-0.1-1.7-0.1h-1.5
		l-0.4-0.2c-0.3,0.1-0.6,0.1-0.8,0.1v2.9l0.2-0.1h0.1v0.8c0,0.6-0.1,0.9-0.4,0.9v0.7c0.2,0,0.4,0.1,0.4,0.3v2.2c0,0.6,0,1.5,0.1,2.7
		l-0.5,0.7h-0.1v0.7h0.5c0-0.3,0.1-0.4,0.3-0.4h1.3l0.7,0.1c0.1-0.1,0.3-0.1,0.5-0.1c0.1,0.2,0.1,0.3,0.1,0.4h0.1
		c0.9,0,1.6,0,2.1,0.1c1.4-0.2,3.3-0.2,5.5-0.2h0.7c1.8,0,2.7,0.2,2.7,0.6v0.7c0,0.1,0,0.1-0.1,0.1l0.2,0.7c-0.1,0.8-0.1,1.5-0.1,2
		v0.4c0,0.2-0.1,0.3-0.4,0.3v0.6c0,0.1-0.2,0.2-0.5,0.5c-1.3-0.1-2.4-0.1-3-0.1h-6.8v0.1c0.5,0,0.7,0,0.7,0.1l0.3-0.1
		c0.7,0.1,1.1,0.1,1.3,0.1v0.2l-0.6,0.1h-3.5c-0.1,0-0.1,0-0.1-0.1c-0.3,0.1-0.6,0.2-0.8,0.4l-0.2-0.1c-0.2,0.1-0.3,0.1-0.4,0.1
		c-0.2,0-0.2,0-0.2-0.1l-0.8,0.1h-1.6c-0.3,0-0.7,0-1.1,0.1c-0.4-0.2-1.9-0.3-4.6-0.4v-0.4h0.1c0.4,0,0.8,0,1.1,0.1l0.8-0.1
		c0.7,0.1,1.1,0.1,1.2,0.1c0.4-0.1,0.8-0.1,1.1-0.1v-0.1c-3,0-4.5-0.2-4.5-0.5V39c0-0.2-0.1-0.3-0.2-0.3c0.2-0.8,0.2-2.1,0.2-3.9v-1
		c-0.2,0-0.4-0.1-0.4-0.2V32c0-0.2,0.1-0.2,0.2-0.2l0.3,0.1v-0.5c0-2.2,0.1-4.1,0.2-5.5c0-0.1,0-0.2-0.1-0.4
		c0.1-0.4,0.1-0.8,0.1-1.1v-0.1l-0.1-0.7c0.2-0.4,0.2-1,0.2-1.8c0-0.4,0-0.9-0.1-1.6v-1.6c-0.2,0-0.4-0.5-0.5-1.5
		c0.1-2.4,0.3-3.6,0.4-3.6l-0.1-0.3v-0.1c0-0.2,0.1-0.2,0.2-0.2c0,0.1,0,0.1,0.1,0.1v-0.4l-0.2,0.1c-0.2,0-0.3-0.1-0.3-0.3
		c0-0.6,0.2-1,0.5-1V7.8c0-0.5,0-1,0.1-1.4c-0.1-0.4-0.1-0.9-0.1-1.5V2.6c-0.2,0-0.4-0.1-0.4-0.4c0.1-0.2,0.1-0.3,0.1-0.4h0.1
		c0.1,0,0.1,0,0.1,0.1c0.2-0.1,0.5-0.2,1.1-0.2c1.3,0.2,2.1,0.2,2.5,0.2l0.1-0.2h-1.1l-0.8-0.1V1.5c0-0.2,0.1-0.2,0.3-0.2h1.9
		c0.3,0,0.7,0,1.1,0.1C277.2,1.2,277.7,1.1,278.4,1.1z M271.3,31.1l0.1,0.2v0.1c0,0.2-0.1,0.2-0.2,0.2l-0.1-0.2v-0.1
		C271.1,31.1,271.2,31.1,271.3,31.1z M271.7,6.2l0.1,0.3v1.2c0,0.7,0,1.4-0.1,2.3c0.1,0.1,0.1,0.4,0.1,0.7l-0.4,0.2l-0.1-0.2
		c0-0.2,0-0.3,0.1-0.5c-0.1-0.3-0.1-0.5-0.2-0.5C271.3,7.4,271.4,6.2,271.7,6.2z M279.6,32.9v0.5h0.1v-0.5H279.6z M280.4,11.2
		c0,0.1,0,0.1,0.1,0.1c-0.1,1.1-0.1,1.9-0.1,2.4V15c0,0.1,0,0.1-0.1,0.1c0.2,0.4,0.3,1,0.3,1.9v0.1c0,0.2-0.1,0.2-0.3,0.2
		c-0.2-0.2-0.2-0.4-0.2-0.5l0.1-1.2c-0.1-0.4-0.1-0.8-0.1-1l0.1-0.2c-0.1-0.1-0.2-0.5-0.2-1.1c0.2-0.3,0.2-0.5,0.2-0.7v-0.4
		l-0.1-0.8L280.4,11.2z M283.9,1.1h0.1c0.2,0,0.3,0.1,0.3,0.2c-0.1,0-0.1,0-0.1,0.1c1.5,0,2.3,0.1,2.3,0.4L286.2,2h-4.2
		c-0.2,0-0.3-0.1-0.3-0.2C283.1,1.6,283.9,1.4,283.9,1.1z M288.6,43.2l1.8,0.2c0,0.1-0.2,0.3-0.6,0.5h-0.1l-0.4-0.2h-2.5l-0.6-0.1
		c0,0.1,0,0.1-0.1,0.1l-0.1-0.3l0.2-0.1h0.7C287.5,43.3,288.1,43.3,288.6,43.2z M288,19.7v2.6h0.3l-0.1-0.5v-2.1H288z M289.2,1.2
		h0.1c0.2,0,0.2,0.1,0.2,0.2l-0.2,0.1h-0.1V1.2z M293.5,6.1c0,0.2,0,0.4-0.1,0.5c0.1,0.2,0.1,0.3,0.1,0.4h0.1V6.1H293.5z"/>
</g>
<g>
	<path class="st0" d="M83.6,53.1c0.6,0,0.9,0,1.1,0c0.2,0,0.7,0,1.4,0c0.3,0,0.4,0.2,0.4,0.6c0.1,0.7,0.2,1.1,0.4,1.3
		c0.3,1.4,0.4,2.1,0.4,2.1l0,0.1l0.6,2.6c0,0.1,0,0.2-0.1,0.3c0.3,0.9,0.6,2.5,1,4.7c0.1,0,0.3,0.7,0.5,2l0.4,2.2
		c-0.1,0-0.1,0-0.2,0l0.2,0.8l-0.1,0c-0.1,0-0.9,0-2.5,0.1c0-0.1,0-0.1-0.1-0.1c0,0.1,0,0.2-0.1,0.2c-0.1-0.3-0.2-0.5-0.2-0.8
		c0.1,0,0.1,0,0.1-0.1c0-0.1-0.1-0.2-0.2-0.4c0,0,0,0,0,0c0,0-0.1-0.3-0.3-0.9c0-0.1,0.1-0.1,0.2-0.1v0c0-0.3-0.1-0.4-0.2-0.5
		c-0.1-0.4-0.2-0.7-0.4-1.1c0,0,0,0,0,0c-0.1-0.4-0.2-0.7-0.2-0.9l0.1,0c0-0.4-0.2-0.6-0.5-0.6h-0.7c-0.2,0-0.2-0.1-0.2-0.2
		c-0.3,0-0.6,0-0.7,0h-0.3c-0.3,0.3-0.4,0.7-0.5,1.3c0,0-0.1,0.1-0.1,0.2c0.1,0,0.2,0,0.2,0.1c-0.3,1.2-0.5,2-0.6,2.4
		c0,0.1,0,0.3-0.1,0.4c0,0.2,0,0.3,0,0.4c-0.1,0.1-0.1,0.4-0.2,0.8h-0.1c0-0.3,0-0.6,0.1-0.9h-0.1c-0.1,0.6-0.1,0.8-0.3,0.8h0
		c-0.2,0-0.6,0-1.1,0.1c-0.6,0-1.1,0-1.4,0c0-0.1,0-0.1-0.1-0.1l-0.1,0.1l0-0.1c0.2-1,0.3-1.5,0.4-1.5l0,0.1
		c-0.1,0.2-0.1,0.3-0.1,0.3v0.2h0l0.4-1.8c-0.1,0-0.1,0-0.1-0.1c0-0.2,0.2-1.2,0.7-3l0-0.3c0.1-0.2,0.2-0.5,0.2-1
		c0-0.1,0.1-0.3,0.3-0.6l0.9-3.6l1-3.2c0.2,0,0.3-0.1,0.3-0.3c0-0.1,0-0.1,0-0.2h0.1v0C83.4,53.7,83.5,53.1,83.6,53.1z M80.8,70.1
		H82v0.2h-1.2V70.1z M82.2,70c0.1,0,0.1,0,0.1,0.1s0,0.1-0.1,0.1c-0.1,0-0.1,0-0.1-0.1C82.1,70.1,82.1,70,82.2,70z M84.2,60.9h0.2
		v0.2l-0.1,0.2v0.3H84v-0.1l0.1-0.3v0H84c0,0,0,0.3-0.1,0.7c0.2-0.1,0.5-0.1,0.8-0.1c0,0,0.1,0,0.3,0c0.1,0,0.1,0,0.2,0l0-0.1
		c0,0,0-0.1,0-0.1c0-0.3-0.1-0.5-0.2-0.8l0.2-0.1c-0.1-0.8-0.2-1.6-0.4-2.3c-0.1,0-0.2,0.6-0.4,1.7C84.3,60.1,84.2,60.4,84.2,60.9z
		 M85.4,61.6c0,0,0,0.1,0,0.2l0.1,0h0.1C85.5,61.7,85.4,61.6,85.4,61.6L85.4,61.6z M89.3,69.9l0.5,0v0.2c-0.7,0.1-1.3,0.1-1.7,0.1
		h-0.9v-0.1h0.1L89.3,69.9z M88.2,60v0.1c-0.1,0-0.1,0-0.1-0.1L88.2,60z M88.3,60.7l0,0.1v0.1h0c-0.1,0-0.1,0-0.1-0.1
		C88.2,60.8,88.3,60.7,88.3,60.7z"/>
	<path class="st0" d="M97,53.2c0.7,0,1.8,0.3,3.5,0.8c0.3,0.1,0.9,0.4,1.9,1.1v0l-0.1,0.1c0.1,0.1,0.4,0.3,0.8,0.8l0.1,0h0v0.2
		l0.1,0c0.5,0.5,1,1.1,1.5,2c0,0.1,0,0.1,0,0.2c-0.1,0-0.1,0.1-0.1,0.1v0c0.2,0.5,0.4,1.4,0.5,2.5l0,0.5c0.1,0,0.1,0,0.1,0.1v0.1
		c0,1-0.3,2.2-0.9,3.7c-0.4,0.6-0.7,1-1.1,1.2c-0.3,0.4-0.6,0.8-0.9,1c0,0.1,0,0.1,0,0.1c-0.2,0.3-0.7,0.7-1.7,1.3
		c-0.1,0.1-0.4,0.3-1.2,0.5c0-0.1,0-0.1-0.1-0.1h-0.2l-0.3,0.2h0c-0.1-0.1-0.1-0.1-0.2-0.1c0,0.1-0.1,0.2-0.2,0.2l0-0.1
		c-1.5,0.2-2.9,0.3-4.3,0.3c-0.5-0.1-0.9-0.2-0.9-0.2c0-0.8,0-1.5,0-1.9v-2c-0.1-0.4-0.2-0.7-0.2-1c0-0.2,0.1-0.4,0.1-0.8h0.1
		l-0.1-1.7c-0.1,0-0.2-0.3-0.2-0.9c0,0,0,0,0-0.1l0-0.5c0-0.6,0-1.1,0-1.3l0.1,0l0.1,0c0-0.3,0-0.5,0-0.5c-0.1-0.1-0.1-0.2-0.1-0.2
		c0-0.3,0.1-0.5,0.1-0.5l-0.1,0c-0.1,0-0.1,0-0.1-0.1v-0.6l0.2-0.2l-0.1-0.1l0.1-0.3L93.2,57c0-0.1,0.1-0.1,0.1-0.1l-0.1,0v0.4H93
		v-0.8h0.1v0.2h0v-2.8c0,0,0,0,0.1,0l-0.1-0.1v-0.1c0-0.1,0.2-0.1,0.5-0.1v0h-0.4v0c0-0.1,0.3-0.2,0.8-0.2v0l0,0.1
		c0.8,0,1.4-0.1,1.8-0.1H97C97,53.3,97,53.2,97,53.2z M96.6,56.1c0,0.2-0.1,0.3-0.2,0.3v0.4c0.1,0,0.1,0.5,0.2,1.6
		c0,0.4,0,0.7,0,1.1v1.1c0,0.1,0,0.1-0.1,0.1l0,0.3l0,0.3c0,0.4,0,0.7,0,0.8c0,0.1,0,0.6,0,1.4c0.1,0,0.1,0.3,0.1,0.8
		c0,0.4,0,0.5-0.1,0.5l0,0.1v0.5c0,0.1-0.1,0.1-0.2,0.1v1.1c0,0,0.1,0,0.2,0l0.4,0c0.5-0.1,0.8-0.1,1-0.1l0-0.1
		c0-0.1,0.2-0.1,0.5-0.2c0-0.2,0.3-0.3,0.8-0.5l1.1-0.7c0.1,0,0.1,0,0.1,0c0.7-0.8,1.2-1.6,1.5-2.4c0.1-0.8,0.1-1.2,0.2-1.3
		c-0.1-1.5-0.3-2.4-0.6-2.7c0,0,0,0,0,0c0.2,0.4,0.3,0.7,0.3,0.9h-0.2c0-0.2-0.3-0.8-0.8-1.6l0-0.1c-0.4-0.4-1-0.8-1.8-1.2v-0.1h0.1
		c0-0.1-0.2-0.1-0.7-0.2h-0.6l-0.2-0.1c-0.1,0-0.1,0-0.2,0C97.5,56.2,97.1,56.1,96.6,56.1z M96.5,61.9L96.5,61.9l0,0.2
		c0,0.1,0,0.1-0.1,0.1h0L96.5,61.9C96.4,61.9,96.5,61.9,96.5,61.9z M101.5,62.8h0.2v0l-0.4,0.7l-0.1-0.1
		C101.4,63.1,101.5,62.9,101.5,62.8z"/>
	<path class="st0" d="M108.7,54.3c0.6,2.8,0.9,4.3,0.9,4.4h-0.2l-0.9-4.3L108.7,54.3z M117.7,53.1h0.1c0.1,0,0.2,0.1,0.2,0.3
		c0.4-0.2,0.7-0.3,1-0.3l0.1,0.3c-0.1,0.1-0.4,0.2-0.9,0.2v0.2c0.1,0,0.3,0.2,0.5,0.5c0.1-0.1,0.3-0.2,0.3-0.2v0.2
		c-0.1,0.5-0.2,0.8-0.3,0.8c-0.1-0.2-0.1-0.3-0.1-0.5h-0.1c-0.4,2-0.8,3.7-1.2,5.3c0.2,0,0.2,0.1,0.2,0.3v0.2
		c-0.9,3.2-1.4,5.2-1.4,5.9v0.5c-0.4,0-0.7,0.9-0.9,2.4l-0.2,0.2h-0.1c0-0.4,0.3-1.6,0.9-3.8v-0.2h-0.1c-0.5,1.7-0.9,3.1-1.1,4.3
		v0.2c0.2,0,0.3,0.1,0.3,0.3l-0.1,0.3c-0.7-0.2-1-0.4-1-0.8l-0.2,0.2H113c-0.1,0-0.4-0.1-0.9-0.3c-0.1,0.1-0.3,0.2-0.3,0.2
		c-0.8-3-1.1-4.7-1.1-5h0.1c0.1,0,0.5,1.5,1.1,4.6v0.2h0.1l0.1-0.8c-0.7-3.3-1.2-4.9-1.5-4.9c0,0-0.2-0.9-0.6-2.6v-0.2h0.2v-0.2
		c0-0.2,0-0.4-0.1-0.6c0.1-0.2,0.1-0.3,0.1-0.5c-0.2,0-0.6-1.9-1.2-5.5c0.1-0.1,0.4-0.2,0.8-0.2v-0.2c-0.7-0.1-1-0.2-1-0.5v-0.2
		c0.2,0,0.4,0.1,0.6,0.2c0.5-0.1,1-0.2,1.4-0.2l0.6,0.2v0.3H111v0.2c0.5,0,1.1,1.7,1.9,5l0.7,2.1c0.1,0.2,0.1,0.3,0.1,0.5h0.1
		c1.2-4.8,1.9-7.4,2.3-7.8h1.9v-0.2h-0.3V53.1z M112.3,54.5c0.2,0.5,0.3,0.9,0.3,1.2h-0.2c0-0.2-0.1-0.4-0.3-0.8v-0.2
		C112.1,54.6,112.1,54.5,112.3,54.5z M115.5,53.6h0.3v0.3h-0.3V53.6z"/>
	<path class="st0" d="M125.1,53c0.3,0,0.5,0,0.7,0.1c0.1,0,0.2,0,0.3,0l0.2,0v0.1c-0.3,0-0.6,0-0.7,0v0.1h0c0.1,0,0.2,0,0.4,0
		c0.1,0,0.2,0,0.4,0.1c0.2,0,0.3,0,0.4,0c0.1,0,0.3,0,0.5,0c0,0,0.1,0,0.1,0l0.5,0c0.1,0,0.3,0,0.4,0c0.3,0,0.5,0,0.6,0
		c0.2,0,0.8,0,1.9,0c0.1,0,0.2,0.1,0.2,0.2c0,0.5,0,0.9,0,1.3v0.1h0c0-0.1,0-0.2,0.1-0.2h0v0.8c0,0.1,0,0.1-0.1,0.1
		c0-0.1,0-0.1,0-0.1h0c0,0.1,0,0.2-0.1,0.2h-0.3c-0.4,0-0.9,0-1.3,0.1c-0.4-0.1-0.7-0.1-0.8-0.1c-0.1,0-0.1,0.1-0.1,0.1
		c-0.4,0-0.6-0.1-0.6-0.1l-0.2,0h-1.2c-0.1,0-0.3,0-0.5,0c-0.1,0-0.1,0-0.2,0v0.1l0.2,0.4c0,0.6-0.1,0.8-0.2,0.8c0,0.1,0,0.2,0,0.2
		l0,0.6v0.9c0,0.1,0,0.1,0,0.2c0,0.1,0,0.1,0,0.2v0.6c0.2,0,0.3,0,0.3,0c1.6,0,2.3,0.1,2.3,0.2c0,0,0,0,0,0c0.2,0,0.3,0,0.4,0
		c0.1,0,0.2,0,0.3,0.1c0-0.1,0.1-0.1,0.1-0.1c0.1,0,0.1,0,0.1,0.1v1.5l-0.1,0.1l0.1,0.2c-0.1,0-0.1,0-0.1,0.1v0.5
		c0,0.1-0.1,0.1-0.2,0.1v0.1l0.1,0.2c0,0.1,0,0.1-0.1,0.1c-0.2,0-0.3,0-0.4,0v-0.2l-0.6,0h-0.6l-0.3,0c0,0.1,0,0.1,0.1,0.1h1.2
		l0.2,0c0,0.1,0,0.1-0.1,0.1H128c-0.3,0-0.5,0-0.6,0c-0.2,0-0.4,0-0.7,0h-0.6l-0.1-0.1c-0.1,0-0.2,0-0.3,0V64l0.1-0.1h0v0.3
		c0,0.2,0,0.4-0.1,0.4v0.3c0.1,0,0.1,0,0.1,0.1v0.9c0,0.2,0,0.6,0,1.1l-0.2,0.3h0v0.3h0.2c0-0.1,0-0.2,0.1-0.2h0.5l0.3,0
		c0.1,0,0.1,0,0.2,0c0,0.1,0,0.1,0,0.2h0c0.3,0,0.6,0,0.8,0c0.6-0.1,1.3-0.1,2.2-0.1h0.3c0.7,0,1.1,0.1,1.1,0.2V68c0,0,0,0,0,0
		l0.1,0.3c0,0.3,0,0.6,0,0.8v0.1c0,0.1-0.1,0.1-0.2,0.1v0.2c0,0-0.1,0.1-0.2,0.2c-0.5,0-0.9,0-1.2,0h-2.7v0c0.2,0,0.3,0,0.3,0l0.1,0
		c0.3,0,0.5,0,0.5,0v0.1l-0.2,0.1h-1.4c0,0,0,0,0-0.1c-0.1,0-0.2,0.1-0.3,0.2l-0.1,0c-0.1,0-0.1,0-0.2,0c-0.1,0-0.1,0-0.1,0l-0.3,0
		h-0.6c-0.1,0-0.3,0-0.4,0c-0.1-0.1-0.8-0.1-1.8-0.1v-0.2h0c0.2,0,0.3,0,0.4,0l0.3,0c0.3,0,0.5,0,0.5,0c0.2,0,0.3,0,0.4,0v0
		c-1.2,0-1.8-0.1-1.8-0.2v-1.5c0-0.1,0-0.1-0.1-0.1c0.1-0.3,0.1-0.8,0.1-1.6V66c-0.1,0-0.1,0-0.1-0.1v-0.6c0-0.1,0-0.1,0.1-0.1
		l0.1,0v-0.2c0-0.9,0-1.6,0.1-2.2c0,0,0-0.1,0-0.1c0-0.2,0-0.3,0-0.4v0l0-0.3c0.1-0.2,0.1-0.4,0.1-0.7c0-0.1,0-0.4,0-0.6V60
		c-0.1,0-0.1-0.2-0.2-0.6c0.1-1,0.1-1.5,0.2-1.5l0-0.1v0c0-0.1,0-0.1,0.1-0.1c0,0,0,0,0,0v-0.1l-0.1,0c-0.1,0-0.1,0-0.1-0.1
		c0-0.3,0.1-0.4,0.2-0.4v-1.5c0-0.2,0-0.4,0-0.6c0-0.2,0-0.4,0-0.6v-0.9c-0.1,0-0.1-0.1-0.1-0.2c0-0.1,0-0.1,0-0.1h0c0,0,0,0,0,0
		c0.1,0,0.2-0.1,0.4-0.1c0.5,0.1,0.8,0.1,1,0.1l0-0.1h-0.4l-0.3,0v-0.1c0-0.1,0.1-0.1,0.1-0.1h0.8c0.1,0,0.3,0,0.4,0
		C124.6,53,124.8,53,125.1,53z M122.3,64.9L122.3,64.9l0,0.1c0,0.1,0,0.1-0.1,0.1l0-0.1L122.3,64.9C122.2,65,122.2,64.9,122.3,64.9z
		 M122.4,55l0,0.1v0.5c0,0.3,0,0.6,0,0.9c0,0,0,0.1,0,0.3l-0.2,0.1l0-0.1c0-0.1,0-0.1,0-0.2c0-0.1-0.1-0.2-0.1-0.2
		C122.3,55.5,122.3,55,122.4,55z M125.6,65.7v0.2h0L125.6,65.7L125.6,65.7z M125.9,57C125.9,57,125.9,57,125.9,57c0,0.5,0,0.8,0,1
		v0.5c0,0,0,0.1-0.1,0.1c0.1,0.1,0.1,0.4,0.1,0.8v0c0,0.1,0,0.1-0.1,0.1c-0.1-0.1-0.1-0.1-0.1-0.2l0-0.5c0-0.2,0-0.3,0-0.4l0-0.1
		c0-0.1-0.1-0.2-0.1-0.4c0.1-0.1,0.1-0.2,0.1-0.3v-0.2l0-0.3L125.9,57z M127.3,53L127.3,53c0.1,0,0.2,0,0.2,0.1c0,0-0.1,0-0.1,0
		c0.6,0,0.9,0.1,0.9,0.2l-0.1,0h-1.7c-0.1,0-0.1,0-0.1-0.1C127,53.1,127.3,53.1,127.3,53z M129.2,69.8l0.7,0.1c0,0-0.1,0.1-0.2,0.2
		h-0.1l-0.1-0.1h-1l-0.2-0.1c0,0,0,0.1,0,0.1l0-0.1l0.1,0h0.3C128.8,69.8,129,69.8,129.2,69.8z M129,60.4v1h0.1l-0.1-0.2L129,60.4
		L129,60.4z M129.4,53L129.4,53c0.1,0,0.1,0,0.1,0.1l-0.1,0.1h0V53z M131.1,54.9c0,0.1,0,0.1,0,0.2c0,0.1,0,0.1,0,0.1h0L131.1,54.9
		L131.1,54.9z"/>
	<path class="st0" d="M136.3,52.8h0.4l0.4,0.5l0.7-0.2c0.1,0.2,0.1,0.4,0.1,0.5h0.1c0-0.3,0.1-0.5,0.3-0.5l2.5,5.3
		c-0.2,0.1-0.3,0.2-0.4,0.2v0.2c0.9,1.8,1.8,3.7,2.5,5.8h0.4c0.3-4,0.4-6.6,0.4-7.7V55l-0.3-0.5v-0.5c0.2-0.6,0.4-1,0.6-1h0.4
		c0.3,0,0.7,0.1,1.3,0.2c0.1-0.1,0.4-0.2,0.8-0.2c0.3,0.4,0.4,0.7,0.4,1c-0.3,4.3-0.4,9.4-0.4,15.3c-0.7,0.6-1.7,1-3.1,1
		c-1.5-0.1-2.2-0.2-2.2-0.5c0.2-0.1,0.4-0.2,0.6-0.2v-0.3h-0.3l-0.4,0.3c-0.2,0-0.4-0.4-0.4-1.1l0.3-0.2c-0.7-2.2-1.5-4-2.4-5.3v0.2
		c-0.1,3.1-0.1,5.1-0.1,6c-0.2,0.1-0.4,0.2-0.7,0.2v0.2h0.4V70l-0.7-0.2h-1.4v-0.5h-0.7c0,0.3-0.1,0.5-0.3,0.5l-0.3-0.2
		c0,0.1,0,0.2-0.1,0.2l-0.1-0.3v-0.3c0.2-0.4,0.4-0.6,0.7-0.6l-0.3-0.5c0.2,0,0.3-0.1,0.3-0.3c-0.1,0-0.2-0.1-0.4-0.2
		c0.1-1.3,0.2-2.1,0.4-2.3c-0.2,0-0.3-0.1-0.3-0.3c0-0.8,0-1.2,0.1-1.3C135,63,135,62.4,135,62v-0.6c0-0.6,0.1-1,0.4-1.4v-0.2
		c-0.2-0.2-0.3-1-0.4-2.4l0.1-1.1c0-0.3-0.1-1.2-0.3-2.6c0.1-0.2,0.1-0.4,0.1-0.5l1,0.2C136,52.9,136.1,52.8,136.3,52.8z M142,59.9
		h0.3l0.1,0.6h-0.1c-0.2,0-0.3-0.1-0.3-0.3V59.9z M147.3,59.1l0.1,0.3v3.4h-0.1c-0.2,0-0.3-0.1-0.3-0.3v-3
		C147,59.2,147.1,59.1,147.3,59.1z M147.4,53.1l0.1,0.3c0,0.2-0.1,0.3-0.3,0.3l-0.1-0.3C147.2,53.2,147.2,53.1,147.4,53.1z"/>
	<path class="st0" d="M151.1,53.2h1.3c0.1,0,0.2,0.1,0.2,0.3c-0.1,0-0.2,0.1-0.2,0.3l0.5,0.1h0.1c0.2,0,0.3,0,0.4-0.1h0.3
		c0-0.2,0.1-0.3,0.2-0.3h0.9c0.8,0,1.3,0.1,1.5,0.4h3.4v-0.3h-1.4v-0.5h0.2c0.2,0,0.3,0.1,0.3,0.2l0.5-0.2h0.5
		c0.1,0,0.2,0.2,0.2,0.5l0.6-0.2h0.5c0.2,0,0.5,0.1,0.8,0.4l0.3-0.3l0.5,0.6c0.1-0.1,0.2-0.2,0.3-0.2l0.1,0.3
		c-0.1,0.3-0.1,0.5-0.2,0.5c-0.1-0.1-0.2-0.2-0.3-0.2v0.2l0.1,0.9c-0.1,0.3-0.2,0.5-0.2,0.6l0,0.3h-0.3c-0.9,0.1-1.4,0.1-1.5,0.1
		l-1-0.1c-0.3,0-0.5,0-0.7,0c-0.2,0-0.3,0-0.4,0l-0.1,2.2c0.1,0.9,0.1,1.6,0.1,2.1v0.5c0,0.1-0.1,0.3-0.4,0.6c0,0.5,0,1,0.1,1.4
		l-0.1,1.4v1.4h0.1v-1.8l0.2-0.2c0.1,0,0.2,0.1,0.2,0.3c0,0.7-0.1,1.3-0.2,1.7c0.1,0.2,0.1,0.4,0.1,0.6v0.2c0,0.2-0.1,0.3-0.4,0.3
		c0,0.6,0,1.3,0.1,2.1c-0.1,0.2-0.1,0.4-0.1,0.6c-0.1,0-0.2-0.1-0.3-0.2l-0.6,0.2h-0.1c-0.2-0.2-0.8-0.2-1.9,0v-0.2l-0.2,0.2
		c-0.2,0-0.3-0.7-0.3-2.2v-0.2c0-1.1,0.1-2.1,0.2-2.9l-0.2-0.2c0.1-0.8,0.1-1.3,0.2-1.5c-0.1-0.2-0.1-0.4-0.1-0.6v-0.6h0.2v-0.2
		c-0.2,0-0.3-0.1-0.3-0.3v-0.2c0-0.3,0-0.6,0.1-0.8l-0.1-0.9c0-0.6,0.2-1.6,0.5-2.9H155l-1.4,0.1H153c0,0-0.3,0-0.7-0.1h-0.4
		l-0.7-0.3l0.1-1V55h-0.1c0,0.7-0.1,1.1-0.2,1.1l-0.1-0.3v-1.2c0-0.2,0.1-0.3,0.2-0.3v0.3h0.1c0-0.4,0.1-0.6,0.3-0.6v-0.1
		c-0.3,0-0.4-0.1-0.4-0.3V53.2z"/>
	<path class="st0" d="M168,53.1c0.4,0.1,0.8,0.2,1.1,0.2c0.2-0.1,0.3-0.2,0.4-0.2c0,0.1,0.2,0.4,0.5,1v0.5l-0.1,0.8
		c0.2,0,0.4,0.1,0.4,0.3v1.8c0,0.1,0,0.2-0.1,0.2l0.1,0.3v0.2l-0.2,0.5v0.2l0.2,0.5c-0.2,0-0.2,0.1-0.2,0.3v0.2l0.2,0.5l-0.1,0.8
		l0.1,1l-0.2,0.2l-0.1-0.3v-1.8h-0.2c0,0.2,0,0.5,0.1,0.6c-0.1,0.9-0.1,1.7-0.1,2.3c0.3,1.5,0.7,2.3,1.3,2.3c0-0.2,0.1-0.3,0.2-0.3
		l0.1,0.3l-0.1,0.3l0.6,0.2h1l0.6-0.2l-0.1-0.3c0-0.2,0.1-0.3,0.2-0.3c0,0.2,0.1,0.3,0.2,0.3c0.8-0.6,1.2-1.4,1.2-2.3v-3.6
		c0-0.6-0.2-1.1-0.5-1.5c0.2-0.1,0.3-0.2,0.4-0.2v-0.6l-0.2,0.2c-0.2-0.4-0.2-0.7-0.2-1v-0.6c0-0.2,0.1-0.3,0.4-0.5
		c0.1,0.1,0.1,0.5,0.1,1.3h0.1v-2.9c0-0.2,0.5-0.4,1.5-0.5c0.4,0.1,0.8,0.2,1.1,0.2c0.2-0.1,0.3-0.2,0.4-0.2c0,0.1,0.2,0.4,0.5,1
		v0.5l-0.1,0.8c0.2,0,0.4,0.1,0.4,0.3v1.8c0,0.1,0,0.2-0.1,0.2l0.1,0.3v0.2l-0.2,0.5v0.2l0.2,0.5c-0.2,0-0.2,0.1-0.2,0.3v0.2
		l0.2,0.5l-0.1,0.8l0.1,1l-0.2,0.2c-0.1-0.2-0.1-0.4-0.1-0.5v-1.6H178c0,0.6,0,1.3-0.1,2.3c0.1,0.2,0.1,0.4,0.1,0.5
		c-0.2,0-0.5,1.1-1.1,3.2c-1,1.9-2.4,3.2-4.2,3.9h-0.6c-1.3,0-2.8-1.2-4.5-3.6c-0.7-2.4-1.1-3.6-1.2-3.6l0.1-0.6c0-0.2,0-1-0.1-2.6
		l0.1-0.7c0-0.2-0.2-0.5-0.5-1c0.2-0.1,0.3-0.2,0.4-0.2v-0.6l-0.2,0.2c-0.2-0.4-0.2-0.7-0.2-1v-0.6c0-0.2,0.1-0.3,0.4-0.5
		c0.1,0.1,0.1,0.5,0.1,1.3h0.1v-2.9C166.6,53.4,167,53.2,168,53.1z M166,53.3h0.4v1.6h-0.1c-0.2,0-0.2-0.1-0.2-0.3V53.3z
		 M166.7,66.2h0.2v0.5c-0.2,0-0.2-0.1-0.2-0.3V66.2z M167.3,66.4c0.6,0.4,1,0.9,1,1.6l-0.2,0.2c-0.6-1-0.8-1.6-0.8-1.6
		C167.2,66.5,167.3,66.5,167.3,66.4z M169.5,55.7v0.5h0.4v-0.5H169.5z M177.2,66.4l0.1,0.3c-0.5,1-0.9,1.5-1,1.5
		c-0.1-0.2-0.1-0.4-0.1-0.5C176.2,67.3,176.5,66.9,177.2,66.4z M177.6,66.2h0.2v0.2c0,0.2-0.1,0.3-0.2,0.3V66.2z M177.8,55.7v0.5
		h0.4v-0.5H177.8z"/>
	<path class="st0" d="M186.8,52.9c0,0.1,0.9,0.5,2.8,1.1c0,0.1,0.1,0.2,0.3,0.2l-0.1-0.3v-0.2c0.8,0.2,1.3,0.5,1.3,0.8l-0.3,0.2
		l-0.3-0.2h-0.1v0.2c1.4,1.2,2.1,2.3,2.1,3.4c-0.3,1.6-0.8,2.4-1.3,2.4l0.1,0.3v0.5c0,0.2-0.2,0.3-0.7,0.5l-0.3-0.2
		c-0.6,0.1-0.8,0.3-0.8,0.5c0.4,0.7,0.6,1.2,0.6,1.3h0.1c0-0.3,0.1-0.5,0.3-0.5l1,1.9l-0.1,1c1.3,2.2,2,3.5,2,3.8
		c-0.2,0.2-0.4,0.3-0.6,0.3c-0.1,0-0.5-0.1-1.1-0.2c0,0.2-0.1,0.3-0.3,0.3c-0.6,0-1-0.7-1.4-2.1l-2.4-3.8v0.2l0.3,0.5l-0.8,0.8
		c-0.2,0-0.3-0.1-0.3-0.3V65c0-0.2,0.2-0.3,0.6-0.3c0-0.2-0.1-0.3-0.3-0.3l-1.1,0.1l0.1,0.8c0.1,0.9,0.2,1.9,0.1,2.9l0.1,0.8
		c-0.1,0.4-0.2,0.7-0.3,0.9h-1.7c-1,0-1.5-0.4-1.5-1.3v-0.2c0-0.1,0-0.2,0.1-0.2l-0.3-0.8l0.1-0.8c0-0.2,0-0.8-0.1-1.9l0.3-2.1
		l-0.3-0.2v0.8h-0.3c0-0.3,0-0.7-0.1-1.1c0.1-0.6,0.1-1.1,0.1-1.4c0-0.1,0-0.3-0.1-0.5l0.1-1l-0.1-1.1c0.1-0.5,0.3-0.8,0.4-0.8
		c0,0.8,0.1,1.1,0.3,1.1v-2.6c0-0.2-0.1-0.7-0.3-1.6c0.1-0.2,0.1-0.4,0.1-0.6c-0.1,0-0.1-0.1-0.1-0.2l0.4-0.3h1.4
		C185.5,53.2,186.4,53.1,186.8,52.9z M182.6,69.8h0.1c0.2,0,0.3,0.1,0.3,0.3l-0.3,0.2h-0.1V69.8z M186.1,55.6v4
		c0.3,0,0.4,0.1,0.4,0.2l0.3-0.2c0.2,0,0.3,0.1,0.3,0.3c0.5-0.2,1-0.5,1.4-0.9l-0.1-0.3c0.1-0.2,0.3-0.6,0.4-1.3l-0.1-0.3
		c0-0.1,0-0.2,0.1-0.2c0-0.3-0.6-0.7-1.7-1.3H186.1z M191.7,60.1h0.4v0.3c0,0.2-0.1,0.3-0.4,0.5c0-0.1,0-0.2-0.1-0.2
		C191.7,60.5,191.7,60.3,191.7,60.1z M191.9,70h1.7v0.5l-0.7,0.2l-1-0.3V70z"/>
	<path class="st0" d="M199.4,53c0.3,0,0.5,0,0.7,0.1c0.1,0,0.2,0,0.3,0l0.2,0v0.1c-0.3,0-0.6,0-0.7,0v0.1h0c0.1,0,0.2,0,0.4,0
		c0.1,0,0.2,0,0.4,0.1c0.2,0,0.3,0,0.4,0c0.1,0,0.3,0,0.5,0c0,0,0.1,0,0.1,0l0.5,0c0.1,0,0.3,0,0.4,0c0.3,0,0.5,0,0.6,0
		c0.2,0,0.8,0,1.9,0c0.1,0,0.2,0.1,0.2,0.2c0,0.5,0,0.9,0,1.3v0.1h0c0-0.1,0-0.2,0.1-0.2h0v0.8c0,0.1,0,0.1-0.1,0.1
		c0-0.1,0-0.1,0-0.1h0c0,0.1,0,0.2-0.1,0.2h-0.3c-0.4,0-0.9,0-1.3,0.1c-0.4-0.1-0.7-0.1-0.8-0.1c-0.1,0-0.1,0.1-0.1,0.1
		c-0.4,0-0.6-0.1-0.6-0.1l-0.2,0h-1.2c-0.1,0-0.3,0-0.5,0c-0.1,0-0.1,0-0.2,0v0.1l0.2,0.4c0,0.6-0.1,0.8-0.2,0.8c0,0.1,0,0.2,0,0.2
		l0,0.6v0.9c0,0.1,0,0.1,0,0.2c0,0.1,0,0.1,0,0.2v0.6c0.2,0,0.3,0,0.3,0c1.6,0,2.3,0.1,2.3,0.2c0,0,0,0,0,0c0.2,0,0.3,0,0.4,0
		c0.1,0,0.2,0,0.3,0.1c0-0.1,0.1-0.1,0.1-0.1c0.1,0,0.1,0,0.1,0.1v1.5l-0.1,0.1l0.1,0.2c-0.1,0-0.1,0-0.1,0.1v0.5
		c0,0.1-0.1,0.1-0.2,0.1v0.1l0.1,0.2c0,0.1,0,0.1-0.1,0.1c-0.2,0-0.3,0-0.4,0v-0.2l-0.6,0h-0.6l-0.3,0c0,0.1,0,0.1,0.1,0.1h1.2
		l0.2,0c0,0.1,0,0.1-0.1,0.1h-0.4c-0.3,0-0.5,0-0.6,0c-0.2,0-0.4,0-0.7,0h-0.6l-0.1-0.1c-0.1,0-0.2,0-0.3,0V64l0.1-0.1h0v0.3
		c0,0.2,0,0.4-0.1,0.4v0.3c0.1,0,0.1,0,0.1,0.1v0.9c0,0.2,0,0.6,0,1.1l-0.2,0.3h0v0.3h0.2c0-0.1,0-0.2,0.1-0.2h0.5l0.3,0
		c0.1,0,0.1,0,0.2,0c0,0.1,0,0.1,0,0.2h0c0.3,0,0.6,0,0.8,0c0.6-0.1,1.3-0.1,2.2-0.1h0.3c0.7,0,1.1,0.1,1.1,0.2V68c0,0,0,0,0,0
		l0.1,0.3c0,0.3,0,0.6,0,0.8v0.1c0,0.1-0.1,0.1-0.2,0.1v0.2c0,0-0.1,0.1-0.2,0.2c-0.5,0-0.9,0-1.2,0h-2.7v0c0.2,0,0.3,0,0.3,0l0.1,0
		c0.3,0,0.5,0,0.5,0v0.1l-0.2,0.1h-1.4c0,0,0,0,0-0.1c-0.1,0-0.2,0.1-0.3,0.2l-0.1,0c-0.1,0-0.1,0-0.2,0c-0.1,0-0.1,0-0.1,0l-0.3,0
		H199c-0.1,0-0.3,0-0.4,0c-0.1-0.1-0.8-0.1-1.8-0.1v-0.2h0c0.2,0,0.3,0,0.4,0l0.3,0c0.3,0,0.5,0,0.5,0c0.2,0,0.3,0,0.4,0v0
		c-1.2,0-1.8-0.1-1.8-0.2v-1.5c0-0.1,0-0.1-0.1-0.1c0.1-0.3,0.1-0.8,0.1-1.6V66c-0.1,0-0.1,0-0.1-0.1v-0.6c0-0.1,0-0.1,0.1-0.1
		l0.1,0v-0.2c0-0.9,0-1.6,0.1-2.2c0,0,0-0.1,0-0.1c0-0.2,0-0.3,0-0.4v0l0-0.3c0.1-0.2,0.1-0.4,0.1-0.7c0-0.1,0-0.4,0-0.6V60
		c-0.1,0-0.1-0.2-0.2-0.6c0.1-1,0.1-1.5,0.2-1.5l0-0.1v0c0-0.1,0-0.1,0.1-0.1c0,0,0,0,0,0v-0.1l-0.1,0c-0.1,0-0.1,0-0.1-0.1
		c0-0.3,0.1-0.4,0.2-0.4v-1.5c0-0.2,0-0.4,0-0.6c0-0.2,0-0.4,0-0.6v-0.9c-0.1,0-0.1-0.1-0.1-0.2c0-0.1,0-0.1,0-0.1h0c0,0,0,0,0,0
		c0.1,0,0.2-0.1,0.4-0.1c0.5,0.1,0.8,0.1,1,0.1l0-0.1h-0.4l-0.3,0v-0.1c0-0.1,0.1-0.1,0.1-0.1h0.8c0.1,0,0.3,0,0.4,0
		C199,53,199.2,53,199.4,53z M196.6,64.9L196.6,64.9l0,0.1c0,0.1,0,0.1-0.1,0.1l0-0.1L196.6,64.9C196.5,65,196.5,64.9,196.6,64.9z
		 M196.7,55l0,0.1v0.5c0,0.3,0,0.6,0,0.9c0,0,0,0.1,0,0.3l-0.2,0.1l0-0.1c0-0.1,0-0.1,0-0.2c0-0.1-0.1-0.2-0.1-0.2
		C196.6,55.5,196.6,55,196.7,55z M199.9,65.7v0.2h0L199.9,65.7L199.9,65.7z M200.2,57C200.2,57,200.2,57,200.2,57c0,0.5,0,0.8,0,1
		v0.5c0,0,0,0.1-0.1,0.1c0.1,0.1,0.1,0.4,0.1,0.8v0c0,0.1,0,0.1-0.1,0.1c-0.1-0.1-0.1-0.1-0.1-0.2l0-0.5c0-0.2,0-0.3,0-0.4l0-0.1
		c0-0.1-0.1-0.2-0.1-0.4c0.1-0.1,0.1-0.2,0.1-0.3v-0.2l0-0.3L200.2,57z M201.6,53L201.6,53c0.1,0,0.2,0,0.2,0.1c0,0-0.1,0-0.1,0
		c0.6,0,0.9,0.1,0.9,0.2l-0.1,0h-1.7c-0.1,0-0.1,0-0.1-0.1C201.3,53.1,201.6,53.1,201.6,53z M203.5,69.8l0.7,0.1
		c0,0-0.1,0.1-0.2,0.2h-0.1l-0.1-0.1h-1l-0.2-0.1c0,0,0,0.1,0,0.1l0-0.1l0.1,0h0.3C203.1,69.8,203.3,69.8,203.5,69.8z M203.3,60.4v1
		h0.1l-0.1-0.2L203.3,60.4L203.3,60.4z M203.8,53L203.8,53c0.1,0,0.1,0,0.1,0.1l-0.1,0.1h0V53z M205.5,54.9c0,0.1,0,0.1,0,0.2
		c0,0.1,0,0.1,0,0.1h0L205.5,54.9L205.5,54.9z"/>
	<path class="st0" d="M213.4,53.1c2.1,0.4,3.5,0.8,4,1.2l0.1-0.3c0.4,0.2,0.6,0.4,0.6,0.6v0.1l-0.1,0.8c0.1,0,0.2,0.1,0.4,0.2v-0.3
		c-0.1-0.2-0.1-0.3-0.1-0.4h0.1c0.1,0,0.3,0.1,0.4,0.4v0.2c0,0.2-0.1,0.3-0.4,0.3c0.5,1,0.7,1.8,0.8,2.5l-0.3,0.1h-0.1
		c-0.5,0-1.1,0.1-1.6,0.2c-0.7,0-1.2-0.5-1.4-1.5c-0.3-0.6-0.8-0.9-1.2-0.9c0,0.2-0.1,0.3-0.2,0.3c-0.1,0-0.1,0-0.1-0.1l-0.2,0.1
		l-0.4-0.3h-0.4c-0.6,0.5-1,0.9-1,1.2l0.1,0.3c0,0.1,0,0.2-0.1,0.2c0,1.7,0.4,2.6,1.1,2.6c0-0.2,0.1-0.3,0.3-0.3h0.8
		c0.3,0.3,0.7,0.5,1.3,0.6c0.7,0.4,1.2,0.7,1.4,0.9h0.1v-0.1c-0.2,0-0.4-0.3-0.5-0.9l0.3-0.2l0.1,0.3c-0.1,0-0.1,0.1-0.1,0.2
		c0.6,0.4,1,0.7,1,0.9c-0.2,0.1-0.3,0.2-0.4,0.2c1,1.5,1.5,2.6,1.5,3.4c-0.1,0.9-0.3,1.7-0.6,2.2c0.2,0,0.4,0.1,0.4,0.3v0.1
		c0,0.1-0.1,0.3-0.4,0.5h-0.1l0.1-0.8c-0.2,0.1-0.3,0.2-0.4,0.2l0.1,0.7v0.2c0,0.2-0.2,0.4-0.6,0.6l-0.1-0.3c-0.6,0.4-1.7,0.7-3.3,1
		c-1.7-0.3-2.8-0.6-3.4-1l-0.1,0.3c-0.4-0.2-0.6-0.4-0.6-0.6v-0.2l0.1-0.7c-0.1,0-0.2-0.1-0.4-0.2v0.3c0.1,0.2,0.1,0.3,0.1,0.5h-0.1
		c-0.1,0-0.2-0.2-0.4-0.5v-0.1c0-0.2,0.1-0.3,0.4-0.3c-0.4-0.8-0.6-1.4-0.6-1.8c0-0.5,0.7-0.8,2-1c0-0.1,0-0.2,0.1-0.2h0.3
		c0.1,0,0.1,0.1,0.1,0.2l0.3-0.2h0.1l0.1,1v0.2l-0.1,0.3c0.2,0,0.6,0.2,1.2,0.5l0.5,0.2l1.2-0.1c0.7-0.1,1.1-0.7,1.1-1.9l-0.1-0.3
		c0.1-0.2,0.1-0.3,0.1-0.4c-0.9-0.7-1.3-1.1-1.4-1.1h-0.9c-1,0-2.1-0.3-3.2-0.9l-0.1,0.3c-0.4-0.2-0.6-0.4-0.6-0.6v-0.2l0.1-0.7
		c-0.1,0-0.2-0.1-0.4-0.2v0.3c0.1,0.2,0.1,0.3,0.1,0.5h-0.1c-0.1,0-0.3-0.2-0.4-0.5v-0.1c0-0.2,0.1-0.3,0.4-0.3
		c-0.4-0.8-0.6-1.6-0.6-2.4c0.1-0.8,0.6-1.9,1.5-3.3c-0.2,0-0.4-0.1-0.4-0.3c0.7-0.5,1-0.8,1-0.9c-0.1,0-0.1-0.1-0.1-0.2l0.2-0.1
		c0,0.1,0,0.1,0.1,0.1c-0.1,0.6-0.3,0.9-0.5,0.9v0.2h0.2c0-0.2,0.8-0.7,2.4-1.3V53.1z M209.4,64.1c0.1,0,0.2,0,0.4,0.1l0.8-0.1
		c0.2,0,0.3,0.1,0.3,0.3l-0.6,0.3l-0.1-0.3c-0.2,0-0.4,0.2-0.8,0.8l-0.1-0.3v-0.5C209.2,64.1,209.2,64.1,209.4,64.1z"/>
</g>
</svg>
