<?xml version="1.0" encoding="utf-8"?>
<!-- Generator: Adobe Illustrator 21.1.0, SVG Export Plug-In . SVG Version: 6.00 Build 0)  -->
<svg version="1.1" id="First_1_" xmlns="http://www.w3.org/2000/svg" xmlns:xlink="http://www.w3.org/1999/xlink" x="0px" y="0px"
	 viewBox="0 0 1920 1080" style="enable-background:new 0 0 1920 1080;" xml:space="preserve">
<style type="text/css">
	.st0{fill:#210002;}
</style>
<path class="st0" d="M7,1026h243.4c0.4,0,0.8,0,1.2-0.1l115.6-19.6c1.2-0.2,2.4-0.1,3.5,0.3l54.9,19.2c0.3,0.1,0.6,0.2,0.9,0.3
	l124.1,25.4c1.6,0.3,3.3,0.1,4.7-0.7l83.3-44.5c0.3-0.2,0.7-0.4,1-0.6l32.7-25.2c1.2-0.9,2.7-1.5,4.3-1.5h120c2.3,0,4.4,1.1,5.7,3
	l20.8,30c1.3,1.9,3.4,3,5.7,3h43.2c1.4,0,2.8,0.4,3.9,1.2l32.2,22.1c0.7,0.5,1.4,0.8,2.2,1l48.9,12.5c0.6,0.1,1.1,0.4,1.6,0.6
	l8.9,4.9c4.7,2.6,10.3-0.8,10.3-6.1V1040c0-3,1.9-5.6,4.7-6.6l32.6-11.4c1.8-0.6,3.2-1.9,4-3.6l18.1-38c0.4-0.9,1-1.7,1.8-2.3
	l22.9-19.4c1.3-1.1,2.9-1.7,4.5-1.7h85.6c1.9,0,3.6,0.7,4.9,2L1173,973c1.3,1.3,2,3.1,2,4.9v36.3c0,2.9-1.8,5.5-4.4,6.5l0,0
	c-5.5,2.1-6,9.6-1,12.5l48,27.7c2.1,1.2,4.8,1.3,6.9,0l57.3-32.4c0.8-0.4,1.6-0.7,2.5-0.8l27.3-3.5c1.5-0.2,3-0.9,4-2l27.8-27.8
	c1-1,2.3-1.7,3.7-1.9l20.7-3.8c2.5-0.5,4.6-2.3,5.4-4.8l15.9-50.9c1.4-4.5-2-9.1-6.7-9.1h-3.5c-3.9,0-7-3.1-7-7v-27.8
	c0-2,0.9-4,2.5-5.3l16-13.6c1-0.8,2.2-1.4,3.5-1.6l72.5-10.6c0.3,0,0.7-0.1,1-0.1h18.3c0.8,0,1.6-0.1,2.3-0.4l28.7-10.2
	c0.7-0.3,1.5-0.4,2.3-0.4h39c2.4,0,4.6-1.2,5.8-3.2L1577,824l21.5-32.7c1-1.5,2.5-2.5,4.2-2.9l29.5-7.2c0.5-0.1,1.1-0.2,1.6-0.2
	h42.2h70c0.7,0,1.3-0.1,2-0.3l18.8-5.5c2.6-0.8,5.3,0,7.1,2l13,14.4c1.3,1.5,3.2,2.3,5.2,2.3h8c1.9,0,3.6-0.7,4.9-2l22.8-22.8
	c0.8-0.8,1.7-1.4,2.8-1.7l24.2-7.8c1.4-0.5,2.6-1.3,3.5-2.5l6.3-8.6c1.9-2.6,1.8-6.3-0.4-8.8l-17.5-19.8c-1.1-1.3-1.8-2.9-1.8-4.6
	v-31c0-1.5,0.5-3,1.4-4.2l27.9-37.1c0.5-0.7,1.1-1.2,1.8-1.7l33.2-21.4c4.6-3,10.8,0.3,10.8,5.9V1073c0,3.9-3.1,7-7,7H7
	c-3.9,0-7-3.1-7-7v-40C0,1029.1,3.1,1026,7,1026z"/>
<path class="st0" d="M294.9,980.6c-9.4-4.4-18.1-9.5-25.8-15.3c3.7,1,7.4,1,10.8,0.3c-6.4,0-13.4-3.4-18.5-9.9
	c11.7,6.7,25.3,11.8,40.1,14.7c31.6,6.1,61.7,0.5,82.3-13.1c-24.2,9.3-57.2,7.5-88.9-7.1c-22-10.2-39.6-24.6-51.1-40.6
	c5.4,2.9,11.4,3.7,16.6,2.5c-6.5,0-13.5-3.5-18.7-10.1c-3.3-4.3-5.4-9.1-6.1-13.9c12,12,29.7,21.4,50.3,25.3
	c25.6,4.9,50,0.4,66.7-10.6c-19.6,7.5-46.3,6.1-72-5.8c-12.9-6-23.9-13.8-32.6-22.5c10.1,6.3,22.1,11,35.3,13.6
	c25.6,4.9,50,0.4,66.7-10.6c-19.6,7.5-46.3,6.1-72-5.8c-9.2-4.3-17.4-9.4-24.6-15.2c14,6,31.1,8.7,49.2,6.9
	c25.9-2.6,48-13.9,60.9-29.2c-16.6,12.8-42.7,19.1-70.6,15.1c-31.6-4.5-56.9-20.6-67.4-40.7l-0.1-4.1c6.2,8,14.8,15.2,25.2,20.6
	c17.5,9.2,36.2,11.2,50.6,6.9c-15.8,1.2-34.9-5.7-50.9-19.9c-4.6-4.1-8.6-8.4-12-12.9c8.7,6.8,19.9,11.9,32.6,14.4
	c19.4,3.7,37.9,0.3,50.5-8c-14.8,5.7-35.1,4.6-54.5-4.4c-8.4-3.9-15.8-8.8-21.8-14.3c6.6,3.4,14,6,22,7.6c19.4,3.7,37.9,0.3,50.5-8
	c-14.8,5.7-35.1,4.6-54.5-4.4c-7.9-3.7-14.9-8.3-20.8-13.4c11.2,5.8,25.7,8.6,41.2,7.1c19.6-2,36.4-10.6,46.1-22.1
	c-12.6,9.7-32.3,14.5-53.5,11.4c-22.6-3.2-41-14.3-49.6-28.3c-0.6-1.5-1.3-2.8-2.1-4.2c-0.1-0.5-0.2-1-0.3-1.5l-0.1-6
	c5.1,5.4,12.7,9.7,21.8,11.4c10.7,2.1,21,0.2,27.9-4.4c-8.2,3.2-19.4,2.6-30.2-2.4c-9.3-4.3-16.3-10.9-19.9-17.9l0-2.1
	c7.4,14.2,27.7,23.2,50.5,20.9c16.5-1.7,30.6-8.9,38.7-18.6c-10.6,8.2-27.1,12.2-44.9,9.6c-18.4-2.6-33.4-11.4-41-22.6
	c0.1-0.6,0.2-1.2,0.2-1.7c3.6,3.1,7.8,5.9,12.3,8.4c14.6,7.8,30.3,9.6,42.5,6.1c-11.1,0.8-24-3.2-35.8-11.5
	c13.1,5.7,26.7,6.8,37.5,3.7c-13.3,0.9-29.3-5-42.7-17c-5.8-5.2-10.5-11.1-14-17.1c0.2-0.6,0.5-1.1,0.7-1.7c4.8,3.8,11,6.6,18.1,8
	c10.7,2.1,21,0.2,27.9-4.4c-8.2,3.2-19.4,2.6-30.2-2.4c-5.4-2.5-10-5.7-13.6-9.4c0.1-0.6,0.2-1.2,0.2-1.7c4.4,2.9,9.7,5.1,15.6,6.2
	c10.7,2.1,21,0.2,27.9-4.4c-5.9,2.3-13.3,2.6-21,0.8c8.8,0.7,16.9-1.3,22.8-5.1c-8.2,3.2-19.4,2.6-30.2-2.4
	c-12.4-5.7-20.7-15.5-22.3-25c1.8,1.8,3.8,3.5,6.1,5c6.9,4.4,14.5,6,20.7,4.7c-6.6-0.1-14.2-3.6-20.3-10.1c-3.7-4-6.4-8.4-7.8-12.8
	l-0.1-4.3c3.8,4.5,9.8,8,17.1,9.4c8,1.5,15.7,0.1,20.9-3.3c-6.1,2.4-14.5,1.9-22.6-1.8c-7.1-3.3-12.4-8.3-15-13.7
	c0.1-1,0-2.1-0.2-3.1c-0.1-0.6-0.3-1.1-0.5-1.6l0-1.3c2.4,2.9,6.3,5.2,11,6.1c5.1,1,10,0.1,13.3-2.1c-3.9,1.5-9.2,1.2-14.3-1.1
	c-4.3-2-7.5-5-9.3-8.2c0.2-1.7,0.1-3.3-0.3-4.7c2.4,2.7,6.1,4.8,10.6,5.7c5.1,1,10,0.1,13.3-2.1c-3.9,1.5-9.2,1.2-14.3-1.1
	c-3.2-1.5-5.8-3.5-7.6-5.8c2.8,2,6.7,3.2,11,3.2c5.2,0,9.8-1.8,12.6-4.6c-3.5,2.2-8.8,2.9-14.3,1.6c-2.8-0.7-5.3-1.9-7.4-3.3
	c0,0,0.1,0,0.1,0c2.1,0,3.9-1.6,5.1-4.1c-1.4,2-3.5,2.6-5.7,1.4c-1.8-1-3.2-2.9-4.2-5.3l-0.1-2.9c2.6,3.5,7.8,5.9,13.8,5.9
	c5.2,0,9.8-1.8,12.6-4.6c-3.5,2.2-8.8,2.9-14.3,1.6c-5.9-1.5-10.4-4.9-12.3-8.8c-0.1-1-0.3-1.8-0.7-2.8c0,0.1,0,0.2,0,0.3l-0.1-0.3
	l0,0c0,0,0,0,0,0c-0.4,0.9-0.7,1.8-0.8,2.7l0,0l0,0c0,0.2,0,0.4,0,0.6c-1.7,3.7-5.5,6.8-10.3,8.2c-4.7,1.4-9.2,0.6-12.3-1.6
	c2.4,2.8,6.4,4.6,10.9,4.6c5.1,0,9.5-2.3,11.8-5.7l0,5c0,0.1,0,0.2,0,0.2c-1.9,3.9-6.4,7.4-12.3,8.8c-5.5,1.4-10.8,0.6-14.3-1.6
	c2.8,2.8,7.4,4.6,12.6,4.6c4.3,0,8.1-1.2,11-3.2c-1.9,2.3-4.5,4.3-7.6,5.8c-5.1,2.4-10.4,2.6-14.3,1.1c3.3,2.2,8.2,3.1,13.3,2.1
	c4.7-0.9,8.5-3.2,10.9-6c0.6,3.4,0.1,7.5-1.6,11.5c-2.3,5.2-6,8.9-10,10.4c3.8-0.6,7.9-3,11-6.8c0,0.4,0,0.8,0,1.2
	c-0.8,1.7-1.9,3.3-3.2,4.9c-0.2-0.1-0.5-0.1-0.7-0.2c0.2,0.2,0.3,0.3,0.4,0.5c-2.9,3.3-6.8,6.3-11.5,8.5c-8.1,3.7-16.5,4.2-22.6,1.8
	c5.2,3.4,12.9,4.9,20.9,3.3c6-1.2,11.2-3.8,14.9-7.1c0,1.5,0.3,3,0.7,4.5c-0.3,2-0.8,4-1.7,6c-2.3,5.2-6,8.9-10,10.4
	c3.9-0.6,8.2-3.1,11.3-7.2c0.2-0.2,0.3-0.4,0.4-0.6c-3.3,7.6-10.6,14.8-20.6,19.4c-10.8,5-22,5.6-30.2,2.4c7,4.6,17.2,6.5,27.9,4.4
	c8.3-1.6,15.5-5.3,20.5-10.1c-0.2,0.3-0.3,0.5-0.5,0.8c-0.1,0.2-0.2,0.4-0.3,0.7c-3.9,5.5-10,10.5-17.5,14c-10.8,5-22,5.6-30.2,2.4
	c7,4.6,17.2,6.5,27.9,4.4c6-1.1,11.3-3.4,15.7-6.3c-0.2,1.2-0.4,2.4-0.4,3.6c-3.3,2.9-7.3,5.6-11.8,7.6c-10.8,5-22,5.6-30.2,2.4
	c7,4.6,17.2,6.5,27.9,4.4c5.5-1.1,10.5-3,14.7-5.7c0.3,1.4,0.7,2.9,1.2,4.3c-2.6,3.9-5.6,7.6-9.2,11.2
	c-12.7,12.8-28.3,19.6-41.7,19.4c12.4,2.8,27.9,0.1,42.1-8.5c5.4-3.3,10.2-7.2,14.2-11.4c0,0.1,0.1,0.1,0.1,0.2
	c-0.3,3.7-1.6,7.6-4,11.1c-3.6,5.2-8.6,8.2-13.4,8.6c4.6,0.6,9.9-1,14.3-4.6c0.7-0.6,1.3-1.1,1.9-1.7c-0.4,1.3-0.9,2.7-1.5,4
	c-8.2,9.3-21.7,16.3-37.9,18.6c-17.8,2.6-34.4-1.4-44.9-9.6c8.2,9.7,22.2,16.9,38.7,18.6c9.1,0.9,17.9,0,25.6-2.3
	c-12,10.7-26.1,16.3-38.2,16.1c12.4,2.8,27.9,0.1,42.1-8.5c4.2-2.6,8.1-5.5,11.5-8.7c-6.5,9.8-17,18.5-30.2,24.1
	c-17.4,7.4-35.4,7.5-48.3,1.6c10.9,8.3,27.1,12.3,44.3,9.7c4.8-0.7,9.4-1.9,13.7-3.5c-6.6,2.8-13.9,4.8-21.7,6
	c-21.2,3-40.9-1.7-53.5-11.4c9.7,11.6,26.4,20.1,46.1,22.1c15.5,1.6,30-1.2,41.2-7.1c-5.9,5.2-12.9,9.7-20.8,13.4
	c-19.4,9-39.7,10.1-54.5,4.4c12.6,8.3,31.1,11.7,50.5,8c12.5-2.4,23.6-7.4,32.2-14c-7,8.2-16.6,15.5-28.1,20.8
	c-19.4,9-39.7,10.1-54.5,4.4c12.6,8.3,31.1,11.7,50.5,8c15.1-2.9,28.2-9.7,37.2-18.4c-2.6,7.2-7.6,15-14.6,22.3
	c-10.5,10.9-23.2,17.9-33.7,19.6c9.7,0.4,22.1-3.7,33.7-11.8c0.5-0.4,1.1-0.8,1.6-1.1c-11.4,11.1-27.3,20.1-46.1,25.1
	c-27.3,7.3-53.9,4.2-71.9-6.5c14.6,13.6,37.9,22.2,63.9,21.7c21.3-0.4,40.5-6.8,54.5-16.9c-8.9,9.4-20.5,17.9-34.2,24.2
	c-25.7,11.9-52.4,13.3-72,5.8c16.7,11,41.1,15.5,66.7,10.6c16.5-3.2,31.1-9.8,42.5-18.5c-9.2,10.8-21.9,20.4-37.2,27.5
	c-25.7,11.9-52.4,13.3-72,5.8c16.7,11,41.1,15.5,66.7,10.6c23.3-4.5,42.8-15.8,54.7-30.2c-0.7,2.4-1.8,4.7-3.3,7
	c-3.6,5.2-8.6,8.2-13.4,8.6c3.9,0.5,8.4-0.6,12.4-3.2c-10.3,21.3-31.3,41.4-59.5,54.4c-31.7,14.6-64.7,16.4-88.9,7.1
	c20.6,13.5,50.7,19.1,82.3,13.1c19.5-3.7,36.8-11.4,50.5-21.4c-11.2,12.4-26.1,23.5-43.9,31.7c-31.7,14.6-64.7,16.4-88.9,7.1
	c20.6,13.5,50.7,19.1,82.3,13.1c32.8-6.3,59.5-23.7,73.2-44.9l0,3.2c-0.4,3.5-1.7,7.1-4,10.4c-3.6,5.2-8.6,8.2-13.4,8.6
	c4.6,0.6,9.9-1,14.3-4.6c1.1-1,2.2-2,3-3.1l0.2,58.7h10l-1.5-73.1c13.7,21.2,40.4,38.6,73.2,44.9c31.6,6.1,61.7,0.5,82.3-13.1
	C359.6,997,326.6,995.3,294.9,980.6z M230.5,882.5c0.1,0.2,0.3,0.3,0.4,0.5c0,0.1-0.1,0.3-0.1,0.4
	C230.7,883.1,230.6,882.8,230.5,882.5z"/>
</svg>
