<?xml version="1.0" encoding="utf-8"?>
<!-- Generator: Adobe Illustrator 21.1.0, SVG Export Plug-In . SVG Version: 6.00 Build 0)  -->
<svg version="1.1" id="Second" xmlns="http://www.w3.org/2000/svg" xmlns:xlink="http://www.w3.org/1999/xlink" x="0px" y="0px"
	 viewBox="0 0 1920 1080" style="enable-background:new 0 0 1920 1080;" xml:space="preserve">
<style type="text/css">
	.st0{fill:#290104;}
	.st1{clip-path:url(#XMLID_4_);}
	.st2{fill:#752813;}
	.st3{fill:#FFCA1B;}
	.st4{clip-path:url(#XMLID_5_);}
</style>
<path class="st0" d="M3.5,445.6l25.9-17.8c1.6-1.1,2.8-2.8,3.3-4.8l4.3-17.3c0.6-2.3,2.1-4.3,4.3-5.3l21.5-10.7
	c0.8-0.4,1.6-0.6,2.4-0.8l71.1-10.7c0.4-0.1,0.8-0.1,1.2-0.1H150h19h23c1.3,0,2.6-0.3,3.8-1l31.4-16.6c0.5-0.3,1-0.5,1.6-0.6
	l265.3-75.2c1.3-0.4,2.5-0.6,3.9-0.6c7.2-0.2,31.9-0.8,37,0.1c6,1,22,32,21,41c-0.7,6.6-11.1,18.5-16.6,24.5
	c-2.1,2.2-2.7,5.4-1.7,8.3l3,8.5c1.5,4.2,0.8,8.9-1.7,12.6l0,0c-1.8,2.5-2,5.9-0.5,8.6l14.3,26.3c1.5,2.7,2,5.9,1.4,8.9l-5.5,28.1
	c-0.4,2-1.5,3.8-3.2,5l-11.9,8.7c-0.3,0.2-0.7,0.5-0.9,0.8l-29,29c-1,1-1.8,2.3-2.1,3.7l-17.6,67.8c-0.5,2-1.8,3.7-3.5,4.8L438,598
	c-1.9,1.2-3.3,3.3-3.6,5.5l-1.8,10.9c-0.8,5,3,9.5,8.1,9.5h6.1c2.1,0,4.1,0.8,5.6,2.2l10.3,9.7c1.5,1.4,2.4,3.3,2.6,5.3l2.5,29.1
	c0.2,1.8-0.3,3.6-1.2,5.1l-2.6,4.1c-3.4,5.4,0.5,12.6,6.9,12.6h8.6c2.8,0,5.4,1.5,6.9,3.8l7.5,11.9c0.1,0.2,0.2,0.3,0.3,0.4
	l15.4,21.4c1.5,2.1,4,3.4,6.6,3.4h22c3,0,5.7,1.6,7.1,4.2l14.3,25.6c1.4,2.6,4.2,4.2,7.1,4.2h66.5c2.4,0,4.6,1,6.2,2.8l16.5,18.9
	c1.3,1.5,2,3.4,2,5.4v18.8c0,2.6,1.2,5,3.3,6.5l15.2,11.4c1,0.7,2.1,1.2,3.3,1.5l16.6,3.3c3.8,0.8,6.6,4.1,6.6,8v11.7
	c0,1.7,0.5,3.3,1.4,4.6l17.1,24.8c0.9,1.4,1.4,3,1.4,4.6v29.8c0,1.1,0.2,2.2,0.7,3.2l34.9,82.1c0.9,2.1,2.7,3.8,4.9,4.5l43.2,14.7
	c0.3,0.1,0.5,0.2,0.7,0.3l51.9,23.5c0.5,0.2,1,0.4,1.5,0.5l66.9,15.5c0.9,0.2,1.8,0.3,2.7,0.2l117.2-12.3c3.3-0.3,6.1-2.7,7-5.9
	l25.2-86.9c0.2-0.5,0.4-1.1,0.6-1.5l7-13.1c1.1-2,2.9-3.5,5.1-4.1l24.2-6.7c0.9-0.3,1.8-0.7,2.6-1.3l48.2-35c1-0.8,2.2-1.3,3.5-1.5
	l59.4-9.6c0.4-0.1,0.9-0.1,1.3-0.1h65.1c0.8,0,1.6-0.1,2.4-0.4l40.5-12.5c0.2-0.1,0.5-0.2,0.7-0.2l53.6-22c1.3-0.6,2.5-1.4,3.4-2.6
	l24.4-31.9c0.2-0.2,0.3-0.4,0.4-0.6l8.3-13.4c0.9-1.5,1.4-3.3,1.2-5l-1.5-17.4c-0.2-1.9,0.3-3.7,1.3-5.2l6.9-10.3
	c1-1.5,2.5-2.6,4.2-3.2l27-9c2.1-0.7,4.4-0.5,6.4,0.5l12.2,6.5c1.1,0.6,2.1,1.4,2.8,2.4l5.9,8.2c3.1,4.2,9.3,4.6,12.7,0.6l7.3-8.2
	c1.3-1.4,2-3.2,2.1-5.1l0.8-21.3c0.1-2.4,1.2-4.6,3.1-6.1l38.3-30.3c1.1-0.9,2-2.1,2.5-3.4l6.5-16.2c0.5-1.2,0.7-2.4,0.6-3.7
	l-1.8-22.9c-0.1-0.8-0.3-1.6-0.6-2.4l-4.7-11.7c-0.6-1.4-0.7-3-0.5-4.5l5-28.5c0.4-2-0.1-4.1-1.2-5.9l-27.2-42.1
	c-1.3-2-1.7-4.5-0.9-6.8l9-29.2c1.1-3.6,4.6-6,8.4-5.8l141.5,9.4c1.4,0.1,2.7-0.2,4-0.7l34.8-16.1c1.5-0.7,3.2-0.9,4.8-0.6
	l102.8,17.1c1.7,0.3,3.5,0,5.1-0.8l37.1-19c1-0.5,2.1-0.8,3.2-0.9l21.6-1.4c4.7-0.3,8.7,3.4,8.7,8.2v560.1c0,4.5-3.7,8.2-8.2,8.2
	H8.2c-4.5,0-8.2-3.7-8.2-8.2l0-619.5C0,449.6,1.3,447.1,3.5,445.6z"/>
<g>
	<defs>
		<polygon id="XMLID_2_" points="516.3,201.8 516.3,223.1 510.5,224.8 510,225 481.8,225 481.2,218 476.2,217.6 473.7,213.3 
			473.7,200.9 480.3,198.8 481.2,178.7 485.8,178.7 488.6,170.4 504.8,170.4 509.1,178.8 512.5,178.8 512.5,200.1 		"/>
	</defs>
	<use xlink:href="#XMLID_2_"  style="overflow:visible;fill:#290104;"/>
	<clipPath id="XMLID_4_">
		<use xlink:href="#XMLID_2_"  style="overflow:visible;"/>
	</clipPath>
	<g class="st1">
		<g>
			<path class="st0" d="M491.6,182.8c1.9,0,1.9-3,0-3C489.7,179.8,489.7,182.8,491.6,182.8L491.6,182.8z"/>
		</g>
	</g>
	<g class="st1">
		<g>
			<path class="st2" d="M491.8,171.8c-1.1-0.1-1.8,0.8-1.9,1.8c-0.1,0.8,0.8,1.5,1.5,1.5c0.9,0,1.4-0.7,1.5-1.5c0,0,0-0.1,0-0.1
				c-0.1,0.3-0.1,0.5-0.2,0.8c0,0-0.1,0.1-0.1,0.1c-0.2,0.1-0.4,0.3-0.7,0.4c-0.1,0-0.1,0-0.2,0c0.8,0.1,1.5-0.7,1.5-1.5
				C493.3,172.4,492.7,171.9,491.8,171.8L491.8,171.8z"/>
		</g>
	</g>
</g>
<polygon class="st3" points="490.7,174.9 491.6,171.9 501.6,171.9 502.7,174.9 "/>
<g>
	<defs>
		<path id="XMLID_1_" d="M504.8,170.4c0,0-2.6-6.4-1.5-9.3s1.6-6,7.6-6c6,0,6.6,2.8,7.5,5.9c0.8,2.7-2.5,9.4-2.5,9.4l1.1,4.5
			l7.1,1.9l9.8-6.4l-4.5-6.8c0,0-4.1,0.3-5.5-0.9c-1.4-1.2-3-3.9-1-5.5s7.3-1.1,9.2,0.3c1.8,1.4,1.4,4.4,1.4,4.4l8.6,11
			c1,1.1,1,2.8,0,3.9L526.2,191l0.4,27.8l2.1,40.7H523l-1.1,22v3l6,1.9l-0.4,3.6l-14.1,2.1l-0.8-8.1l0.9-25.2l-3.4-0.4l-0.2-7.5
			l-1.7,7.2l-2.3,0.2l-6,26.5l7.7,1.7v3.2l-10.2,4.9l-7.3-1.1v-10.5l1.7-2.1l4.3-25l-4-0.8l1.8-29.2L504.8,170.4z"/>
	</defs>
	<use xlink:href="#XMLID_1_"  style="overflow:visible;fill:#290104;"/>
	<clipPath id="XMLID_5_">
		<use xlink:href="#XMLID_1_"  style="overflow:visible;"/>
	</clipPath>
	<g class="st4">
		<g>
			<path class="st0" d="M512.2,164.4c6.4,0,6.4-10,0-10C505.8,154.4,505.8,164.4,512.2,164.4L512.2,164.4z"/>
		</g>
	</g>
	<g class="st4">
		<g>
			<path class="st2" d="M520.9,164.9c0.3-3.8-0.2-7-3.2-9.6c-3.1-2.7-6.9-3.2-10.9-3.4c-1.9-0.1-1.9,2.9,0,3
				c3.2,0.1,6.2,0.4,8.8,2.5c2.4,2,2.5,4.6,2.3,7.5C517.8,166.9,520.8,166.8,520.9,164.9L520.9,164.9z"/>
		</g>
	</g>
	<g class="st4">
		<g>
			<path class="st2" d="M537.4,162.4c-1.3-4.2-3.1-6.1-7.2-7.8c-4.8-1.9-9.9-2-14.9-1.6c-1.9,0.2-1.9,3.2,0,3
				c6.9-0.6,16.7-0.6,19.3,7.2C535.1,165,538,164.2,537.4,162.4L537.4,162.4z"/>
		</g>
	</g>
	<g class="st4">
		<g>
			<path class="st2" d="M540.1,170.2c1.9,0,1.9-3,0-3C538.2,167.2,538.2,170.2,540.1,170.2L540.1,170.2z"/>
		</g>
	</g>
	<g class="st4">
		<g>
			<path class="st2" d="M541.6,168c-1.2-1.1-2.3-2.8-3.3-4.2c-1-1.3-1.2-2.4-2.8-3c0.3,0.2,0.6,0.5,0.9,0.7
				c-0.6-0.8-0.6-1.9-0.5-2.8c0.2-1.9-2.8-1.9-3,0c-0.1,1.3,0,2.6,0.6,3.8c0.4,0.8,1.1,1.1,1.6,1.8c1.4,1.9,2.7,4.3,4.4,5.9
				C541,171.4,543.1,169.2,541.6,168L541.6,168z"/>
		</g>
	</g>
	<g class="st4">
		<g>
			<path class="st2" d="M519.4,172.9c-0.1,0-0.2,0-0.3,0c0.1,0,0.1,0,0,0c0.1,0.1,0.1,0,0,0c0.1,0.1,0.1,0.1,0-0.1
				c0.4,0.5,0.1,0.1,0.1-0.1c0-0.3,0-0.5,0-0.8c0-0.8-0.7-1.5-1.5-1.5c-0.8,0-1.5,0.7-1.5,1.5c0,1,0.1,2.2,0.8,2.9
				c0.6,0.7,1.6,1.1,2.5,1c0.8-0.1,1.5-0.6,1.5-1.5C520.8,173.7,520.2,172.8,519.4,172.9L519.4,172.9z"/>
		</g>
	</g>
	<g class="st4">
		<g>
			<path class="st2" d="M502.5,283.2c-0.2,0,4.9-19.7,5.6-21.5c0.6-1.8-2.3-2.6-2.9-0.8c-2.2,6.5-4.2,13.2-5.5,20
				c-0.5,2.7-0.7,5.5,2.8,5.3C504.4,286.1,504.4,283.1,502.5,283.2L502.5,283.2z"/>
		</g>
	</g>
	<g class="st4">
		<g>
			<path class="st2" d="M525.8,282.9c-2.2-0.4-2.4,0.4-2-2c0.3-2.1,0.4-4.2,0.7-6.3c0.6-3.9,1.6-7.8,2.6-11.6
				c0.5-1.9-2.4-2.7-2.9-0.8c-1.5,5.9-2.7,11.8-3.3,17.9c-0.4,4.2-0.1,5,4.2,5.7C526.9,286.1,527.7,283.2,525.8,282.9L525.8,282.9z"
				/>
		</g>
	</g>
	<g class="st4">
		<g>
			<path class="st2" d="M524.5,273.7c0.1-3.9,0.5-7.7,1.4-11.5c0.4-1.9-2.5-2.7-2.9-0.8c-0.9,4-1.4,8.1-1.5,12.3
				C521.5,275.6,524.5,275.6,524.5,273.7L524.5,273.7z"/>
		</g>
	</g>
	<g class="st4">
		<g>
			<path class="st2" d="M531.6,230.9c0.1-6.8-0.3-13.5-1.1-20.3c-0.2-1.9-3.2-1.9-3,0c0.8,6.7,1.2,13.5,1.1,20.3
				C528.5,232.8,531.5,232.8,531.6,230.9L531.6,230.9z"/>
		</g>
	</g>
	<g class="st4">
		<g>
			<path class="st2" d="M528.8,222.2c-0.3-5.9-0.5-11.7-0.6-17.6c-0.1-2.6-0.2-5.2-0.1-7.8c0.1-2-0.2-3.8,1.2-5.2
				c0.8-0.8,2.5-1.5,3.4-2.1c1.6-1,0.1-3.6-1.5-2.6c-1.6,1-4.5,2.1-5.6,3.9c-1.2,1.9-0.6,4.9-0.6,7.1c0.1,8.1,0.3,16.3,0.7,24.4
				C525.9,224.1,528.9,224.1,528.8,222.2L528.8,222.2z"/>
		</g>
	</g>
</g>
<path class="st2" d="M516.3,203.1v20l-5.8,1.7v-24.1h-3.1c-0.6,0-1.2-0.5-1.2-1.2v-17.6c0-1.6,1.2-2.9,2.8-2.9l3.4-0.1v21.3l2.6,1.2
	C515.8,201.6,516.3,202.3,516.3,203.1z"/>
<polygon class="st2" points="517,174.9 506.3,184.6 512.5,182.1 519.5,175.6 "/>
<path class="st2" d="M517.9,160.4l0.1,1.1c0,0,3.2,0,3-0.7c-0.2-0.8-3.7-1.3-3.7-1.3L517.9,160.4z"/>
</svg>
