<?xml version="1.0" encoding="utf-8"?>
<!-- Generator: Adobe Illustrator 21.1.0, SVG Export Plug-In . SVG Version: 6.00 Build 0)  -->
<svg version="1.1" id="Third" xmlns="http://www.w3.org/2000/svg" xmlns:xlink="http://www.w3.org/1999/xlink" x="0px" y="0px"
	 viewBox="0 0 1920 1080" style="enable-background:new 0 0 1920 1080;" xml:space="preserve">
<style type="text/css">
	.st0{fill:#410F12;}
</style>
<polygon class="st0" points="594,924 685,961 719,961 736.5,952.8 767,943 770,929 764,924 765,906 778,897 800,900 830,885 
	861,889 875,903 893,909 913,929 916,965 909,981 929,1003 964,1008 964,1019 980,1045 1156,1044 1157.5,1079.5 590.7,1079.5 "/>
<path class="st0" d="M738.5,950.6c-6.3-2.9-12.1-6.4-17.3-10.2c2.5,0.6,5,0.7,7.2,0.2c-4.3,0-8.9-2.3-12.4-6.6
	c7.8,4.5,16.9,7.9,26.8,9.8c21.2,4.1,41.3,0.3,55.1-8.7c-16.2,6.2-38.3,5-59.5-4.8c-14.7-6.8-26.5-16.5-34.2-27.2
	c3.6,1.9,7.6,2.5,11.1,1.7c-4.3,0-9-2.3-12.5-6.8c-2.2-2.9-3.6-6.1-4.1-9.3c8.1,8,19.8,14.3,33.6,16.9c17.1,3.3,33.5,0.3,44.6-7.1
	c-13.1,5-31,4.1-48.2-3.9c-8.6-4-16-9.2-21.8-15.1c6.7,4.2,14.8,7.4,23.6,9.1c17.1,3.3,33.5,0.3,44.6-7.1c-13.1,5-31,4.1-48.2-3.9
	c-6.2-2.8-11.7-6.3-16.4-10.2c9.4,4,20.8,5.8,32.9,4.6c17.4-1.8,32.1-9.3,40.7-19.6c-11.1,8.6-28.5,12.8-47.3,10.1
	c-21.2-3-38.1-13.8-45.1-27.2l-0.1-2.8c4.2,5.3,9.9,10.2,16.8,13.8c11.7,6.1,24.2,7.5,33.9,4.6c-10.6,0.8-23.4-3.8-34.1-13.3
	c-3.1-2.7-5.7-5.6-8-8.6c5.8,4.5,13.3,8,21.8,9.6c13,2.5,25.3,0.2,33.8-5.4c-9.9,3.8-23.5,3.1-36.5-2.9c-5.6-2.6-10.6-5.9-14.6-9.6
	c4.4,2.3,9.3,4,14.7,5.1c13,2.5,25.3,0.2,33.8-5.4c-9.9,3.8-23.5,3.1-36.5-2.9c-5.3-2.5-10-5.5-13.9-9c7.5,3.9,17.2,5.8,27.6,4.7
	c13.1-1.3,24.3-7.1,30.8-14.8c-8.4,6.5-21.6,9.7-35.8,7.6c-15.1-2.2-27.4-9.6-33.2-18.9c-0.4-1-0.9-1.9-1.4-2.8
	c-0.1-0.3-0.1-0.7-0.2-1l-0.1-4c3.4,3.6,8.5,6.5,14.6,7.6c7.2,1.4,14,0.1,18.7-3c-5.5,2.1-13,1.7-20.2-1.6
	c-6.2-2.9-10.9-7.3-13.3-12l0-1.4c5,9.5,18.5,15.5,33.8,14c11-1.1,20.4-5.9,25.9-12.4c-7.1,5.5-18.2,8.1-30.1,6.4
	c-12.3-1.8-22.3-7.6-27.4-15.1c0.1-0.4,0.1-0.8,0.2-1.2c2.4,2.1,5.2,4,8.2,5.6c9.8,5.2,20.3,6.4,28.4,4.1
	c-7.4,0.5-16.1-2.2-23.9-7.7c8.8,3.8,17.9,4.6,25.1,2.5c-8.9,0.6-19.6-3.4-28.6-11.4c-3.9-3.5-7-7.4-9.4-11.4
	c0.2-0.4,0.3-0.8,0.5-1.1c3.2,2.5,7.4,4.4,12.1,5.3c7.2,1.4,14,0.1,18.7-3c-5.5,2.1-13,1.7-20.2-1.6c-3.6-1.7-6.7-3.8-9.1-6.3
	c0.1-0.4,0.1-0.8,0.2-1.2c2.9,1.9,6.5,3.4,10.4,4.1c7.2,1.4,14,0.1,18.7-3c-3.9,1.5-8.9,1.7-14.1,0.5c5.9,0.5,11.3-0.8,15.2-3.4
	c-5.5,2.1-13,1.7-20.2-1.6c-8.3-3.8-13.9-10.4-14.9-16.7c1.2,1.2,2.5,2.4,4.1,3.3c4.6,3,9.7,4,13.8,3.2c-4.4-0.1-9.5-2.4-13.6-6.8
	c-2.5-2.7-4.3-5.6-5.2-8.6l-0.1-2.9c2.5,3,6.6,5.3,11.4,6.3c5.4,1,10.5,0.1,14-2.2c-4.1,1.6-9.7,1.3-15.1-1.2
	c-4.7-2.2-8.3-5.6-10.1-9.2c0-0.7,0-1.4-0.1-2.1c-0.1-0.4-0.2-0.7-0.3-1.1l0-0.8c1.6,1.9,4.2,3.5,7.4,4.1c3.4,0.7,6.7,0.1,8.9-1.4
	c-2.6,1-6.2,0.8-9.6-0.8c-2.9-1.3-5-3.3-6.2-5.5c0.1-1.1,0.1-2.2-0.2-3.1c1.6,1.8,4.1,3.2,7.1,3.8c3.4,0.7,6.7,0.1,8.9-1.4
	c-2.6,1-6.2,0.8-9.6-0.8c-2.1-1-3.9-2.3-5.1-3.9c1.9,1.3,4.5,2.1,7.3,2.1c3.5,0,6.5-1.2,8.5-3.1c-2.4,1.5-5.9,2-9.6,1.1
	c-1.9-0.5-3.6-1.2-5-2.2c0,0,0.1,0,0.1,0c1.4,0,2.6-1.1,3.4-2.7c-1,1.3-2.4,1.8-3.8,0.9c-1.2-0.7-2.2-2-2.8-3.6l0-1.9
	c1.8,2.4,5.2,4,9.2,4c3.5,0,6.5-1.2,8.5-3.1c-2.4,1.5-5.9,2-9.6,1.1c-3.9-1-7-3.3-8.2-5.9c-0.1-0.6-0.2-1.2-0.5-1.8
	c0,0.1,0,0.1,0,0.2l-0.1-0.2l0,0c0,0,0,0,0,0c-0.3,0.6-0.5,1.2-0.6,1.8l0,0l0,0c0,0.1,0,0.2,0,0.4c-1.2,2.5-3.7,4.6-6.9,5.5
	c-3.1,0.9-6.2,0.4-8.2-1.1c1.6,1.9,4.3,3.1,7.3,3.1c3.4,0,6.3-1.6,7.9-3.8l0,3.3c0,0.1,0,0.1,0,0.2c-1.2,2.6-4.3,4.9-8.2,5.9
	c-3.7,0.9-7.2,0.4-9.6-1.1c1.9,1.9,5,3.1,8.5,3.1c2.9,0,5.4-0.8,7.3-2.1c-1.2,1.5-3,2.9-5.1,3.9c-3.4,1.6-7,1.8-9.6,0.8
	c2.2,1.5,5.5,2.1,8.9,1.4c3.1-0.6,5.7-2.1,7.3-4c0.4,2.3,0.1,5-1.1,7.7c-1.5,3.5-4,6-6.7,6.9c2.5-0.4,5.3-2,7.4-4.6
	c0,0.3,0,0.5,0,0.8c-0.6,1.1-1.3,2.2-2.2,3.3c-0.2,0-0.3-0.1-0.5-0.1c0.1,0.1,0.2,0.2,0.3,0.3c-1.9,2.2-4.6,4.2-7.7,5.7
	c-5.4,2.5-11,2.8-15.1,1.2c3.5,2.3,8.6,3.3,14,2.2c4-0.8,7.5-2.5,10-4.8c0,1,0.2,2,0.5,3c-0.2,1.3-0.6,2.7-1.1,4
	c-1.5,3.5-4,6-6.7,6.9c2.6-0.4,5.5-2.1,7.6-4.8c0.1-0.1,0.2-0.3,0.3-0.4c-2.2,5.1-7.1,9.9-13.8,13c-7.2,3.3-14.7,3.7-20.2,1.6
	c4.7,3.1,11.5,4.3,18.7,3c5.6-1.1,10.4-3.5,13.7-6.8c-0.1,0.2-0.2,0.3-0.3,0.5c-0.1,0.1-0.2,0.3-0.2,0.4c-2.6,3.7-6.7,7-11.7,9.4
	c-7.2,3.3-14.7,3.7-20.2,1.6c4.7,3.1,11.5,4.3,18.7,3c4-0.8,7.6-2.3,10.5-4.2c-0.2,0.8-0.2,1.6-0.3,2.4c-2.2,2-4.9,3.7-7.9,5.1
	c-7.2,3.3-14.7,3.7-20.2,1.6c4.7,3.1,11.5,4.3,18.7,3c3.7-0.7,7-2,9.9-3.8c0.2,1,0.5,1.9,0.8,2.9c-1.7,2.6-3.8,5.1-6.1,7.5
	c-8.5,8.5-19,13.1-27.9,13c8.3,1.9,18.7,0.1,28.2-5.7c3.6-2.2,6.8-4.8,9.5-7.6c0,0,0.1,0.1,0.1,0.1c-0.2,2.5-1.1,5.1-2.7,7.4
	c-2.4,3.4-5.8,5.5-8.9,5.8c3.1,0.4,6.6-0.6,9.6-3.1c0.4-0.4,0.9-0.8,1.2-1.2c-0.3,0.9-0.6,1.8-1,2.7c-5.5,6.2-14.5,10.9-25.3,12.5
	c-11.9,1.7-23-1-30.1-6.4c5.5,6.5,14.9,11.3,25.9,12.4c6.1,0.6,12,0,17.1-1.5c-8,7.1-17.4,10.9-25.6,10.8c8.3,1.9,18.7,0.1,28.2-5.7
	c2.8-1.7,5.4-3.7,7.7-5.8c-4.3,6.5-11.4,12.4-20.2,16.1c-11.7,5-23.7,5-32.3,1.1c7.3,5.5,18.1,8.2,29.7,6.5c3.2-0.5,6.3-1.3,9.2-2.3
	c-4.4,1.9-9.3,3.2-14.5,4c-14.2,2-27.4-1.1-35.8-7.6c6.5,7.7,17.7,13.5,30.8,14.8c10.3,1,20-0.8,27.6-4.7c-3.9,3.4-8.6,6.5-13.9,9
	c-13,6-26.6,6.7-36.5,2.9c8.4,5.6,20.8,7.8,33.8,5.4c8.4-1.6,15.8-5,21.5-9.4c-4.7,5.5-11.1,10.3-18.8,13.9c-13,6-26.6,6.7-36.5,2.9
	c8.4,5.6,20.8,7.8,33.8,5.4c10.1-1.9,18.8-6.5,24.9-12.3c-1.7,4.8-5.1,10.1-9.8,14.9c-7,7.3-15.5,11.9-22.6,13.1
	c6.5,0.2,14.8-2.5,22.5-7.9c0.4-0.3,0.7-0.5,1.1-0.8c-7.6,7.4-18.3,13.4-30.9,16.8c-18.3,4.9-36.1,2.8-48.1-4.4
	c9.8,9.1,25.3,14.9,42.8,14.5c14.3-0.3,27.1-4.6,36.5-11.3c-6,6.3-13.7,11.9-22.9,16.2c-17.2,7.9-35.1,8.9-48.2,3.9
	c11.2,7.3,27.5,10.4,44.6,7.1c11.1-2.1,20.8-6.6,28.4-12.4c-6.2,7.2-14.6,13.7-24.9,18.4c-17.2,7.9-35.1,8.9-48.2,3.9
	c11.2,7.3,27.5,10.4,44.6,7.1c15.6-3,28.6-10.6,36.6-20.2c-0.4,1.6-1.2,3.2-2.2,4.7c-2.4,3.4-5.8,5.5-8.9,5.8
	c2.6,0.3,5.6-0.4,8.3-2.1c-6.9,14.3-20.9,27.7-39.8,36.4c-21.2,9.8-43.3,11-59.5,4.8c13.8,9.1,33.9,12.8,55.1,8.7
	c13-2.5,24.6-7.6,33.8-14.3c-7.5,8.3-17.5,15.7-29.4,21.2c-21.2,9.8-43.3,11-59.5,4.8c13.8,9.1,33.9,12.8,55.1,8.7
	c22-4.2,39.8-15.8,49-30.1l0,2.1c-0.2,2.3-1.1,4.8-2.7,7c-2.4,3.4-5.8,5.5-8.9,5.8c3.1,0.4,6.6-0.6,9.6-3.1c0.8-0.6,1.4-1.3,2-2.1
	l0.1,39.2h6.7l-1-48.9c9.2,14.2,27,25.8,48.9,30c21.2,4.1,41.3,0.3,55.1-8.7C781.8,961.6,759.7,960.4,738.5,950.6z M695.4,885
	c0.1,0.1,0.2,0.2,0.3,0.3c0,0.1-0.1,0.2-0.1,0.3C695.5,885.4,695.5,885.2,695.4,885z"/>
<path class="st0" d="M1166.4,1037.2c-4.4-2.1-8.5-4.5-12.1-7.2c1.7,0.5,3.5,0.5,5.1,0.1c-3,0-6.3-1.6-8.7-4.7
	c5.5,3.2,11.9,5.6,18.9,6.9c14.9,2.9,29.1,0.2,38.7-6.1c-11.4,4.4-26.9,3.5-41.8-3.4c-10.3-4.8-18.6-11.6-24.1-19.1
	c2.6,1.4,5.4,1.7,7.8,1.2c-3,0-6.4-1.7-8.8-4.8c-1.6-2-2.5-4.3-2.9-6.5c5.7,5.7,14,10.1,23.7,11.9c12.1,2.3,23.5,0.2,31.4-5
	c-9.2,3.5-21.8,2.9-33.9-2.7c-6.1-2.8-11.3-6.5-15.3-10.6c4.7,3,10.4,5.2,16.6,6.4c12.1,2.3,23.5,0.2,31.4-5
	c-9.2,3.5-21.8,2.9-33.9-2.7c-4.3-2-8.2-4.4-11.6-7.2c6.6,2.8,14.6,4.1,23.2,3.2c12.2-1.2,22.6-6.6,28.6-13.8
	c-7.8,6-20.1,9-33.3,7.1c-14.9-2.1-26.8-9.7-31.7-19.1l0-1.9c2.9,3.8,7,7.1,11.9,9.7c8.2,4.3,17,5.3,23.8,3.2
	c-7.5,0.6-16.4-2.7-24-9.4c-2.1-1.9-4-4-5.6-6.1c4.1,3.2,9.4,5.6,15.4,6.8c9.1,1.8,17.8,0.1,23.8-3.8c-7,2.7-16.5,2.2-25.7-2.1
	c-4-1.8-7.4-4.1-10.3-6.7c3.1,1.6,6.6,2.8,10.3,3.6c9.1,1.8,17.8,0.1,23.8-3.8c-7,2.7-16.5,2.2-25.7-2.1c-3.7-1.7-7-3.9-9.8-6.3
	c5.3,2.7,12.1,4.1,19.4,3.3c9.2-0.9,17.1-5,21.7-10.4c-5.9,4.6-15.2,6.8-25.2,5.4c-10.6-1.5-19.3-6.7-23.4-13.3
	c-0.3-0.7-0.6-1.3-1-2c0-0.2-0.1-0.5-0.1-0.7l-0.1-2.8c2.4,2.6,6,4.6,10.3,5.4c5.1,1,9.9,0.1,13.2-2.1c-3.9,1.5-9.1,1.2-14.2-1.1
	c-4.4-2-7.7-5.1-9.4-8.4l0-1c3.5,6.7,13.1,10.9,23.8,9.8c7.8-0.8,14.4-4.2,18.2-8.8c-5,3.8-12.8,5.7-21.2,4.5
	c-8.6-1.2-15.7-5.4-19.3-10.6c0-0.3,0.1-0.5,0.1-0.8c1.7,1.5,3.7,2.8,5.8,3.9c6.9,3.7,14.3,4.5,20,2.9c-5.2,0.4-11.3-1.5-16.8-5.4
	c6.2,2.7,12.6,3.2,17.7,1.7c-6.3,0.4-13.8-2.4-20.1-8c-2.7-2.5-5-5.2-6.6-8c0.1-0.3,0.2-0.5,0.3-0.8c2.3,1.8,5.2,3.1,8.5,3.8
	c5.1,1,9.9,0.1,13.2-2.1c-3.9,1.5-9.1,1.2-14.2-1.1c-2.5-1.2-4.7-2.7-6.4-4.4c0-0.3,0.1-0.5,0.1-0.8c2.1,1.4,4.6,2.4,7.3,2.9
	c5.1,1,9.9,0.1,13.2-2.1c-2.8,1.1-6.3,1.2-9.9,0.4c4.1,0.3,8-0.6,10.7-2.4c-3.9,1.5-9.1,1.2-14.2-1.1c-5.8-2.7-9.8-7.3-10.5-11.8
	c0.8,0.9,1.8,1.7,2.9,2.4c3.2,2.1,6.8,2.8,9.7,2.2c-3.1,0-6.7-1.7-9.6-4.8c-1.8-1.9-3-4-3.6-6l0-2c1.8,2.1,4.6,3.8,8,4.4
	c3.8,0.7,7.4,0.1,9.9-1.6c-2.9,1.1-6.8,0.9-10.6-0.9c-3.3-1.5-5.8-3.9-7.1-6.4c0-0.5,0-1-0.1-1.5c-0.1-0.3-0.1-0.5-0.2-0.8l0-0.6
	c1.1,1.4,3,2.5,5.2,2.9c2.4,0.5,4.7,0,6.2-1c-1.8,0.7-4.3,0.6-6.7-0.5c-2-0.9-3.5-2.3-4.4-3.8c0.1-0.8,0-1.5-0.1-2.2
	c1.1,1.3,2.9,2.3,5,2.7c2.4,0.5,4.7,0,6.2-1c-1.8,0.7-4.3,0.6-6.7-0.5c-1.5-0.7-2.7-1.6-3.6-2.7c1.3,0.9,3.2,1.5,5.2,1.5
	c2.4,0,4.6-0.8,5.9-2.2c-1.7,1-4.2,1.4-6.7,0.7c-1.3-0.3-2.5-0.9-3.5-1.6c0,0,0,0,0.1,0c1,0,1.8-0.8,2.4-1.9
	c-0.7,0.9-1.7,1.2-2.7,0.7c-0.8-0.5-1.5-1.4-2-2.5l0-1.4c1.2,1.7,3.7,2.8,6.5,2.8c2.4,0,4.6-0.8,5.9-2.2c-1.7,1-4.2,1.4-6.7,0.7
	c-2.8-0.7-4.9-2.3-5.8-4.2c0-0.5-0.2-0.9-0.3-1.3c0,0,0,0.1,0,0.1l0-0.1l0,0l0,0c-0.2,0.4-0.3,0.8-0.4,1.3l0,0v0c0,0.1,0,0.2,0,0.3
	c-0.8,1.7-2.6,3.2-4.8,3.9c-2.2,0.6-4.4,0.3-5.8-0.7c1.2,1.3,3,2.2,5.1,2.2c2.4,0,4.5-1.1,5.5-2.7l0,2.3c0,0,0,0.1,0,0.1
	c-0.9,1.9-3,3.5-5.8,4.2c-2.6,0.6-5.1,0.3-6.7-0.7c1.3,1.3,3.5,2.2,5.9,2.2c2,0,3.8-0.6,5.2-1.5c-0.9,1.1-2.1,2-3.6,2.7
	c-2.4,1.1-4.9,1.2-6.7,0.5c1.6,1,3.8,1.5,6.2,1c2.2-0.4,4-1.5,5.1-2.8c0.3,1.6,0.1,3.5-0.8,5.4c-1.1,2.4-2.8,4.2-4.7,4.9
	c1.8-0.3,3.7-1.4,5.2-3.2c0,0.2,0,0.4,0,0.6c-0.4,0.8-0.9,1.6-1.5,2.3c-0.1,0-0.2-0.1-0.3-0.1c0.1,0.1,0.1,0.2,0.2,0.2
	c-1.4,1.6-3.2,3-5.4,4c-3.8,1.8-7.7,2-10.6,0.9c2.5,1.6,6.1,2.3,9.9,1.6c2.8-0.5,5.3-1.8,7-3.4c0,0.7,0.1,1.4,0.3,2.1
	c-0.1,0.9-0.4,1.9-0.8,2.8c-1.1,2.4-2.8,4.2-4.7,4.9c1.9-0.3,3.8-1.5,5.3-3.4c0.1-0.1,0.1-0.2,0.2-0.3c-1.6,3.6-5,7-9.7,9.1
	c-5.1,2.3-10.3,2.6-14.2,1.1c3.3,2.2,8.1,3.1,13.2,2.1c3.9-0.8,7.3-2.5,9.7-4.7c-0.1,0.1-0.1,0.2-0.2,0.4c-0.1,0.1-0.1,0.2-0.2,0.3
	c-1.8,2.6-4.7,4.9-8.2,6.6c-5.1,2.3-10.3,2.6-14.2,1.1c3.3,2.2,8.1,3.1,13.2,2.1c2.8-0.5,5.3-1.6,7.4-3c-0.1,0.6-0.2,1.1-0.2,1.7
	c-1.6,1.4-3.4,2.6-5.5,3.6c-5.1,2.3-10.3,2.6-14.2,1.1c3.3,2.2,8.1,3.1,13.2,2.1c2.6-0.5,5-1.4,6.9-2.7c0.1,0.7,0.3,1.3,0.6,2
	c-1.2,1.8-2.7,3.6-4.3,5.3c-6,6-13.3,9.2-19.6,9.1c5.8,1.3,13.1,0.1,19.8-4c2.6-1.6,4.8-3.4,6.7-5.4c0,0,0,0.1,0.1,0.1
	c-0.1,1.7-0.8,3.6-1.9,5.2c-1.7,2.4-4.1,3.9-6.3,4.1c2.2,0.3,4.7-0.5,6.7-2.2c0.3-0.3,0.6-0.5,0.9-0.8c-0.2,0.6-0.4,1.3-0.7,1.9
	c-3.9,4.4-10.2,7.7-17.8,8.8c-8.4,1.2-16.2-0.7-21.2-4.5c3.8,4.6,10.5,8,18.2,8.8c4.3,0.4,8.4,0,12-1.1c-5.6,5-12.3,7.7-18,7.6
	c5.8,1.3,13.1,0.1,19.8-4c2-1.2,3.8-2.6,5.4-4.1c-3.1,4.6-8,8.7-14.2,11.4c-8.2,3.5-16.6,3.5-22.7,0.7c5.1,3.9,12.8,5.8,20.9,4.6
	c2.3-0.3,4.4-0.9,6.4-1.6c-3.1,1.3-6.5,2.3-10.2,2.8c-10,1.4-19.3-0.8-25.2-5.4c4.6,5.4,12.4,9.5,21.7,10.4
	c7.3,0.7,14.1-0.6,19.4-3.3c-2.8,2.4-6.1,4.6-9.8,6.3c-9.1,4.2-18.7,4.7-25.7,2.1c5.9,3.9,14.6,5.5,23.8,3.8
	c5.9-1.1,11.1-3.5,15.1-6.6c-3.3,3.8-7.8,7.3-13.2,9.8c-9.1,4.2-18.7,4.7-25.7,2.1c5.9,3.9,14.6,5.5,23.8,3.8
	c7.1-1.4,13.3-4.5,17.5-8.6c-1.2,3.4-3.6,7.1-6.9,10.5c-5,5.1-10.9,8.4-15.9,9.2c4.6,0.2,10.4-1.7,15.9-5.5c0.3-0.2,0.5-0.4,0.7-0.5
	c-5.4,5.2-12.9,9.5-21.7,11.8c-12.9,3.5-25.4,2-33.9-3.1c6.9,6.4,17.8,10.5,30.1,10.2c10-0.2,19.1-3.2,25.7-8
	c-4.2,4.4-9.7,8.4-16.1,11.4c-12.1,5.6-24.7,6.3-33.9,2.7c7.8,5.2,19.3,7.3,31.4,5c7.8-1.5,14.7-4.6,20-8.7
	c-4.3,5.1-10.3,9.6-17.5,12.9c-12.1,5.6-24.7,6.3-33.9,2.7c7.8,5.2,19.3,7.3,31.4,5c11-2.1,20.1-7.5,25.7-14.2
	c-0.3,1.1-0.8,2.2-1.6,3.3c-1.7,2.4-4.1,3.9-6.3,4.1c1.9,0.2,4-0.3,5.8-1.5c-4.8,10-14.7,19.5-28,25.6c-14.9,6.9-30.5,7.7-41.8,3.4
	c9.7,6.4,23.9,9,38.7,6.1c9.2-1.8,17.3-5.4,23.8-10.1c-5.3,5.8-12.3,11-20.7,14.9c-14.9,6.9-30.5,7.7-41.8,3.4
	c9.7,6.4,23.9,9,38.7,6.1c15.4-3,28-11.1,34.5-21.2l0,1.5c-0.2,1.6-0.8,3.3-1.9,4.9c-1.7,2.4-4.1,3.9-6.3,4.1
	c2.2,0.3,4.7-0.5,6.7-2.2c0.5-0.5,1-0.9,1.4-1.5l0.1,27.6h4.7l-0.7-34.4c6.5,10,19,18.2,34.4,21.1c14.9,2.9,29.1,0.2,38.7-6.1
	C1196.9,1045,1181.3,1044.1,1166.4,1037.2z M1136.1,991c0.1,0.1,0.1,0.2,0.2,0.2c0,0.1,0,0.1-0.1,0.2
	C1136.2,991.3,1136.1,991.2,1136.1,991z"/>
<path class="st0" d="M1194.6,1047c-4.4-2.1-8.5-4.5-12.1-7.2c1.7,0.5,3.5,0.5,5.1,0.1c-3,0-6.3-1.6-8.7-4.7
	c5.5,3.2,11.9,5.6,18.9,6.9c14.9,2.9,29.1,0.2,38.7-6.1c-11.4,4.4-26.9,3.5-41.8-3.4c-10.3-4.8-18.6-11.6-24.1-19.1
	c2.6,1.4,5.4,1.7,7.8,1.2c-3,0-6.4-1.7-8.8-4.8c-1.6-2-2.5-4.3-2.9-6.5c5.7,5.7,14,10.1,23.7,11.9c12.1,2.3,23.5,0.2,31.4-5
	c-9.2,3.5-21.8,2.9-33.9-2.7c-6.1-2.8-11.3-6.5-15.3-10.6c4.7,3,10.4,5.2,16.6,6.4c12.1,2.3,23.5,0.2,31.4-5
	c-9.2,3.5-21.8,2.9-33.9-2.7c-4.3-2-8.2-4.4-11.6-7.2c6.6,2.8,14.6,4.1,23.2,3.2c12.2-1.2,22.6-6.6,28.6-13.8
	c-7.8,6-20.1,9-33.3,7.1c-14.9-2.1-26.8-9.7-31.7-19.1l0-1.9c2.9,3.8,7,7.1,11.9,9.7c8.2,4.3,17,5.3,23.8,3.2
	c-7.5,0.6-16.4-2.7-24-9.4c-2.1-1.9-4-4-5.6-6.1c4.1,3.2,9.4,5.6,15.4,6.8c9.1,1.8,17.8,0.1,23.8-3.8c-7,2.7-16.5,2.2-25.7-2.1
	c-4-1.8-7.4-4.1-10.3-6.7c3.1,1.6,6.6,2.8,10.3,3.6c9.1,1.8,17.8,0.1,23.8-3.8c-7,2.7-16.5,2.2-25.7-2.1c-3.7-1.7-7-3.9-9.8-6.3
	c5.3,2.7,12.1,4.1,19.4,3.3c9.2-0.9,17.1-5,21.7-10.4c-5.9,4.6-15.2,6.8-25.2,5.4c-10.6-1.5-19.3-6.7-23.4-13.3
	c-0.3-0.7-0.6-1.3-1-2c0-0.2-0.1-0.5-0.1-0.7l-0.1-2.8c2.4,2.6,6,4.6,10.3,5.4c5.1,1,9.9,0.1,13.2-2.1c-3.9,1.5-9.1,1.2-14.2-1.1
	c-4.4-2-7.7-5.1-9.4-8.4l0-1c3.5,6.7,13.1,10.9,23.8,9.8c7.8-0.8,14.4-4.2,18.2-8.8c-5,3.8-12.8,5.7-21.2,4.5
	c-8.6-1.2-15.7-5.4-19.3-10.6c0-0.3,0.1-0.5,0.1-0.8c1.7,1.5,3.7,2.8,5.8,3.9c6.9,3.7,14.3,4.5,20,2.9c-5.2,0.4-11.3-1.5-16.8-5.4
	c6.2,2.7,12.6,3.2,17.7,1.7c-6.3,0.4-13.8-2.4-20.1-8c-2.7-2.5-5-5.2-6.6-8c0.1-0.3,0.2-0.5,0.3-0.8c2.3,1.8,5.2,3.1,8.5,3.8
	c5.1,1,9.9,0.1,13.2-2.1c-3.9,1.5-9.1,1.2-14.2-1.1c-2.5-1.2-4.7-2.7-6.4-4.4c0-0.3,0.1-0.5,0.1-0.8c2.1,1.4,4.6,2.4,7.3,2.9
	c5.1,1,9.9,0.1,13.2-2.1c-2.8,1.1-6.3,1.2-9.9,0.4c4.1,0.3,8-0.6,10.7-2.4c-3.9,1.5-9.1,1.2-14.2-1.1c-5.8-2.7-9.8-7.3-10.5-11.8
	c0.8,0.9,1.8,1.7,2.9,2.4c3.2,2.1,6.8,2.8,9.7,2.2c-3.1,0-6.7-1.7-9.6-4.8c-1.8-1.9-3-4-3.6-6l0-2c1.8,2.1,4.6,3.8,8,4.4
	c3.8,0.7,7.4,0.1,9.9-1.6c-2.9,1.1-6.8,0.9-10.6-0.9c-3.3-1.5-5.8-3.9-7.1-6.4c0-0.5,0-1-0.1-1.5c-0.1-0.3-0.1-0.5-0.2-0.8l0-0.6
	c1.1,1.4,3,2.5,5.2,2.9c2.4,0.5,4.7,0,6.2-1c-1.8,0.7-4.3,0.6-6.7-0.5c-2-0.9-3.5-2.3-4.4-3.8c0.1-0.8,0-1.5-0.1-2.2
	c1.1,1.3,2.9,2.3,5,2.7c2.4,0.5,4.7,0,6.2-1c-1.8,0.7-4.3,0.6-6.7-0.5c-1.5-0.7-2.7-1.6-3.6-2.7c1.3,0.9,3.2,1.5,5.2,1.5
	c2.4,0,4.6-0.8,5.9-2.2c-1.7,1-4.2,1.4-6.7,0.7c-1.3-0.3-2.5-0.9-3.5-1.6c0,0,0,0,0.1,0c1,0,1.8-0.8,2.4-1.9
	c-0.7,0.9-1.7,1.2-2.7,0.7c-0.8-0.5-1.5-1.4-2-2.5l0-1.4c1.2,1.7,3.7,2.8,6.5,2.8c2.4,0,4.6-0.8,5.9-2.2c-1.7,1-4.2,1.4-6.7,0.7
	c-2.8-0.7-4.9-2.3-5.8-4.2c0-0.5-0.2-0.9-0.3-1.3c0,0,0,0.1,0,0.1l0-0.1l0,0l0,0c-0.2,0.4-0.3,0.8-0.4,1.3l0,0l0,0
	c0,0.1,0,0.2,0,0.3c-0.8,1.7-2.6,3.2-4.8,3.9c-2.2,0.6-4.4,0.3-5.8-0.7c1.2,1.3,3,2.2,5.1,2.2c2.4,0,4.5-1.1,5.5-2.7l0,2.3
	c0,0,0,0.1,0,0.1c-0.9,1.9-3,3.5-5.8,4.2c-2.6,0.6-5.1,0.3-6.7-0.7c1.3,1.3,3.5,2.2,5.9,2.2c2,0,3.8-0.6,5.2-1.5
	c-0.9,1.1-2.1,2-3.6,2.7c-2.4,1.1-4.9,1.2-6.7,0.5c1.6,1,3.8,1.5,6.2,1c2.2-0.4,4-1.5,5.1-2.8c0.3,1.6,0.1,3.5-0.8,5.4
	c-1.1,2.4-2.8,4.2-4.7,4.9c1.8-0.3,3.7-1.4,5.2-3.2c0,0.2,0,0.4,0,0.6c-0.4,0.8-0.9,1.6-1.5,2.3c-0.1,0-0.2-0.1-0.3-0.1
	c0.1,0.1,0.1,0.2,0.2,0.2c-1.4,1.6-3.2,3-5.4,4c-3.8,1.8-7.7,2-10.6,0.9c2.5,1.6,6.1,2.3,9.9,1.6c2.8-0.5,5.3-1.8,7-3.4
	c0,0.7,0.1,1.4,0.3,2.1c-0.1,0.9-0.4,1.9-0.8,2.8c-1.1,2.4-2.8,4.2-4.7,4.9c1.9-0.3,3.8-1.5,5.3-3.4c0.1-0.1,0.1-0.2,0.2-0.3
	c-1.6,3.6-5,7-9.7,9.1c-5.1,2.3-10.3,2.6-14.2,1.1c3.3,2.2,8.1,3.1,13.2,2.1c3.9-0.8,7.3-2.5,9.7-4.7c-0.1,0.1-0.1,0.2-0.2,0.4
	c-0.1,0.1-0.1,0.2-0.2,0.3c-1.8,2.6-4.7,4.9-8.2,6.6c-5.1,2.3-10.3,2.6-14.2,1.1c3.3,2.2,8.1,3.1,13.2,2.1c2.8-0.5,5.3-1.6,7.4-3
	c-0.1,0.6-0.2,1.1-0.2,1.7c-1.6,1.4-3.4,2.6-5.5,3.6c-5.1,2.3-10.3,2.6-14.2,1.1c3.3,2.2,8.1,3.1,13.2,2.1c2.6-0.5,5-1.4,6.9-2.7
	c0.1,0.7,0.3,1.3,0.6,2c-1.2,1.8-2.7,3.6-4.3,5.3c-6,6-13.3,9.2-19.6,9.1c5.8,1.3,13.1,0.1,19.8-4c2.6-1.6,4.8-3.4,6.7-5.4
	c0,0,0,0.1,0.1,0.1c-0.1,1.7-0.8,3.6-1.9,5.2c-1.7,2.4-4.1,3.9-6.3,4.1c2.2,0.3,4.7-0.5,6.7-2.2c0.3-0.3,0.6-0.5,0.9-0.8
	c-0.2,0.6-0.4,1.3-0.7,1.9c-3.9,4.4-10.2,7.7-17.8,8.8c-8.4,1.2-16.2-0.7-21.2-4.5c3.8,4.6,10.5,8,18.2,8.8c4.3,0.4,8.4,0,12-1.1
	c-5.6,5-12.3,7.7-18,7.6c5.8,1.3,13.1,0.1,19.8-4c2-1.2,3.8-2.6,5.4-4.1c-3.1,4.6-8,8.7-14.2,11.4c-8.2,3.5-16.6,3.5-22.7,0.7
	c5.1,3.9,12.8,5.8,20.9,4.6c2.3-0.3,4.4-0.9,6.4-1.6c-3.1,1.3-6.5,2.3-10.2,2.8c-10,1.4-19.3-0.8-25.2-5.4
	c4.6,5.4,12.4,9.5,21.7,10.4c7.3,0.7,14.1-0.6,19.4-3.3c-2.8,2.4-6.1,4.6-9.8,6.3c-9.1,4.2-18.7,4.7-25.7,2.1
	c5.9,3.9,14.6,5.5,23.8,3.8c5.9-1.1,11.1-3.5,15.1-6.6c-3.3,3.8-7.8,7.3-13.2,9.8c-9.1,4.2-18.7,4.7-25.7,2.1
	c5.9,3.9,14.6,5.5,23.8,3.8c7.1-1.4,13.3-4.5,17.5-8.6c-1.2,3.4-3.6,7.1-6.9,10.5c-5,5.1-10.9,8.4-15.9,9.2
	c4.6,0.2,10.4-1.7,15.9-5.5c0.3-0.2,0.5-0.4,0.7-0.5c-5.4,5.2-12.9,9.5-21.7,11.8c-12.9,3.5-25.4,2-33.9-3.1
	c6.9,6.4,17.8,10.5,30.1,10.2c10-0.2,19.1-3.2,25.7-8c-4.2,4.4-9.7,8.4-16.1,11.4c-12.1,5.6-24.7,6.3-33.9,2.7
	c7.8,5.2,19.3,7.3,31.4,5c7.8-1.5,14.7-4.6,20-8.7c-4.3,5.1-10.3,9.6-17.5,12.9c-12.1,5.6-24.7,6.3-33.9,2.7
	c7.8,5.2,19.3,7.3,31.4,5c11-2.1,20.1-7.5,25.7-14.2c-0.3,1.1-0.8,2.2-1.6,3.3c-1.7,2.4-4.1,3.9-6.3,4.1c1.9,0.2,4-0.3,5.8-1.5
	c-4.8,10-14.7,19.5-28,25.6c-14.9,6.9-30.5,7.7-41.8,3.4c9.7,6.4,23.9,9,38.7,6.1c9.2-1.8,17.3-5.4,23.8-10.1
	c-5.3,5.8-12.3,11-20.7,14.9c-14.9,6.9-30.5,7.7-41.8,3.4c9.7,6.4,23.9,9,38.7,6.1c15.4-3,28-11.1,34.5-21.2l0,1.5
	c-0.2,1.6-0.8,3.3-1.9,4.9c-1.7,2.4-4.1,3.9-6.3,4.1c2.2,0.3,4.7-0.5,6.7-2.2c0.5-0.5,1-0.9,1.4-1.5l0.1,27.6h4.7l-0.7-34.4
	c6.5,10,19,18.2,34.4,21.1c14.9,2.9,29.1,0.2,38.7-6.1C1225,1054.8,1209.5,1053.9,1194.6,1047z M1164.2,1000.8
	c0.1,0.1,0.1,0.2,0.2,0.2c0,0.1,0,0.1-0.1,0.2C1164.3,1001.1,1164.3,1001,1164.2,1000.8z"/>
<path class="st0" d="M1239.7,1037.2c-4.4-2.1-8.5-4.5-12.1-7.2c1.7,0.5,3.5,0.5,5.1,0.1c-3,0-6.3-1.6-8.7-4.7
	c5.5,3.2,11.9,5.6,18.9,6.9c14.9,2.9,29.1,0.2,38.7-6.1c-11.4,4.4-26.9,3.5-41.8-3.4c-10.3-4.8-18.6-11.6-24.1-19.1
	c2.6,1.4,5.4,1.7,7.8,1.2c-3,0-6.4-1.7-8.8-4.8c-1.6-2-2.5-4.3-2.9-6.5c5.7,5.7,14,10.1,23.7,11.9c12.1,2.3,23.5,0.2,31.4-5
	c-9.2,3.5-21.8,2.9-33.9-2.7c-6.1-2.8-11.3-6.5-15.3-10.6c4.7,3,10.4,5.2,16.6,6.4c12.1,2.3,23.5,0.2,31.4-5
	c-9.2,3.5-21.8,2.9-33.9-2.7c-4.3-2-8.2-4.4-11.6-7.2c6.6,2.8,14.6,4.1,23.2,3.2c12.2-1.2,22.6-6.6,28.6-13.8
	c-7.8,6-20.1,9-33.3,7.1c-14.9-2.1-26.8-9.7-31.7-19.1l0-1.9c2.9,3.8,7,7.1,11.9,9.7c8.2,4.3,17,5.3,23.8,3.2
	c-7.5,0.6-16.4-2.7-24-9.4c-2.1-1.9-4-4-5.6-6.1c4.1,3.2,9.4,5.6,15.4,6.8c9.1,1.8,17.8,0.1,23.8-3.8c-7,2.7-16.5,2.2-25.7-2.1
	c-4-1.8-7.4-4.1-10.3-6.7c3.1,1.6,6.6,2.8,10.3,3.6c9.1,1.8,17.8,0.1,23.8-3.8c-7,2.7-16.5,2.2-25.7-2.1c-3.7-1.7-7-3.9-9.8-6.3
	c5.3,2.7,12.1,4.1,19.4,3.3c9.2-0.9,17.1-5,21.7-10.4c-5.9,4.6-15.2,6.8-25.2,5.4c-10.6-1.5-19.3-6.7-23.4-13.3
	c-0.3-0.7-0.6-1.3-1-2c0-0.2-0.1-0.5-0.1-0.7l-0.1-2.8c2.4,2.6,6,4.6,10.3,5.4c5.1,1,9.9,0.1,13.2-2.1c-3.9,1.5-9.1,1.2-14.2-1.1
	c-4.4-2-7.7-5.1-9.4-8.4l0-1c3.5,6.7,13.1,10.9,23.8,9.8c7.8-0.8,14.4-4.2,18.2-8.8c-5,3.8-12.8,5.7-21.2,4.5
	c-8.6-1.2-15.7-5.4-19.3-10.6c0-0.3,0.1-0.5,0.1-0.8c1.7,1.5,3.7,2.8,5.8,3.9c6.9,3.7,14.3,4.5,20,2.9c-5.2,0.4-11.3-1.5-16.8-5.4
	c6.2,2.7,12.6,3.2,17.7,1.7c-6.3,0.4-13.8-2.4-20.1-8c-2.7-2.5-5-5.2-6.6-8c0.1-0.3,0.2-0.5,0.3-0.8c2.3,1.8,5.2,3.1,8.5,3.8
	c5.1,1,9.9,0.1,13.2-2.1c-3.9,1.5-9.1,1.2-14.2-1.1c-2.5-1.2-4.7-2.7-6.4-4.4c0-0.3,0.1-0.5,0.1-0.8c2.1,1.4,4.6,2.4,7.3,2.9
	c5.1,1,9.9,0.1,13.2-2.1c-2.8,1.1-6.3,1.2-9.9,0.4c4.1,0.3,8-0.6,10.7-2.4c-3.9,1.5-9.1,1.2-14.2-1.1c-5.8-2.7-9.8-7.3-10.5-11.8
	c0.8,0.9,1.8,1.7,2.9,2.4c3.2,2.1,6.8,2.8,9.7,2.2c-3.1,0-6.7-1.7-9.6-4.8c-1.8-1.9-3-4-3.6-6l0-2c1.8,2.1,4.6,3.8,8,4.4
	c3.8,0.7,7.4,0.1,9.9-1.6c-2.9,1.1-6.8,0.9-10.6-0.9c-3.3-1.5-5.8-3.9-7.1-6.4c0-0.5,0-1-0.1-1.5c-0.1-0.3-0.1-0.5-0.2-0.8l0-0.6
	c1.1,1.4,3,2.5,5.2,2.9c2.4,0.5,4.7,0,6.2-1c-1.8,0.7-4.3,0.6-6.7-0.5c-2-0.9-3.5-2.3-4.4-3.8c0.1-0.8,0-1.5-0.1-2.2
	c1.1,1.3,2.9,2.3,5,2.7c2.4,0.5,4.7,0,6.2-1c-1.8,0.7-4.3,0.6-6.7-0.5c-1.5-0.7-2.7-1.6-3.6-2.7c1.3,0.9,3.2,1.5,5.2,1.5
	c2.4,0,4.6-0.8,5.9-2.2c-1.7,1-4.2,1.4-6.7,0.7c-1.3-0.3-2.5-0.9-3.5-1.6c0,0,0,0,0.1,0c1,0,1.8-0.8,2.4-1.9
	c-0.7,0.9-1.7,1.2-2.7,0.7c-0.8-0.5-1.5-1.4-2-2.5l0-1.4c1.2,1.7,3.7,2.8,6.5,2.8c2.4,0,4.6-0.8,5.9-2.2c-1.7,1-4.2,1.4-6.7,0.7
	c-2.8-0.7-4.9-2.3-5.8-4.2c0-0.5-0.2-0.9-0.3-1.3c0,0,0,0.1,0,0.1l0-0.1l0,0l0,0c-0.2,0.4-0.3,0.8-0.4,1.3l0,0l0,0
	c0,0.1,0,0.2,0,0.3c-0.8,1.7-2.6,3.2-4.8,3.9c-2.2,0.6-4.4,0.3-5.8-0.7c1.2,1.3,3,2.2,5.1,2.2c2.4,0,4.5-1.1,5.5-2.7l0,2.3
	c0,0,0,0.1,0,0.1c-0.9,1.9-3,3.5-5.8,4.2c-2.6,0.6-5.1,0.3-6.7-0.7c1.3,1.3,3.5,2.2,5.9,2.2c2,0,3.8-0.6,5.2-1.5
	c-0.9,1.1-2.1,2-3.6,2.7c-2.4,1.1-4.9,1.2-6.7,0.5c1.6,1,3.8,1.5,6.2,1c2.2-0.4,4-1.5,5.1-2.8c0.3,1.6,0.1,3.5-0.8,5.4
	c-1.1,2.4-2.8,4.2-4.7,4.9c1.8-0.3,3.7-1.4,5.2-3.2c0,0.2,0,0.4,0,0.6c-0.4,0.8-0.9,1.6-1.5,2.3c-0.1,0-0.2-0.1-0.3-0.1
	c0.1,0.1,0.1,0.2,0.2,0.2c-1.4,1.6-3.2,3-5.4,4c-3.8,1.8-7.7,2-10.6,0.9c2.5,1.6,6.1,2.3,9.9,1.6c2.8-0.5,5.3-1.8,7-3.4
	c0,0.7,0.1,1.4,0.3,2.1c-0.1,0.9-0.4,1.9-0.8,2.8c-1.1,2.4-2.8,4.2-4.7,4.9c1.9-0.3,3.8-1.5,5.3-3.4c0.1-0.1,0.1-0.2,0.2-0.3
	c-1.6,3.6-5,7-9.7,9.1c-5.1,2.3-10.3,2.6-14.2,1.1c3.3,2.2,8.1,3.1,13.2,2.1c3.9-0.8,7.3-2.5,9.7-4.7c-0.1,0.1-0.1,0.2-0.2,0.4
	c-0.1,0.1-0.1,0.2-0.2,0.3c-1.8,2.6-4.7,4.9-8.2,6.6c-5.1,2.3-10.3,2.6-14.2,1.1c3.3,2.2,8.1,3.1,13.2,2.1c2.8-0.5,5.3-1.6,7.4-3
	c-0.1,0.6-0.2,1.1-0.2,1.7c-1.6,1.4-3.4,2.6-5.5,3.6c-5.1,2.3-10.3,2.6-14.2,1.1c3.3,2.2,8.1,3.1,13.2,2.1c2.6-0.5,5-1.4,6.9-2.7
	c0.1,0.7,0.3,1.3,0.6,2c-1.2,1.8-2.7,3.6-4.3,5.3c-6,6-13.3,9.2-19.6,9.1c5.8,1.3,13.1,0.1,19.8-4c2.6-1.6,4.8-3.4,6.7-5.4
	c0,0,0,0.1,0.1,0.1c-0.1,1.7-0.8,3.6-1.9,5.2c-1.7,2.4-4.1,3.9-6.3,4.1c2.2,0.3,4.7-0.5,6.7-2.2c0.3-0.3,0.6-0.5,0.9-0.8
	c-0.2,0.6-0.4,1.3-0.7,1.9c-3.9,4.4-10.2,7.7-17.8,8.8c-8.4,1.2-16.2-0.7-21.2-4.5c3.8,4.6,10.5,8,18.2,8.8c4.3,0.4,8.4,0,12-1.1
	c-5.6,5-12.3,7.7-18,7.6c5.8,1.3,13.1,0.1,19.8-4c2-1.2,3.8-2.6,5.4-4.1c-3.1,4.6-8,8.7-14.2,11.4c-8.2,3.5-16.6,3.5-22.7,0.7
	c5.1,3.9,12.8,5.8,20.9,4.6c2.3-0.3,4.4-0.9,6.4-1.6c-3.1,1.3-6.5,2.3-10.2,2.8c-10,1.4-19.3-0.8-25.2-5.4
	c4.6,5.4,12.4,9.5,21.7,10.4c7.3,0.7,14.1-0.6,19.4-3.3c-2.8,2.4-6.1,4.6-9.8,6.3c-9.1,4.2-18.7,4.7-25.7,2.1
	c5.9,3.9,14.6,5.5,23.8,3.8c5.9-1.1,11.1-3.5,15.1-6.6c-3.3,3.8-7.8,7.3-13.2,9.8c-9.1,4.2-18.7,4.7-25.7,2.1
	c5.9,3.9,14.6,5.5,23.8,3.8c7.1-1.4,13.3-4.5,17.5-8.6c-1.2,3.4-3.6,7.1-6.9,10.5c-5,5.1-10.9,8.4-15.9,9.2
	c4.6,0.2,10.4-1.7,15.9-5.5c0.3-0.2,0.5-0.4,0.7-0.5c-5.4,5.2-12.9,9.5-21.7,11.8c-12.9,3.5-25.4,2-33.9-3.1
	c6.9,6.4,17.8,10.5,30.1,10.2c10-0.2,19.1-3.2,25.7-8c-4.2,4.4-9.7,8.4-16.1,11.4c-12.1,5.6-24.7,6.3-33.9,2.7
	c7.8,5.2,19.3,7.3,31.4,5c7.8-1.5,14.7-4.6,20-8.7c-4.3,5.1-10.3,9.6-17.5,12.9c-12.1,5.6-24.7,6.3-33.9,2.7
	c7.8,5.2,19.3,7.3,31.4,5c11-2.1,20.1-7.5,25.7-14.2c-0.3,1.1-0.8,2.2-1.6,3.3c-1.7,2.4-4.1,3.9-6.3,4.1c1.9,0.2,4-0.3,5.8-1.5
	c-4.8,10-14.7,19.5-28,25.6c-14.9,6.9-30.5,7.7-41.8,3.4c9.7,6.4,23.9,9,38.7,6.1c9.2-1.8,17.3-5.4,23.8-10.1
	c-5.3,5.8-12.3,11-20.7,14.9c-14.9,6.9-30.5,7.7-41.8,3.4c9.7,6.4,23.9,9,38.7,6.1c15.4-3,28-11.1,34.5-21.2l0,1.5
	c-0.2,1.6-0.8,3.3-1.9,4.9c-1.7,2.4-4.1,3.9-6.3,4.1c2.2,0.3,4.7-0.5,6.7-2.2c0.5-0.5,1-0.9,1.4-1.5l0.1,27.6h4.7l-0.7-34.4
	c6.5,10,19,18.2,34.4,21.1c14.9,2.9,29.1,0.2,38.7-6.1C1270.2,1045,1254.7,1044.1,1239.7,1037.2z M1209.4,991
	c0.1,0.1,0.1,0.2,0.2,0.2c0,0.1,0,0.1-0.1,0.2C1209.5,991.3,1209.5,991.2,1209.4,991z"/>
<path class="st0" d="M1410.9,1045c-5.9-2.7-11.2-5.9-16-9.5c2.3,0.6,4.6,0.6,6.7,0.2c-4,0-8.3-2.1-11.5-6.2
	c7.2,4.2,15.7,7.3,24.8,9.1c19.6,3.8,38.2,0.3,51-8.1c-15,5.8-35.4,4.7-55.1-4.4c-13.6-6.3-24.5-15.2-31.7-25.1
	c3.4,1.8,7,2.3,10.3,1.6c-4,0-8.4-2.2-11.6-6.3c-2.1-2.6-3.3-5.6-3.8-8.6c7.5,7.4,18.4,13.2,31.1,15.7c15.9,3,31,0.2,41.3-6.5
	c-12.1,4.7-28.7,3.8-44.6-3.6c-8-3.7-14.8-8.5-20.2-14c6.2,3.9,13.7,6.8,21.9,8.4c15.9,3,31,0.2,41.3-6.5
	c-12.1,4.7-28.7,3.8-44.6-3.6c-5.7-2.6-10.8-5.8-15.2-9.4c8.7,3.7,19.3,5.4,30.5,4.3c16.1-1.6,29.7-8.6,37.7-18.1
	c-10.3,7.9-26.4,11.8-43.8,9.3c-19.6-2.8-35.3-12.8-41.8-25.2l-0.1-2.6c3.9,4.9,9.2,9.4,15.6,12.8c10.8,5.7,22.4,6.9,31.4,4.3
	c-9.8,0.7-21.6-3.5-31.5-12.3c-2.8-2.5-5.3-5.2-7.4-8c5.4,4.2,12.3,7.4,20.2,8.9c12,2.3,23.4,0.2,31.3-5c-9.2,3.5-21.7,2.9-33.8-2.7
	c-5.2-2.4-9.8-5.5-13.5-8.9c4.1,2.1,8.6,3.7,13.6,4.7c12,2.3,23.4,0.2,31.3-5c-9.2,3.5-21.7,2.9-33.8-2.7c-4.9-2.3-9.3-5.1-12.9-8.3
	c7,3.6,15.9,5.4,25.5,4.4c12.2-1.2,22.5-6.5,28.5-13.7c-7.8,6-20,9-33.1,7.1c-14-2-25.4-8.9-30.7-17.5c-0.4-0.9-0.8-1.8-1.3-2.6
	c-0.1-0.3-0.1-0.6-0.2-1l-0.1-3.7c3.1,3.4,7.9,6,13.5,7.1c6.6,1.3,13,0.1,17.3-2.7c-5.1,2-12,1.6-18.7-1.5
	c-5.8-2.7-10.1-6.7-12.3-11.1l0-1.3c4.6,8.8,17.2,14.3,31.3,12.9c10.2-1,18.9-5.5,24-11.5c-6.5,5.1-16.8,7.5-27.8,5.9
	c-11.4-1.6-20.7-7.1-25.4-14c0.1-0.4,0.1-0.7,0.1-1.1c2.3,1.9,4.8,3.7,7.6,5.2c9.1,4.8,18.8,6,26.3,3.8c-6.9,0.5-14.9-2-22.2-7.1
	c8.1,3.5,16.5,4.2,23.2,2.3c-8.2,0.6-18.2-3.1-26.4-10.6c-3.6-3.2-6.5-6.9-8.7-10.6c0.2-0.4,0.3-0.7,0.4-1.1c3,2.3,6.8,4.1,11.2,4.9
	c6.6,1.3,13,0.1,17.3-2.7c-5.1,2-12,1.6-18.7-1.5c-3.3-1.5-6.2-3.5-8.4-5.8c0.1-0.4,0.1-0.7,0.1-1.1c2.7,1.8,6,3.1,9.7,3.8
	c6.6,1.3,13,0.1,17.3-2.7c-3.6,1.4-8.2,1.6-13,0.5c5.4,0.4,10.5-0.8,14.1-3.2c-5.1,2-12,1.6-18.7-1.5c-7.7-3.6-12.8-9.6-13.8-15.5
	c1.1,1.1,2.3,2.2,3.8,3.1c4.3,2.7,9,3.7,12.8,2.9c-4.1-0.1-8.8-2.3-12.6-6.3c-2.3-2.5-3.9-5.2-4.8-7.9l-0.1-2.7
	c2.3,2.8,6.1,4.9,10.6,5.8c5,1,9.7,0.1,13-2.1c-3.8,1.5-9,1.2-14-1.1c-4.4-2-7.7-5.2-9.3-8.5c0-0.6,0-1.3-0.1-1.9
	c-0.1-0.4-0.2-0.7-0.3-1l0-0.8c1.5,1.8,3.9,3.2,6.8,3.8c3.2,0.6,6.2,0,8.2-1.3c-2.4,0.9-5.7,0.8-8.9-0.7c-2.6-1.2-4.7-3.1-5.7-5.1
	c0.1-1,0.1-2-0.2-2.9c1.5,1.7,3.8,3,6.6,3.5c3.2,0.6,6.2,0,8.2-1.3c-2.4,0.9-5.7,0.8-8.9-0.7c-2-0.9-3.6-2.2-4.7-3.6
	c1.7,1.2,4.1,2,6.8,2c3.2,0,6.1-1.1,7.8-2.8c-2.2,1.4-5.5,1.8-8.9,1c-1.8-0.4-3.3-1.2-4.6-2.1c0,0,0.1,0,0.1,0c1.3,0,2.4-1,3.1-2.5
	c-0.9,1.2-2.2,1.6-3.6,0.9c-1.1-0.6-2-1.8-2.6-3.3l0-1.8c1.6,2.2,4.9,3.7,8.6,3.7c3.2,0,6.1-1.1,7.8-2.8c-2.2,1.4-5.5,1.8-8.9,1
	c-3.6-0.9-6.5-3-7.6-5.5c-0.1-0.6-0.2-1.1-0.4-1.7c0,0.1,0,0.1,0,0.2l-0.1-0.2l0,0l0,0c-0.3,0.6-0.4,1.1-0.5,1.7l0,0l0,0
	c0,0.1,0,0.2,0,0.3c-1.1,2.3-3.4,4.2-6.4,5.1c-2.9,0.8-5.7,0.4-7.6-1c1.5,1.7,4,2.8,6.7,2.8c3.1,0,5.9-1.4,7.3-3.6l0,3.1
	c0,0,0,0.1,0,0.1c-1.2,2.4-4,4.6-7.6,5.5c-3.4,0.8-6.7,0.4-8.9-1c1.8,1.7,4.6,2.8,7.8,2.8c2.6,0,5-0.8,6.8-2
	c-1.1,1.4-2.8,2.7-4.7,3.6c-3.2,1.5-6.5,1.6-8.9,0.7c2.1,1.4,5.1,1.9,8.2,1.3c2.9-0.6,5.3-2,6.8-3.7c0.4,2.1,0.1,4.7-1,7.1
	c-1.4,3.2-3.7,5.5-6.2,6.4c2.4-0.3,4.9-1.8,6.8-4.2c0,0.3,0,0.5,0,0.8c-0.5,1-1.2,2.1-2,3c-0.1,0-0.3-0.1-0.4-0.1
	c0.1,0.1,0.2,0.2,0.3,0.3c-1.8,2.1-4.2,3.9-7.1,5.2c-5,2.3-10.2,2.6-14,1.1c3.2,2.1,8,3,13,2.1c3.7-0.7,6.9-2.3,9.2-4.4
	c0,0.9,0.2,1.8,0.4,2.8c-0.2,1.2-0.5,2.5-1.1,3.7c-1.4,3.2-3.7,5.5-6.2,6.4c2.4-0.4,5.1-1.9,7-4.5c0.1-0.1,0.2-0.2,0.3-0.4
	c-2.1,4.7-6.6,9.2-12.8,12c-6.7,3.1-13.6,3.5-18.7,1.5c4.3,2.8,10.7,4,17.3,2.7c5.2-1,9.6-3.3,12.7-6.2c-0.1,0.2-0.2,0.3-0.3,0.5
	c-0.1,0.1-0.1,0.3-0.2,0.4c-2.4,3.4-6.2,6.5-10.8,8.7c-6.7,3.1-13.6,3.5-18.7,1.5c4.3,2.8,10.7,4,17.3,2.7c3.7-0.7,7-2.1,9.8-3.9
	c-0.1,0.7-0.2,1.5-0.3,2.2c-2,1.8-4.5,3.4-7.3,4.7c-6.7,3.1-13.6,3.5-18.7,1.5c4.3,2.8,10.7,4,17.3,2.7c3.4-0.7,6.5-1.9,9.1-3.5
	c0.2,0.9,0.5,1.8,0.8,2.7c-1.6,2.4-3.5,4.7-5.7,6.9c-7.9,7.9-17.5,12.1-25.8,12c7.7,1.8,17.3,0.1,26.1-5.3c3.4-2,6.3-4.4,8.8-7.1
	c0,0,0.1,0.1,0.1,0.1c-0.2,2.3-1,4.7-2.5,6.9c-2.2,3.2-5.3,5.1-8.3,5.4c2.9,0.4,6.1-0.6,8.9-2.9c0.4-0.3,0.8-0.7,1.1-1.1
	c-0.3,0.8-0.6,1.7-0.9,2.5c-5.1,5.7-13.5,10.1-23.4,11.5c-11,1.6-21.3-0.9-27.8-5.9c5.1,6,13.8,10.5,24,11.5
	c5.7,0.6,11.1,0,15.8-1.4c-7.4,6.6-16.1,10.1-23.7,10c7.7,1.8,17.3,0.1,26.1-5.3c2.6-1.6,5-3.4,7.1-5.4c-4,6.1-10.5,11.5-18.7,14.9
	c-10.8,4.6-21.9,4.7-29.9,1c6.7,5.1,16.8,7.6,27.5,6c3-0.4,5.8-1.2,8.5-2.2c-4.1,1.7-8.6,3-13.4,3.7c-13.1,1.9-25.3-1.1-33.1-7.1
	c6,7.2,16.4,12.5,28.5,13.7c9.6,1,18.6-0.8,25.5-4.4c-3.6,3.2-8,6-12.9,8.3c-12,5.6-24.6,6.2-33.8,2.7c7.8,5.1,19.3,7.3,31.3,5
	c7.8-1.5,14.6-4.6,19.9-8.7c-4.3,5.1-10.3,9.6-17.4,12.9c-12,5.6-24.6,6.2-33.8,2.7c7.8,5.1,19.3,7.3,31.3,5
	c9.4-1.8,17.4-6,23.1-11.4c-1.6,4.5-4.7,9.3-9.1,13.8c-6.5,6.7-14.4,11.1-20.9,12.1c6,0.2,13.7-2.3,20.9-7.3c0.3-0.2,0.7-0.5,1-0.7
	c-7.1,6.8-16.9,12.4-28.6,15.6c-16.9,4.5-33.4,2.6-44.6-4c9,8.4,23.4,13.8,39.6,13.5c13.2-0.3,25.1-4.2,33.8-10.5
	c-5.5,5.9-12.7,11.1-21.2,15c-15.9,7.3-32.5,8.2-44.6,3.6c10.3,6.8,25.4,9.6,41.3,6.5c10.2-2,19.3-6.1,26.3-11.5
	c-5.7,6.7-13.6,12.6-23,17c-15.9,7.3-32.5,8.2-44.6,3.6c10.3,6.8,25.4,9.6,41.3,6.5c14.4-2.8,26.5-9.8,33.9-18.7
	c-0.4,1.5-1.1,2.9-2,4.3c-2.2,3.2-5.3,5.1-8.3,5.4c2.4,0.3,5.2-0.3,7.7-2c-6.4,13.2-19.4,25.7-36.8,33.7
	c-19.6,9.1-40.1,10.2-55.1,4.4c12.7,8.4,31.4,11.8,51,8.1c12.1-2.3,22.8-7,31.3-13.3c-6.9,7.7-16.2,14.5-27.2,19.6
	c-19.6,9.1-40.1,10.2-55.1,4.4c12.7,8.4,31.4,11.8,51,8.1c20.3-3.9,36.8-14.7,45.3-27.8l0,2c-0.2,2.1-1,4.4-2.5,6.5
	c-2.2,3.2-5.3,5.1-8.3,5.4c2.9,0.4,6.1-0.6,8.9-2.9c0.7-0.6,1.3-1.2,1.9-1.9l0.1,36.3h6.2l-0.9-45.3c8.5,13.2,25,23.9,45.3,27.8
	c19.6,3.8,38.2,0.3,51-8.1C1451,1055.2,1430.6,1054.1,1410.9,1045z M1371.1,984.3c0.1,0.1,0.2,0.2,0.2,0.3c0,0.1-0.1,0.2-0.1,0.3
	C1371.2,984.6,1371.1,984.5,1371.1,984.3z"/>
<path class="st0" d="M1468.5,1027.6c-6.3-2.9-12.1-6.4-17.3-10.2c2.5,0.6,5,0.7,7.2,0.2c-4.3,0-8.9-2.3-12.4-6.6
	c7.8,4.5,16.9,7.9,26.8,9.8c21.2,4.1,41.3,0.3,55.1-8.7c-16.2,6.2-38.3,5-59.5-4.8c-14.7-6.8-26.5-16.5-34.2-27.2
	c3.6,1.9,7.6,2.5,11.1,1.7c-4.3,0-9-2.3-12.5-6.8c-2.2-2.9-3.6-6.1-4.1-9.3c8.1,8,19.8,14.3,33.6,16.9c17.1,3.3,33.5,0.3,44.6-7.1
	c-13.1,5-31,4.1-48.2-3.9c-8.6-4-16-9.2-21.8-15.1c6.7,4.2,14.8,7.4,23.6,9.1c17.1,3.3,33.5,0.3,44.6-7.1c-13.1,5-31,4.1-48.2-3.9
	c-6.2-2.8-11.7-6.3-16.4-10.2c9.4,4,20.8,5.8,32.9,4.6c17.4-1.8,32.1-9.3,40.7-19.6c-11.1,8.6-28.5,12.8-47.3,10.1
	c-21.2-3-38.1-13.8-45.1-27.2l-0.1-2.8c4.2,5.3,9.9,10.2,16.8,13.8c11.7,6.1,24.2,7.5,33.9,4.6c-10.6,0.8-23.4-3.8-34.1-13.3
	c-3.1-2.7-5.7-5.6-8-8.6c5.8,4.5,13.3,8,21.8,9.6c13,2.5,25.3,0.2,33.8-5.4c-9.9,3.8-23.5,3.1-36.5-2.9c-5.6-2.6-10.6-5.9-14.6-9.6
	c4.4,2.3,9.3,4,14.7,5.1c13,2.5,25.3,0.2,33.8-5.4c-9.9,3.8-23.5,3.1-36.5-2.9c-5.3-2.5-10-5.5-13.9-9c7.5,3.9,17.2,5.8,27.6,4.7
	c13.1-1.3,24.3-7.1,30.8-14.8c-8.4,6.5-21.6,9.7-35.8,7.6c-15.1-2.2-27.4-9.6-33.2-18.9c-0.4-1-0.9-1.9-1.4-2.8
	c-0.1-0.3-0.1-0.7-0.2-1l-0.1-4c3.4,3.6,8.5,6.5,14.6,7.6c7.2,1.4,14,0.1,18.7-3c-5.5,2.1-13,1.7-20.2-1.6
	c-6.2-2.9-10.9-7.3-13.3-12l0-1.4c5,9.5,18.5,15.5,33.8,14c11-1.1,20.4-5.9,25.9-12.4c-7.1,5.5-18.2,8.1-30.1,6.4
	c-12.3-1.8-22.3-7.6-27.4-15.1c0.1-0.4,0.1-0.8,0.2-1.2c2.4,2.1,5.2,4,8.2,5.6c9.8,5.2,20.3,6.4,28.4,4.1
	c-7.4,0.5-16.1-2.2-23.9-7.7c8.8,3.8,17.9,4.6,25.1,2.5c-8.9,0.6-19.6-3.4-28.6-11.4c-3.9-3.5-7-7.4-9.4-11.4
	c0.2-0.4,0.3-0.8,0.5-1.1c3.2,2.5,7.4,4.4,12.1,5.3c7.2,1.4,14,0.1,18.7-3c-5.5,2.1-13,1.7-20.2-1.6c-3.6-1.7-6.7-3.8-9.1-6.3
	c0.1-0.4,0.1-0.8,0.2-1.2c2.9,1.9,6.5,3.4,10.4,4.1c7.2,1.4,14,0.1,18.7-3c-3.9,1.5-8.9,1.7-14.1,0.5c5.9,0.5,11.3-0.8,15.2-3.4
	c-5.5,2.1-13,1.7-20.2-1.6c-8.3-3.8-13.9-10.4-14.9-16.7c1.2,1.2,2.5,2.4,4.1,3.3c4.6,3,9.7,4,13.8,3.2c-4.4-0.1-9.5-2.4-13.6-6.8
	c-2.5-2.7-4.3-5.6-5.2-8.6l-0.1-2.9c2.5,3,6.6,5.3,11.4,6.3c5.4,1,10.5,0.1,14-2.2c-4.1,1.6-9.7,1.3-15.1-1.2
	c-4.7-2.2-8.3-5.6-10.1-9.2c0-0.7,0-1.4-0.1-2.1c-0.1-0.4-0.2-0.7-0.3-1.1l0-0.8c1.6,1.9,4.2,3.5,7.4,4.1c3.4,0.7,6.7,0.1,8.9-1.4
	c-2.6,1-6.2,0.8-9.6-0.8c-2.9-1.3-5-3.3-6.2-5.5c0.1-1.1,0.1-2.2-0.2-3.1c1.6,1.8,4.1,3.2,7.1,3.8c3.4,0.7,6.7,0.1,8.9-1.4
	c-2.6,1-6.2,0.8-9.6-0.8c-2.1-1-3.9-2.3-5.1-3.9c1.9,1.3,4.5,2.1,7.3,2.1c3.5,0,6.5-1.2,8.5-3.1c-2.4,1.5-5.9,2-9.6,1.1
	c-1.9-0.5-3.6-1.2-5-2.2c0,0,0.1,0,0.1,0c1.4,0,2.6-1.1,3.4-2.7c-1,1.3-2.4,1.8-3.8,0.9c-1.2-0.7-2.2-2-2.8-3.6l0-1.9
	c1.8,2.4,5.2,4,9.2,4c3.5,0,6.5-1.2,8.5-3.1c-2.4,1.5-5.9,2-9.6,1.1c-3.9-1-7-3.3-8.2-5.9c-0.1-0.6-0.2-1.2-0.5-1.8
	c0,0.1,0,0.1,0,0.2l-0.1-0.2l0,0c0,0,0,0,0,0c-0.3,0.6-0.5,1.2-0.6,1.8l0,0v0c0,0.1,0,0.2,0,0.4c-1.2,2.5-3.7,4.6-6.9,5.5
	c-3.1,0.9-6.2,0.4-8.2-1.1c1.6,1.9,4.3,3.1,7.3,3.1c3.4,0,6.3-1.6,7.9-3.8l0,3.3c0,0.1,0,0.1,0,0.2c-1.2,2.6-4.3,4.9-8.2,5.9
	c-3.7,0.9-7.2,0.4-9.6-1.1c1.9,1.9,5,3.1,8.5,3.1c2.9,0,5.4-0.8,7.3-2.1c-1.2,1.5-3,2.9-5.1,3.9c-3.4,1.6-7,1.8-9.6,0.8
	c2.2,1.5,5.5,2.1,8.9,1.4c3.1-0.6,5.7-2.1,7.3-4c0.4,2.3,0.1,5-1.1,7.7c-1.5,3.5-4,6-6.7,6.9c2.5-0.4,5.3-2,7.4-4.6
	c0,0.3,0,0.5,0,0.8c-0.6,1.1-1.3,2.2-2.2,3.3c-0.2,0-0.3-0.1-0.5-0.1c0.1,0.1,0.2,0.2,0.3,0.3c-1.9,2.2-4.6,4.2-7.7,5.7
	c-5.4,2.5-11,2.8-15.1,1.2c3.5,2.3,8.6,3.3,14,2.2c4-0.8,7.5-2.5,10-4.8c0,1,0.2,2,0.5,3c-0.2,1.3-0.6,2.7-1.1,4
	c-1.5,3.5-4,6-6.7,6.9c2.6-0.4,5.5-2.1,7.6-4.8c0.1-0.1,0.2-0.3,0.3-0.4c-2.2,5.1-7.1,9.9-13.8,13c-7.2,3.3-14.7,3.7-20.2,1.6
	c4.7,3.1,11.5,4.3,18.7,3c5.6-1.1,10.4-3.5,13.7-6.8c-0.1,0.2-0.2,0.3-0.3,0.5c-0.1,0.1-0.2,0.3-0.2,0.4c-2.6,3.7-6.7,7-11.7,9.4
	c-7.2,3.3-14.7,3.7-20.2,1.6c4.7,3.1,11.5,4.3,18.7,3c4-0.8,7.6-2.3,10.5-4.2c-0.2,0.8-0.2,1.6-0.3,2.4c-2.2,2-4.9,3.7-7.9,5.1
	c-7.2,3.3-14.7,3.7-20.2,1.6c4.7,3.1,11.5,4.3,18.7,3c3.7-0.7,7-2,9.9-3.8c0.2,1,0.5,1.9,0.8,2.9c-1.7,2.6-3.8,5.1-6.1,7.5
	c-8.5,8.5-19,13.1-27.9,13c8.3,1.9,18.7,0.1,28.2-5.7c3.6-2.2,6.8-4.8,9.5-7.6c0,0,0.1,0.1,0.1,0.1c-0.2,2.5-1.1,5.1-2.7,7.4
	c-2.4,3.4-5.8,5.5-8.9,5.8c3.1,0.4,6.6-0.6,9.6-3.1c0.4-0.4,0.9-0.8,1.2-1.2c-0.3,0.9-0.6,1.8-1,2.7c-5.5,6.2-14.5,10.9-25.3,12.5
	c-11.9,1.7-23-1-30.1-6.4c5.5,6.5,14.9,11.3,25.9,12.4c6.1,0.6,12,0,17.1-1.5c-8,7.1-17.4,10.9-25.6,10.8c8.3,1.9,18.7,0.1,28.2-5.7
	c2.8-1.7,5.4-3.7,7.7-5.8c-4.3,6.5-11.4,12.4-20.2,16.1c-11.7,5-23.7,5-32.3,1.1c7.3,5.5,18.1,8.2,29.7,6.5c3.2-0.5,6.3-1.3,9.2-2.3
	c-4.4,1.9-9.3,3.2-14.5,4c-14.2,2-27.4-1.1-35.8-7.6c6.5,7.7,17.7,13.5,30.8,14.8c10.3,1,20-0.8,27.6-4.7c-3.9,3.4-8.6,6.5-13.9,9
	c-13,6-26.6,6.7-36.5,2.9c8.4,5.6,20.8,7.8,33.8,5.4c8.4-1.6,15.8-5,21.5-9.4c-4.7,5.5-11.1,10.3-18.8,13.9c-13,6-26.6,6.7-36.5,2.9
	c8.4,5.6,20.8,7.8,33.8,5.4c10.1-1.9,18.8-6.5,24.9-12.3c-1.7,4.8-5.1,10.1-9.8,14.9c-7,7.3-15.5,11.9-22.6,13.1
	c6.5,0.2,14.8-2.5,22.5-7.9c0.4-0.3,0.7-0.5,1.1-0.8c-7.6,7.4-18.3,13.4-30.9,16.8c-18.3,4.9-36.1,2.8-48.1-4.4
	c9.8,9.1,25.3,14.9,42.8,14.5c14.3-0.3,27.1-4.6,36.5-11.3c-6,6.3-13.7,11.9-22.9,16.2c-17.2,7.9-35.1,8.9-48.2,3.9
	c11.2,7.3,27.5,10.4,44.6,7.1c11.1-2.1,20.8-6.6,28.4-12.4c-6.2,7.2-14.6,13.7-24.9,18.4c-17.2,7.9-35.1,8.9-48.2,3.9
	c11.2,7.3,27.5,10.4,44.6,7.1c15.6-3,28.6-10.6,36.6-20.2c-0.4,1.6-1.2,3.2-2.2,4.7c-2.4,3.4-5.8,5.5-8.9,5.8
	c2.6,0.3,5.6-0.4,8.3-2.1c-6.9,14.3-20.9,27.7-39.8,36.4c-21.2,9.8-43.3,11-59.5,4.8c13.8,9.1,33.9,12.8,55.1,8.7
	c13-2.5,24.6-7.6,33.8-14.3c-7.5,8.3-17.5,15.7-29.4,21.2c-21.2,9.8-43.3,11-59.5,4.8c13.8,9.1,33.9,12.8,55.1,8.7
	c22-4.2,39.8-15.8,49-30.1l0,2.1c-0.2,2.3-1.1,4.8-2.7,7c-2.4,3.4-5.8,5.5-8.9,5.8c3.1,0.4,6.6-0.6,9.6-3.1c0.8-0.6,1.4-1.3,2-2.1
	l0.1,39.2h6.7l-1-48.9c9.2,14.2,27,25.8,48.9,30c21.2,4.1,41.3,0.3,55.1-8.7C1511.8,1038.6,1489.7,1037.4,1468.5,1027.6z
	 M1425.4,962c0.1,0.1,0.2,0.2,0.3,0.3c0,0.1-0.1,0.2-0.1,0.3C1425.5,962.4,1425.5,962.2,1425.4,962z"/>
<path class="st0" d="M638.5,963.6c-6.3-2.9-12.1-6.4-17.3-10.2c2.5,0.6,5,0.7,7.2,0.2c-4.3,0-8.9-2.3-12.4-6.6
	c7.8,4.5,16.9,7.9,26.8,9.8c21.2,4.1,41.3,0.3,55.1-8.7c-16.2,6.2-38.3,5-59.5-4.8c-14.7-6.8-26.5-16.5-34.2-27.2
	c3.6,1.9,7.6,2.5,11.1,1.7c-4.3,0-9-2.3-12.5-6.8c-2.2-2.9-3.6-6.1-4.1-9.3c8.1,8,19.8,14.3,33.6,16.9c17.1,3.3,33.5,0.3,44.6-7.1
	c-13.1,5-31,4.1-48.2-3.9c-8.6-4-16-9.2-21.8-15.1c6.7,4.2,14.8,7.4,23.6,9.1c17.1,3.3,33.5,0.3,44.6-7.1c-13.1,5-31,4.1-48.2-3.9
	c-6.2-2.8-11.7-6.3-16.4-10.2c9.4,4,20.8,5.8,32.9,4.6c17.4-1.8,32.1-9.3,40.7-19.6c-11.1,8.6-28.5,12.8-47.3,10.1
	c-21.2-3-38.1-13.8-45.1-27.2l-0.1-2.8c4.2,5.3,9.9,10.2,16.8,13.8c11.7,6.1,24.2,7.5,33.9,4.6c-10.6,0.8-23.4-3.8-34.1-13.3
	c-3.1-2.7-5.7-5.6-8-8.6c5.8,4.5,13.3,8,21.8,9.6c13,2.5,25.3,0.2,33.8-5.4c-9.9,3.8-23.5,3.1-36.5-2.9c-5.6-2.6-10.6-5.9-14.6-9.6
	c4.4,2.3,9.3,4,14.7,5.1c13,2.5,25.3,0.2,33.8-5.4c-9.9,3.8-23.5,3.1-36.5-2.9c-5.3-2.5-10-5.5-13.9-9c7.5,3.9,17.2,5.8,27.6,4.7
	c13.1-1.3,24.3-7.1,30.8-14.8c-8.4,6.5-21.6,9.7-35.8,7.6c-15.1-2.2-27.4-9.6-33.2-18.9c-0.4-1-0.9-1.9-1.4-2.8
	c-0.1-0.3-0.1-0.7-0.2-1l-0.1-4c3.4,3.6,8.5,6.5,14.6,7.6c7.2,1.4,14,0.1,18.7-3c-5.5,2.1-13,1.7-20.2-1.6
	c-6.2-2.9-10.9-7.3-13.3-12l0-1.4c5,9.5,18.5,15.5,33.8,14c11-1.1,20.4-5.9,25.9-12.4c-7.1,5.5-18.2,8.1-30.1,6.4
	c-12.3-1.8-22.3-7.6-27.4-15.1c0.1-0.4,0.1-0.8,0.2-1.2c2.4,2.1,5.2,4,8.2,5.6c9.8,5.2,20.3,6.4,28.4,4.1
	c-7.4,0.5-16.1-2.2-23.9-7.7c8.8,3.8,17.9,4.6,25.1,2.5c-8.9,0.6-19.6-3.4-28.6-11.4c-3.9-3.5-7-7.4-9.4-11.4
	c0.2-0.4,0.3-0.8,0.5-1.1c3.2,2.5,7.4,4.4,12.1,5.3c7.2,1.4,14,0.1,18.7-3c-5.5,2.1-13,1.7-20.2-1.6c-3.6-1.7-6.7-3.8-9.1-6.3
	c0.1-0.4,0.1-0.8,0.2-1.2c2.9,1.9,6.5,3.4,10.4,4.1c7.2,1.4,14,0.1,18.7-3c-3.9,1.5-8.9,1.7-14.1,0.5c5.9,0.5,11.3-0.8,15.2-3.4
	c-5.5,2.1-13,1.7-20.2-1.6c-8.3-3.8-13.9-10.4-14.9-16.7c1.2,1.2,2.5,2.4,4.1,3.3c4.6,3,9.7,4,13.8,3.2c-4.4-0.1-9.5-2.4-13.6-6.8
	c-2.5-2.7-4.3-5.6-5.2-8.6l-0.1-2.9c2.5,3,6.6,5.3,11.4,6.3c5.4,1,10.5,0.1,14-2.2c-4.1,1.6-9.7,1.3-15.1-1.2
	c-4.7-2.2-8.3-5.6-10.1-9.2c0-0.7,0-1.4-0.1-2.1c-0.1-0.4-0.2-0.7-0.3-1.1l0-0.8c1.6,1.9,4.2,3.5,7.4,4.1c3.4,0.7,6.7,0.1,8.9-1.4
	c-2.6,1-6.2,0.8-9.6-0.8c-2.9-1.3-5-3.3-6.2-5.5c0.1-1.1,0.1-2.2-0.2-3.1c1.6,1.8,4.1,3.2,7.1,3.8c3.4,0.7,6.7,0.1,8.9-1.4
	c-2.6,1-6.2,0.8-9.6-0.8c-2.1-1-3.9-2.3-5.1-3.9c1.9,1.3,4.5,2.1,7.3,2.1c3.5,0,6.5-1.2,8.5-3.1c-2.4,1.5-5.9,2-9.6,1.1
	c-1.9-0.5-3.6-1.2-5-2.2c0,0,0.1,0,0.1,0c1.4,0,2.6-1.1,3.4-2.7c-1,1.3-2.4,1.8-3.8,0.9c-1.2-0.7-2.2-2-2.8-3.6l0-1.9
	c1.8,2.4,5.2,4,9.2,4c3.5,0,6.5-1.2,8.5-3.1c-2.4,1.5-5.9,2-9.6,1.1c-3.9-1-7-3.3-8.2-5.9c-0.1-0.6-0.2-1.2-0.5-1.8
	c0,0.1,0,0.1,0,0.2l-0.1-0.2l0,0c0,0,0,0,0,0c-0.3,0.6-0.5,1.2-0.6,1.8l0,0l0,0c0,0.1,0,0.2,0,0.4c-1.2,2.5-3.7,4.6-6.9,5.5
	c-3.1,0.9-6.2,0.4-8.2-1.1c1.6,1.9,4.3,3.1,7.3,3.1c3.4,0,6.3-1.6,7.9-3.8l0,3.3c0,0.1,0,0.1,0,0.2c-1.2,2.6-4.3,4.9-8.2,5.9
	c-3.7,0.9-7.2,0.4-9.6-1.1c1.9,1.9,5,3.1,8.5,3.1c2.9,0,5.4-0.8,7.3-2.1c-1.2,1.5-3,2.9-5.1,3.9c-3.4,1.6-7,1.8-9.6,0.8
	c2.2,1.5,5.5,2.1,8.9,1.4c3.1-0.6,5.7-2.1,7.3-4c0.4,2.3,0.1,5-1.1,7.7c-1.5,3.5-4,6-6.7,6.9c2.5-0.4,5.3-2,7.4-4.6
	c0,0.3,0,0.5,0,0.8c-0.6,1.1-1.3,2.2-2.2,3.3c-0.2,0-0.3-0.1-0.5-0.1c0.1,0.1,0.2,0.2,0.3,0.3c-1.9,2.2-4.6,4.2-7.7,5.7
	c-5.4,2.5-11,2.8-15.1,1.2c3.5,2.3,8.6,3.3,14,2.2c4-0.8,7.5-2.5,10-4.8c0,1,0.2,2,0.5,3c-0.2,1.3-0.6,2.7-1.1,4
	c-1.5,3.5-4,6-6.7,6.9c2.6-0.4,5.5-2.1,7.6-4.8c0.1-0.1,0.2-0.3,0.3-0.4c-2.2,5.1-7.1,9.9-13.8,13c-7.2,3.3-14.7,3.7-20.2,1.6
	c4.7,3.1,11.5,4.3,18.7,3c5.6-1.1,10.4-3.5,13.7-6.8c-0.1,0.2-0.2,0.3-0.3,0.5c-0.1,0.1-0.2,0.3-0.2,0.4c-2.6,3.7-6.7,7-11.7,9.4
	c-7.2,3.3-14.7,3.7-20.2,1.6c4.7,3.1,11.5,4.3,18.7,3c4-0.8,7.6-2.3,10.5-4.2c-0.2,0.8-0.2,1.6-0.3,2.4c-2.2,2-4.9,3.7-7.9,5.1
	c-7.2,3.3-14.7,3.7-20.2,1.6c4.7,3.1,11.5,4.3,18.7,3c3.7-0.7,7-2,9.9-3.8c0.2,1,0.5,1.9,0.8,2.9c-1.7,2.6-3.8,5.1-6.1,7.5
	c-8.5,8.5-19,13.1-27.9,13c8.3,1.9,18.7,0.1,28.2-5.7c3.6-2.2,6.8-4.8,9.5-7.6c0,0,0.1,0.1,0.1,0.1c-0.2,2.5-1.1,5.1-2.7,7.4
	c-2.4,3.4-5.8,5.5-8.9,5.8c3.1,0.4,6.6-0.6,9.6-3.1c0.4-0.4,0.9-0.8,1.2-1.2c-0.3,0.9-0.6,1.8-1,2.7c-5.5,6.2-14.5,10.9-25.3,12.5
	c-11.9,1.7-23-1-30.1-6.4c5.5,6.5,14.9,11.3,25.9,12.4c6.1,0.6,12,0,17.1-1.5c-8,7.1-17.4,10.9-25.6,10.8c8.3,1.9,18.7,0.1,28.2-5.7
	c2.8-1.7,5.4-3.7,7.7-5.8c-4.3,6.5-11.4,12.4-20.2,16.1c-11.7,5-23.7,5-32.3,1.1c7.3,5.5,18.1,8.2,29.7,6.5c3.2-0.5,6.3-1.3,9.2-2.3
	c-4.4,1.9-9.3,3.2-14.5,4c-14.2,2-27.4-1.1-35.8-7.6c6.5,7.7,17.7,13.5,30.8,14.8c10.3,1,20-0.8,27.6-4.7c-3.9,3.4-8.6,6.5-13.9,9
	c-13,6-26.6,6.7-36.5,2.9c8.4,5.6,20.8,7.8,33.8,5.4c8.4-1.6,15.8-5,21.5-9.4c-4.7,5.5-11.1,10.3-18.8,13.9c-13,6-26.6,6.7-36.5,2.9
	c8.4,5.6,20.8,7.8,33.8,5.4c10.1-1.9,18.8-6.5,24.9-12.3c-1.7,4.8-5.1,10.1-9.8,14.9c-7,7.3-15.5,11.9-22.6,13.1
	c6.5,0.2,14.8-2.5,22.5-7.9c0.4-0.3,0.7-0.5,1.1-0.8c-7.6,7.4-18.3,13.4-30.9,16.8c-18.3,4.9-36.1,2.8-48.1-4.4
	c9.8,9.1,25.3,14.9,42.8,14.5c14.3-0.3,27.1-4.6,36.5-11.3c-6,6.3-13.7,11.9-22.9,16.2c-17.2,7.9-35.1,8.9-48.2,3.9
	c11.2,7.3,27.5,10.4,44.6,7.1c11.1-2.1,20.8-6.6,28.4-12.4c-6.2,7.2-14.6,13.7-24.9,18.4c-17.2,7.9-35.1,8.9-48.2,3.9
	c11.2,7.3,27.5,10.4,44.6,7.1c15.6-3,28.6-10.6,36.6-20.2c-0.4,1.6-1.2,3.2-2.2,4.7c-2.4,3.4-5.8,5.5-8.9,5.8
	c2.6,0.3,5.6-0.4,8.3-2.1c-6.9,14.3-20.9,27.7-39.8,36.4c-21.2,9.8-43.3,11-59.5,4.8c13.8,9.1,33.9,12.8,55.1,8.7
	c13-2.5,24.6-7.6,33.8-14.3c-7.5,8.3-17.5,15.7-29.4,21.2c-21.2,9.8-43.3,11-59.5,4.8c13.8,9.1,33.9,12.8,55.1,8.7
	c22-4.2,39.8-15.8,49-30.1l0,2.1c-0.2,2.3-1.1,4.8-2.7,7c-2.4,3.4-5.8,5.5-8.9,5.8c3.1,0.4,6.6-0.6,9.6-3.1c0.8-0.6,1.4-1.3,2-2.1
	l0.1,39.2h6.7l-1-48.9c9.2,14.2,27,25.8,48.9,30c21.2,4.1,41.3,0.3,55.1-8.7C681.8,974.6,659.7,973.4,638.5,963.6z M595.4,898
	c0.1,0.1,0.2,0.2,0.3,0.3c0,0.1-0.1,0.2-0.1,0.3C595.5,898.4,595.5,898.2,595.4,898z"/>
<path class="st0" d="M551.5,950.6c-6.3-2.9-12.1-6.4-17.3-10.2c2.5,0.6,5,0.7,7.2,0.2c-4.3,0-8.9-2.3-12.4-6.6
	c7.8,4.5,16.9,7.9,26.8,9.8c21.2,4.1,41.3,0.3,55.1-8.7c-16.2,6.2-38.3,5-59.5-4.8c-14.7-6.8-26.5-16.5-34.2-27.2
	c3.6,1.9,7.6,2.5,11.1,1.7c-4.3,0-9-2.3-12.5-6.8c-2.2-2.9-3.6-6.1-4.1-9.3c8.1,8,19.8,14.3,33.6,16.9c17.1,3.3,33.5,0.3,44.6-7.1
	c-13.1,5-31,4.1-48.2-3.9c-8.6-4-16-9.2-21.8-15.1c6.7,4.2,14.8,7.4,23.6,9.1c17.1,3.3,33.5,0.3,44.6-7.1c-13.1,5-31,4.1-48.2-3.9
	c-6.2-2.8-11.7-6.3-16.4-10.2c9.4,4,20.8,5.8,32.9,4.6c17.4-1.8,32.1-9.3,40.7-19.6c-11.1,8.6-28.5,12.8-47.3,10.1
	c-21.2-3-38.1-13.8-45.1-27.2l-0.1-2.8c4.2,5.3,9.9,10.2,16.8,13.8c11.7,6.1,24.2,7.5,33.9,4.6c-10.6,0.8-23.4-3.8-34.1-13.3
	c-3.1-2.7-5.7-5.6-8-8.6c5.8,4.5,13.3,8,21.8,9.6c13,2.5,25.3,0.2,33.8-5.4c-9.9,3.8-23.5,3.1-36.5-2.9c-5.6-2.6-10.6-5.9-14.6-9.6
	c4.4,2.3,9.3,4,14.7,5.1c13,2.5,25.3,0.2,33.8-5.4c-9.9,3.8-23.5,3.1-36.5-2.9c-5.3-2.5-10-5.5-13.9-9c7.5,3.9,17.2,5.8,27.6,4.7
	c13.1-1.3,24.3-7.1,30.8-14.8c-8.4,6.5-21.6,9.7-35.8,7.6c-15.1-2.2-27.4-9.6-33.2-18.9c-0.4-1-0.9-1.9-1.4-2.8
	c-0.1-0.3-0.1-0.7-0.2-1l-0.1-4c3.4,3.6,8.5,6.5,14.6,7.6c7.2,1.4,14,0.1,18.7-3c-5.5,2.1-13,1.7-20.2-1.6
	c-6.2-2.9-10.9-7.3-13.3-12l0-1.4c5,9.5,18.5,15.5,33.8,14c11-1.1,20.4-5.9,25.9-12.4c-7.1,5.5-18.2,8.1-30.1,6.4
	c-12.3-1.8-22.3-7.6-27.4-15.1c0.1-0.4,0.1-0.8,0.2-1.2c2.4,2.1,5.2,4,8.2,5.6c9.8,5.2,20.3,6.4,28.4,4.1
	c-7.4,0.5-16.1-2.2-23.9-7.7c8.8,3.8,17.9,4.6,25.1,2.5c-8.9,0.6-19.6-3.4-28.6-11.4c-3.9-3.5-7-7.4-9.4-11.4
	c0.2-0.4,0.3-0.8,0.5-1.1c3.2,2.5,7.4,4.4,12.1,5.3c7.2,1.4,14,0.1,18.7-3c-5.5,2.1-13,1.7-20.2-1.6c-3.6-1.7-6.7-3.8-9.1-6.3
	c0.1-0.4,0.1-0.8,0.2-1.2c2.9,1.9,6.5,3.4,10.4,4.1c7.2,1.4,14,0.1,18.7-3c-3.9,1.5-8.9,1.7-14.1,0.5c5.9,0.5,11.3-0.8,15.2-3.4
	c-5.5,2.1-13,1.7-20.2-1.6c-8.3-3.8-13.9-10.4-14.9-16.7c1.2,1.2,2.5,2.4,4.1,3.3c4.6,3,9.7,4,13.8,3.2c-4.4-0.1-9.5-2.4-13.6-6.8
	c-2.5-2.7-4.3-5.6-5.2-8.6l-0.1-2.9c2.5,3,6.6,5.3,11.4,6.3c5.4,1,10.5,0.1,14-2.2c-4.1,1.6-9.7,1.3-15.1-1.2
	c-4.7-2.2-8.3-5.6-10.1-9.2c0-0.7,0-1.4-0.1-2.1c-0.1-0.4-0.2-0.7-0.3-1.1l0-0.8c1.6,1.9,4.2,3.5,7.4,4.1c3.4,0.7,6.7,0.1,8.9-1.4
	c-2.6,1-6.2,0.8-9.6-0.8c-2.9-1.3-5-3.3-6.2-5.5c0.1-1.1,0.1-2.2-0.2-3.1c1.6,1.8,4.1,3.2,7.1,3.8c3.4,0.7,6.7,0.1,8.9-1.4
	c-2.6,1-6.2,0.8-9.6-0.8c-2.1-1-3.9-2.3-5.1-3.9c1.9,1.3,4.5,2.1,7.3,2.1c3.5,0,6.5-1.2,8.5-3.1c-2.4,1.5-5.9,2-9.6,1.1
	c-1.9-0.5-3.6-1.2-5-2.2c0,0,0.1,0,0.1,0c1.4,0,2.6-1.1,3.4-2.7c-1,1.3-2.4,1.8-3.8,0.9c-1.2-0.7-2.2-2-2.8-3.6l0-1.9
	c1.8,2.4,5.2,4,9.2,4c3.5,0,6.5-1.2,8.5-3.1c-2.4,1.5-5.9,2-9.6,1.1c-3.9-1-7-3.3-8.2-5.9c-0.1-0.6-0.2-1.2-0.5-1.8
	c0,0.1,0,0.1,0,0.2l-0.1-0.2l0,0c0,0,0,0,0,0c-0.3,0.6-0.5,1.2-0.6,1.8l0,0l0,0c0,0.1,0,0.2,0,0.4c-1.2,2.5-3.7,4.6-6.9,5.5
	c-3.1,0.9-6.2,0.4-8.2-1.1c1.6,1.9,4.3,3.1,7.3,3.1c3.4,0,6.3-1.6,7.9-3.8l0,3.3c0,0.1,0,0.1,0,0.2c-1.2,2.6-4.3,4.9-8.2,5.9
	c-3.7,0.9-7.2,0.4-9.6-1.1c1.9,1.9,5,3.1,8.5,3.1c2.9,0,5.4-0.8,7.3-2.1c-1.2,1.5-3,2.9-5.1,3.9c-3.4,1.6-7,1.8-9.6,0.8
	c2.2,1.5,5.5,2.1,8.9,1.4c3.1-0.6,5.7-2.1,7.3-4c0.4,2.3,0.1,5-1.1,7.7c-1.5,3.5-4,6-6.7,6.9c2.5-0.4,5.3-2,7.4-4.6
	c0,0.3,0,0.5,0,0.8c-0.6,1.1-1.3,2.2-2.2,3.3c-0.2,0-0.3-0.1-0.5-0.1c0.1,0.1,0.2,0.2,0.3,0.3c-1.9,2.2-4.6,4.2-7.7,5.7
	c-5.4,2.5-11,2.8-15.1,1.2c3.5,2.3,8.6,3.3,14,2.2c4-0.8,7.5-2.5,10-4.8c0,1,0.2,2,0.5,3c-0.2,1.3-0.6,2.7-1.1,4
	c-1.5,3.5-4,6-6.7,6.9c2.6-0.4,5.5-2.1,7.6-4.8c0.1-0.1,0.2-0.3,0.3-0.4c-2.2,5.1-7.1,9.9-13.8,13c-7.2,3.3-14.7,3.7-20.2,1.6
	c4.7,3.1,11.5,4.3,18.7,3c5.6-1.1,10.4-3.5,13.7-6.8c-0.1,0.2-0.2,0.3-0.3,0.5c-0.1,0.1-0.2,0.3-0.2,0.4c-2.6,3.7-6.7,7-11.7,9.4
	c-7.2,3.3-14.7,3.7-20.2,1.6c4.7,3.1,11.5,4.3,18.7,3c4-0.8,7.6-2.3,10.5-4.2c-0.2,0.8-0.2,1.6-0.3,2.4c-2.2,2-4.9,3.7-7.9,5.1
	c-7.2,3.3-14.7,3.7-20.2,1.6c4.7,3.1,11.5,4.3,18.7,3c3.7-0.7,7-2,9.9-3.8c0.2,1,0.5,1.9,0.8,2.9c-1.7,2.6-3.8,5.1-6.1,7.5
	c-8.5,8.5-19,13.1-27.9,13c8.3,1.9,18.7,0.1,28.2-5.7c3.6-2.2,6.8-4.8,9.5-7.6c0,0,0.1,0.1,0.1,0.1c-0.2,2.5-1.1,5.1-2.7,7.4
	c-2.4,3.4-5.8,5.5-8.9,5.8c3.1,0.4,6.6-0.6,9.6-3.1c0.4-0.4,0.9-0.8,1.2-1.2c-0.3,0.9-0.6,1.8-1,2.7c-5.5,6.2-14.5,10.9-25.3,12.5
	c-11.9,1.7-23-1-30.1-6.4c5.5,6.5,14.9,11.3,25.9,12.4c6.1,0.6,12,0,17.1-1.5c-8,7.1-17.4,10.9-25.6,10.8c8.3,1.9,18.7,0.1,28.2-5.7
	c2.8-1.7,5.4-3.7,7.7-5.8c-4.3,6.5-11.4,12.4-20.2,16.1c-11.7,5-23.7,5-32.3,1.1c7.3,5.5,18.1,8.2,29.7,6.5c3.2-0.5,6.3-1.3,9.2-2.3
	c-4.4,1.9-9.3,3.2-14.5,4c-14.2,2-27.4-1.1-35.8-7.6c6.5,7.7,17.7,13.5,30.8,14.8c10.3,1,20-0.8,27.6-4.7c-3.9,3.4-8.6,6.5-13.9,9
	c-13,6-26.6,6.7-36.5,2.9c8.4,5.6,20.8,7.8,33.8,5.4c8.4-1.6,15.8-5,21.5-9.4c-4.7,5.5-11.1,10.3-18.8,13.9c-13,6-26.6,6.7-36.5,2.9
	c8.4,5.6,20.8,7.8,33.8,5.4c10.1-1.9,18.8-6.5,24.9-12.3c-1.7,4.8-5.1,10.1-9.8,14.9c-7,7.3-15.5,11.9-22.6,13.1
	c6.5,0.2,14.8-2.5,22.5-7.9c0.4-0.3,0.7-0.5,1.1-0.8c-7.6,7.4-18.3,13.4-30.9,16.8c-18.3,4.9-36.1,2.8-48.1-4.4
	c9.8,9.1,25.3,14.9,42.8,14.5c14.3-0.3,27.1-4.6,36.5-11.3c-6,6.3-13.7,11.9-22.9,16.2c-17.2,7.9-35.1,8.9-48.2,3.9
	c11.2,7.3,27.5,10.4,44.6,7.1c11.1-2.1,20.8-6.6,28.4-12.4c-6.2,7.2-14.6,13.7-24.9,18.4c-17.2,7.9-35.1,8.9-48.2,3.9
	c11.2,7.3,27.5,10.4,44.6,7.1c15.6-3,28.6-10.6,36.6-20.2c-0.4,1.6-1.2,3.2-2.2,4.7c-2.4,3.4-5.8,5.5-8.9,5.8
	c2.6,0.3,5.6-0.4,8.3-2.1c-6.9,14.3-20.9,27.7-39.8,36.4c-21.2,9.8-43.3,11-59.5,4.8c13.8,9.1,33.9,12.8,55.1,8.7
	c13-2.5,24.6-7.6,33.8-14.3c-7.5,8.3-17.5,15.7-29.4,21.2c-21.2,9.8-43.3,11-59.5,4.8c13.8,9.1,33.9,12.8,55.1,8.7
	c22-4.2,39.8-15.8,49-30.1l0,2.1c-0.2,2.3-1.1,4.8-2.7,7c-2.4,3.4-5.8,5.5-8.9,5.8c3.1,0.4,6.6-0.6,9.6-3.1c0.8-0.6,1.4-1.3,2-2.1
	l0.1,39.2h6.7l-1-48.9c9.2,14.2,27,25.8,48.9,30c21.2,4.1,41.3,0.3,55.1-8.7C594.8,961.6,572.7,960.4,551.5,950.6z M508.4,885
	c0.1,0.1,0.2,0.2,0.3,0.3c0,0.1-0.1,0.2-0.1,0.3C508.5,885.4,508.5,885.2,508.4,885z"/>
</svg>
