<?xml version="1.0" encoding="utf-8"?>
<!-- Generator: Adobe Illustrator 21.1.0, SVG Export Plug-In . SVG Version: 6.00 Build 0)  -->
<svg version="1.1" id="Fourth" xmlns="http://www.w3.org/2000/svg" xmlns:xlink="http://www.w3.org/1999/xlink" x="0px" y="0px"
	 viewBox="0 0 1920 1080" style="enable-background:new 0 0 1920 1080;" xml:space="preserve">
<style type="text/css">
	.st0{fill:#5C1715;}
</style>
<path class="st0" d="M0,723.6l460,0.4h107.6c0.3,0,0.5,0,0.8-0.1l100.9-31.4c3-0.9,6.3-0.8,9.2,0.5l33.4,14.6
	c0.7,0.3,1.2,0.9,1.4,1.6l9.4,32c0.2,0.6,0.5,1.1,1,1.4l36.1,24.4c0.1,0,0.1,0.1,0.2,0.1l39.8,32c0.7,0.6,1.7,0.7,2.6,0.4L859,777
	l39-16l31.3-14.7c0.5-0.2,1-0.3,1.5-0.2l53.1,9.5c1.2,0.2,2.1,1.3,2.1,2.5v27.4c0,0.3,0,0.5-0.1,0.8l-7.5,22.4
	c-0.3,0.8-0.1,1.6,0.3,2.2l7.1,10.6c0.1,0.2,0.2,0.4,0.3,0.7l2.3,7.8c0.3,1.1,1.3,1.8,2.5,1.8h18.4c0.5,0,1,0.1,1.4,0.4l49.9,31.3
	c0.3,0.2,0.7,0.3,1,0.4l45.9,5.9c0.4,0,0.8,0,1.1-0.1l69.3-22.8c0.1,0,0.2-0.1,0.3-0.1l33.4-6.9c0.3-0.1,0.6-0.1,0.9,0l40.1,6.9
	c0.3,0,0.5,0,0.8,0l90.7-12.8c0.6-0.1,1.1-0.4,1.5-0.8l73.1-79c0.2-0.2,0.3-0.4,0.4-0.7l28.6-62.1c0.2-0.4,0.4-0.7,0.7-0.9l12.7-10
	c0.5-0.4,0.8-1,0.9-1.6l10.7-65c0.1-0.6,0.5-1.2,1-1.6l19.5-14.9c0.4-0.3,0.8-0.8,0.9-1.3l15.7-55.8c0.1-0.2,0.1-0.5,0.1-0.7v-13.6
	c0-0.1,0-0.1,0-0.2l0.9-13.5c0.1-0.9,0.5-1.6,1.3-2.1l51.4-29.1c0.3-0.1,0.5-0.2,0.8-0.3l40.8-6.8c0.5-0.1,0.9-0.3,1.3-0.6
	l46.4-40.4c0.1-0.1,0.1-0.1,0.2-0.2l38.5-41.4c0.3-0.3,0.7-0.6,1.1-0.7l40.4-13.5c1.8-0.6,2.3-2.9,1-4.2l0,0
	c-0.7-0.7-0.9-1.6-0.7-2.5l5.2-18c0.3-0.9,1-1.6,2-1.8l23.1-4.6c0.3-0.1,0.5-0.2,0.8-0.3l41-23.4c0.4-0.3,0.8-0.6,1-1.1l4.3-8.5
	c0.2-0.5,0.7-0.9,1.1-1.1l6.4-3.2c0.5-0.3,1.1-0.3,1.6-0.2l13.4,2.7c0.5,0.1,1,0.3,1.3,0.7l7.2,7.2c0.2,0.2,0.4,0.3,0.6,0.4l7.6,4.2
	c0.7,0.4,1.5,0.4,2.2,0.1l13.7-5.5c0.1,0,0.2-0.1,0.4-0.1l41.8-9.7c0.7-0.2,1.4,0,2,0.3l8.9,5.7c0.7,0.5,1.2,1.3,1.2,2.2v761
	c0,1.4-1.1,2.6-2.6,2.6H2.6c-1.4,0-2.6-1.1-2.6-2.6V723.6"/>
<path class="st0" d="M682.4,850.3c-3.9-4.7-7.2-9.8-10.2-15.3c4.4,2.5,9,4.9,13.9,7.2c-6.1-4.5-11.9-9.4-17.5-14.5
	c-1.4-3.2-2.7-6.5-4-9.9c2.8,1,6,1.8,9.4,2.1c-8.8-10.7-15.2-23.8-19.8-38.6c4.7,5.6,10,11.3,15.6,17c-3.4-6.3-7-13.5-10.6-20.9
	c1.3,0,2.8-0.2,4.5-0.2c-3-1.5-5.2-3.2-7.2-5.4c-2.9-6.2-5.6-12.5-8.2-18.5c2.5,3.1,5.1,6.2,7.8,9.2c-4.8-8.2-9.1-16.7-12.8-25.5
	c3.3,1.6,7.4,2.7,11.9,3.2c-6.3-7.6-11.3-16.4-15.4-26.2c2.3,2.9,4.8,5.7,7.3,8.6c-3.6-6.1-6.8-12.3-9.8-18.6
	c0.8-0.1,1.6-0.1,2.5-0.2c-1.3-0.7-2.5-1.4-3.5-2.2c-0.8-1.9-1.7-3.8-2.5-5.7c2.3,0.9,4.7,1.2,6.8,0.9c-2.5-0.2-5.3-1.3-7.7-3.2
	c-2.1-5.3-4-10.7-5.7-16.2l-0.3-1.2c1.3,0.4,2.8,0.7,4.6,1.1c-3.7-3.5-5.5-6.9-7.3-11.7l0,0.9l0-0.9l-0.4-1.2l-0.3,1.2l0-0.1
	c-1.8,4.8-3.6,8.2-7.3,11.7c1.8-0.4,3.4-0.7,4.6-1.1c-0.4,1.5-0.9,2.9-1.4,4.4v-0.4c-1.8,4.8-3.6,8.2-7.3,11.7
	c1.4-0.3,2.6-0.5,3.6-0.8c-1,2.5-2,5-3,7.5c-2,2.2-4.2,3.9-7.2,5.4c1.8,0.1,3.4,0.3,4.7,0.2c-2.9,6.2-6.1,12.3-9.6,18.2
	c4.5-5.1,8.7-10.2,12.4-15.3l0,0c-4.6,15.6-11.2,29.3-20.4,40.5c3.7-0.4,7.2-1.2,10.2-2.5c-0.9,2.3-1.9,4.7-2.9,7.1
	c-4.7,3.7-10,5.6-14.6,5.6c3.8,0.9,8.3,0.5,12.7-1.2c-2.1,4.9-4.4,10-6.7,15c-2,2.2-4.2,3.9-7.2,5.4c1.8,0.1,3.3,0.3,4.5,0.2
	c-3.5,7.4-7.1,14.6-10.6,20.9c5.6-5.7,10.9-11.4,15.6-17c-4.6,14.8-11,27.9-19.8,38.6c3.4-0.4,6.6-1.1,9.4-2.1
	c-1.2,3.4-2.5,6.7-4,9.9c-5.5,5.1-11.4,9.9-17.5,14.5c4.8-2.3,9.5-4.7,13.9-7.2c-3,5.5-6.4,10.6-10.2,15.3
	c5.7-0.6,10.9-2.2,14.6-4.8H622h2.1l0,16.5h4.2l-0.3-16.5h39.7C671.5,848.1,676.6,849.7,682.4,850.3z M653.5,781.2l-0.2-0.8
	c0.1,0.1,0.1,0.2,0.2,0.2L653.5,781.2z M621,676.3L621,676.3L621,676.3L621,676.3z M594.8,780.5l-0.2,0.8l0-0.5
	C594.6,780.6,594.7,780.6,594.8,780.5z"/>
<path class="st0" d="M671.4,860.3c-3.9-4.7-7.2-9.8-10.2-15.3c4.4,2.5,9,4.9,13.9,7.2c-6.1-4.5-11.9-9.4-17.5-14.5
	c-1.4-3.2-2.7-6.5-4-9.9c2.8,1,6,1.8,9.4,2.1c-8.8-10.7-15.2-23.8-19.8-38.6c4.7,5.6,10,11.3,15.6,17c-3.4-6.3-7-13.5-10.6-20.9
	c1.3,0,2.8-0.2,4.5-0.2c-3-1.5-5.2-3.2-7.2-5.4c-2.9-6.2-5.6-12.5-8.2-18.5c2.5,3.1,5.1,6.2,7.8,9.2c-4.8-8.2-9.1-16.7-12.8-25.5
	c3.3,1.6,7.4,2.7,11.9,3.2c-6.3-7.6-11.3-16.4-15.4-26.2c2.3,2.9,4.8,5.7,7.3,8.6c-3.6-6.1-6.8-12.3-9.8-18.6
	c0.8-0.1,1.6-0.1,2.5-0.2c-1.3-0.7-2.5-1.4-3.5-2.2c-0.8-1.9-1.7-3.8-2.5-5.7c2.3,0.9,4.7,1.2,6.8,0.9c-2.5-0.2-5.3-1.3-7.7-3.2
	c-2.1-5.3-4-10.7-5.7-16.2l-0.3-1.2c1.3,0.4,2.8,0.7,4.6,1.1c-3.7-3.5-5.5-6.9-7.3-11.7l0,0.9l0-0.9l-0.4-1.2l-0.3,1.2l0-0.1
	c-1.8,4.8-3.6,8.2-7.3,11.7c1.8-0.4,3.4-0.7,4.6-1.1c-0.4,1.5-0.9,2.9-1.4,4.4v-0.4c-1.8,4.8-3.6,8.2-7.3,11.7
	c1.4-0.3,2.6-0.5,3.6-0.8c-1,2.5-2,5-3,7.5c-2,2.2-4.2,3.9-7.2,5.4c1.8,0.1,3.4,0.3,4.7,0.2c-2.9,6.2-6.1,12.3-9.6,18.2
	c4.5-5.1,8.7-10.2,12.4-15.3l0,0c-4.6,15.6-11.2,29.3-20.4,40.5c3.7-0.4,7.2-1.2,10.2-2.5c-0.9,2.3-1.9,4.7-2.9,7.1
	c-4.7,3.7-10,5.6-14.6,5.6c3.8,0.9,8.3,0.5,12.7-1.2c-2.1,4.9-4.4,10-6.7,15c-2,2.2-4.2,3.9-7.2,5.4c1.8,0.1,3.3,0.3,4.5,0.2
	c-3.5,7.4-7.1,14.6-10.6,20.9c5.6-5.7,10.9-11.4,15.6-17c-4.6,14.8-11,27.9-19.8,38.6c3.4-0.4,6.6-1.1,9.4-2.1
	c-1.2,3.4-2.5,6.7-4,9.9c-5.5,5.1-11.4,9.9-17.5,14.5c4.8-2.3,9.5-4.7,13.9-7.2c-3,5.5-6.4,10.6-10.2,15.3
	c5.7-0.6,10.9-2.2,14.6-4.8H611h2.1l0,16.5h4.2l-0.3-16.5h39.7C660.5,858.1,665.6,859.7,671.4,860.3z M642.5,791.2l-0.2-0.8
	c0.1,0.1,0.1,0.2,0.2,0.2L642.5,791.2z M610,686.3L610,686.3L610,686.3L610,686.3z M583.8,790.5l-0.2,0.8l0-0.5
	C583.6,790.6,583.7,790.6,583.8,790.5z"/>
<path class="st0" d="M656.4,869.3c-3.9-4.7-7.2-9.8-10.2-15.3c4.4,2.5,9,4.9,13.9,7.2c-6.1-4.5-11.9-9.4-17.5-14.5
	c-1.4-3.2-2.7-6.5-4-9.9c2.8,1,6,1.8,9.4,2.1c-8.8-10.7-15.2-23.8-19.8-38.6c4.7,5.6,10,11.3,15.6,17c-3.4-6.3-7-13.5-10.6-20.9
	c1.3,0,2.8-0.2,4.5-0.2c-3-1.5-5.2-3.2-7.2-5.4c-2.9-6.2-5.6-12.5-8.2-18.5c2.5,3.1,5.1,6.2,7.8,9.2c-4.8-8.2-9.1-16.7-12.8-25.5
	c3.3,1.6,7.4,2.7,11.9,3.2c-6.3-7.6-11.3-16.4-15.4-26.2c2.3,2.9,4.8,5.7,7.3,8.6c-3.6-6.1-6.8-12.3-9.8-18.6
	c0.8-0.1,1.6-0.1,2.5-0.2c-1.3-0.7-2.5-1.4-3.5-2.2c-0.8-1.9-1.7-3.8-2.5-5.7c2.3,0.9,4.7,1.2,6.8,0.9c-2.5-0.2-5.3-1.3-7.7-3.2
	c-2.1-5.3-4-10.7-5.7-16.2l-0.3-1.2c1.3,0.4,2.8,0.7,4.6,1.1c-3.7-3.5-5.5-6.9-7.3-11.7l0,0.9l0-0.9l-0.4-1.2l-0.3,1.2l0-0.1
	c-1.8,4.8-3.6,8.2-7.3,11.7c1.8-0.4,3.4-0.7,4.6-1.1c-0.4,1.5-0.9,2.9-1.4,4.4v-0.4c-1.8,4.8-3.6,8.2-7.3,11.7
	c1.4-0.3,2.6-0.5,3.6-0.8c-1,2.5-2,5-3,7.5c-2,2.2-4.2,3.9-7.2,5.4c1.8,0.1,3.4,0.3,4.7,0.2c-2.9,6.2-6.1,12.3-9.6,18.2
	c4.5-5.1,8.7-10.2,12.4-15.3l0,0c-4.6,15.6-11.2,29.3-20.4,40.5c3.7-0.4,7.2-1.2,10.2-2.5c-0.9,2.3-1.9,4.7-2.9,7.1
	c-4.7,3.7-10,5.6-14.6,5.6c3.8,0.9,8.3,0.5,12.7-1.2c-2.1,4.9-4.4,10-6.7,15c-2,2.2-4.2,3.9-7.2,5.4c1.8,0.1,3.3,0.3,4.5,0.2
	c-3.5,7.4-7.1,14.6-10.6,20.9c5.6-5.7,10.9-11.4,15.6-17c-4.6,14.8-11,27.9-19.8,38.6c3.4-0.4,6.6-1.1,9.4-2.1
	c-1.2,3.4-2.5,6.7-4,9.9c-5.5,5.1-11.4,9.9-17.5,14.5c4.8-2.3,9.5-4.7,13.9-7.2c-3,5.5-6.4,10.6-10.2,15.3
	c5.7-0.6,10.9-2.2,14.6-4.8H596h2.1l0,16.5h4.2l-0.3-16.5h39.7C645.5,867.1,650.6,868.7,656.4,869.3z M627.5,800.2l-0.2-0.8
	c0.1,0.1,0.1,0.2,0.2,0.2L627.5,800.2z M595,695.3L595,695.3L595,695.3L595,695.3z M568.8,799.5l-0.2,0.8l0-0.5
	C568.6,799.6,568.7,799.6,568.8,799.5z"/>
<path class="st0" d="M642.4,879.3c-3.9-4.7-7.2-9.8-10.2-15.3c4.4,2.5,9,4.9,13.9,7.2c-6.1-4.5-11.9-9.4-17.5-14.5
	c-1.4-3.2-2.7-6.5-4-9.9c2.8,1,6,1.8,9.4,2.1c-8.8-10.7-15.2-23.8-19.8-38.6c4.7,5.6,10,11.3,15.6,17c-3.4-6.3-7-13.5-10.6-20.9
	c1.3,0,2.8-0.2,4.5-0.2c-3-1.5-5.2-3.2-7.2-5.4c-2.9-6.2-5.6-12.5-8.2-18.5c2.5,3.1,5.1,6.2,7.8,9.2c-4.8-8.2-9.1-16.7-12.8-25.5
	c3.3,1.6,7.4,2.7,11.9,3.2c-6.3-7.6-11.3-16.4-15.4-26.2c2.3,2.9,4.8,5.7,7.3,8.6c-3.6-6.1-6.8-12.3-9.8-18.6
	c0.8-0.1,1.6-0.1,2.5-0.2c-1.3-0.7-2.5-1.4-3.5-2.2c-0.8-1.9-1.7-3.8-2.5-5.7c2.3,0.9,4.7,1.2,6.8,0.9c-2.5-0.2-5.3-1.3-7.7-3.2
	c-2.1-5.3-4-10.7-5.7-16.2l-0.3-1.2c1.3,0.4,2.8,0.7,4.6,1.1c-3.7-3.5-5.5-6.9-7.3-11.7l0,0.9l0-0.9l-0.4-1.2l-0.3,1.2l0-0.1
	c-1.8,4.8-3.6,8.2-7.3,11.7c1.8-0.4,3.4-0.7,4.6-1.1c-0.4,1.5-0.9,2.9-1.4,4.4v-0.4c-1.8,4.8-3.6,8.2-7.3,11.7
	c1.4-0.3,2.6-0.5,3.6-0.8c-1,2.5-2,5-3,7.5c-2,2.2-4.2,3.9-7.2,5.4c1.8,0.1,3.4,0.3,4.7,0.2c-2.9,6.2-6.1,12.3-9.6,18.2
	c4.5-5.1,8.7-10.2,12.4-15.3l0,0c-4.6,15.6-11.2,29.3-20.4,40.5c3.7-0.4,7.2-1.2,10.2-2.5c-0.9,2.3-1.9,4.7-2.9,7.1
	c-4.7,3.7-10,5.6-14.6,5.6c3.8,0.9,8.3,0.5,12.7-1.2c-2.1,4.9-4.4,10-6.7,15c-2,2.2-4.2,3.9-7.2,5.4c1.8,0.1,3.3,0.3,4.5,0.2
	c-3.5,7.4-7.1,14.6-10.6,20.9c5.6-5.7,10.9-11.4,15.6-17c-4.6,14.8-11,27.9-19.8,38.6c3.4-0.4,6.6-1.1,9.4-2.1
	c-1.2,3.4-2.5,6.7-4,9.9c-5.5,5.1-11.4,9.9-17.5,14.5c4.8-2.3,9.5-4.7,13.9-7.2c-3,5.5-6.4,10.6-10.2,15.3
	c5.7-0.6,10.9-2.2,14.6-4.8H582h2.1l0,16.5h4.2l-0.3-16.5h39.7C631.5,877.1,636.6,878.7,642.4,879.3z M613.5,810.2l-0.2-0.8
	c0.1,0.1,0.1,0.2,0.2,0.2L613.5,810.2z M581,705.3L581,705.3L581,705.3L581,705.3z M554.8,809.5l-0.2,0.8l0-0.5
	C554.6,809.6,554.7,809.6,554.8,809.5z"/>
<path class="st0" d="M630.4,882.3c-3.9-4.7-7.2-9.8-10.2-15.3c4.4,2.5,9,4.9,13.9,7.2c-6.1-4.5-11.9-9.4-17.5-14.5
	c-1.4-3.2-2.7-6.5-4-9.9c2.8,1,6,1.8,9.4,2.1c-8.8-10.7-15.2-23.8-19.8-38.6c4.7,5.6,10,11.3,15.6,17c-3.4-6.3-7-13.5-10.6-20.9
	c1.3,0,2.8-0.2,4.5-0.2c-3-1.5-5.2-3.2-7.2-5.4c-2.9-6.2-5.6-12.5-8.2-18.5c2.5,3.1,5.1,6.2,7.8,9.2c-4.8-8.2-9.1-16.7-12.8-25.5
	c3.3,1.6,7.4,2.7,11.9,3.2c-6.3-7.6-11.3-16.4-15.4-26.2c2.3,2.9,4.8,5.7,7.3,8.6c-3.6-6.1-6.8-12.3-9.8-18.6
	c0.8-0.1,1.6-0.1,2.5-0.2c-1.3-0.7-2.5-1.4-3.5-2.2c-0.8-1.9-1.7-3.8-2.5-5.7c2.3,0.9,4.7,1.2,6.8,0.9c-2.5-0.2-5.3-1.3-7.7-3.2
	c-2.1-5.3-4-10.7-5.7-16.2l-0.3-1.2c1.3,0.4,2.8,0.7,4.6,1.1c-3.7-3.5-5.5-6.9-7.3-11.7l0,0.9l0-0.9l-0.4-1.2l-0.3,1.2l0-0.1
	c-1.8,4.8-3.6,8.2-7.3,11.7c1.8-0.4,3.4-0.7,4.6-1.1c-0.4,1.5-0.9,2.9-1.4,4.4v-0.4c-1.8,4.8-3.6,8.2-7.3,11.7
	c1.4-0.3,2.6-0.5,3.6-0.8c-1,2.5-2,5-3,7.5c-2,2.2-4.2,3.9-7.2,5.4c1.8,0.1,3.4,0.3,4.7,0.2c-2.9,6.2-6.1,12.3-9.6,18.2
	c4.5-5.1,8.7-10.2,12.4-15.3l0,0c-4.6,15.6-11.2,29.3-20.4,40.5c3.7-0.4,7.2-1.2,10.2-2.5c-0.9,2.3-1.9,4.7-2.9,7.1
	c-4.7,3.7-10,5.6-14.6,5.6c3.8,0.9,8.3,0.5,12.7-1.2c-2.1,4.9-4.4,10-6.7,15c-2,2.2-4.2,3.9-7.2,5.4c1.8,0.1,3.3,0.3,4.5,0.2
	c-3.5,7.4-7.1,14.6-10.6,20.9c5.6-5.7,10.9-11.4,15.6-17c-4.6,14.8-11,27.9-19.8,38.6c3.4-0.4,6.6-1.1,9.4-2.1
	c-1.2,3.4-2.5,6.7-4,9.9c-5.5,5.1-11.4,9.9-17.5,14.5c4.8-2.3,9.5-4.7,13.9-7.2c-3,5.5-6.4,10.6-10.2,15.3
	c5.7-0.6,10.9-2.2,14.6-4.8H570h2.1l0,16.5h4.2l-0.3-16.5h39.7C619.5,880.1,624.6,881.7,630.4,882.3z M601.5,813.2l-0.2-0.8
	c0.1,0.1,0.1,0.2,0.2,0.2L601.5,813.2z M569,708.3L569,708.3L569,708.3L569,708.3z M542.8,812.5l-0.2,0.8l0-0.5
	C542.6,812.6,542.7,812.6,542.8,812.5z"/>
<path class="st0" d="M625.4,882.3c-3.9-4.7-7.2-9.8-10.2-15.3c4.4,2.5,9,4.9,13.9,7.2c-6.1-4.5-11.9-9.4-17.5-14.5
	c-1.4-3.2-2.7-6.5-4-9.9c2.8,1,6,1.8,9.4,2.1c-8.8-10.7-15.2-23.8-19.8-38.6c4.7,5.6,10,11.3,15.6,17c-3.4-6.3-7-13.5-10.6-20.9
	c1.3,0,2.8-0.2,4.5-0.2c-3-1.5-5.2-3.2-7.2-5.4c-2.9-6.2-5.6-12.5-8.2-18.5c2.5,3.1,5.1,6.2,7.8,9.2c-4.8-8.2-9.1-16.7-12.8-25.5
	c3.3,1.6,7.4,2.7,11.9,3.2c-6.3-7.6-11.3-16.4-15.4-26.2c2.3,2.9,4.8,5.7,7.3,8.6c-3.6-6.1-6.8-12.3-9.8-18.6
	c0.8-0.1,1.6-0.1,2.5-0.2c-1.3-0.7-2.5-1.4-3.5-2.2c-0.8-1.9-1.7-3.8-2.5-5.7c2.3,0.9,4.7,1.2,6.8,0.9c-2.5-0.2-5.3-1.3-7.7-3.2
	c-2.1-5.3-4-10.7-5.7-16.2l-0.3-1.2c1.3,0.4,2.8,0.7,4.6,1.1c-3.7-3.5-5.5-6.9-7.3-11.7l0,0.9l0-0.9l-0.4-1.2l-0.3,1.2l0-0.1
	c-1.8,4.8-3.6,8.2-7.3,11.7c1.8-0.4,3.4-0.7,4.6-1.1c-0.4,1.5-0.9,2.9-1.4,4.4v-0.4c-1.8,4.8-3.6,8.2-7.3,11.7
	c1.4-0.3,2.6-0.5,3.6-0.8c-1,2.5-2,5-3,7.5c-2,2.2-4.2,3.9-7.2,5.4c1.8,0.1,3.4,0.3,4.7,0.2c-2.9,6.2-6.1,12.3-9.6,18.2
	c4.5-5.1,8.7-10.2,12.4-15.3l0,0c-4.6,15.6-11.2,29.3-20.4,40.5c3.7-0.4,7.2-1.2,10.2-2.5c-0.9,2.3-1.9,4.7-2.9,7.1
	c-4.7,3.7-10,5.6-14.6,5.6c3.8,0.9,8.3,0.5,12.7-1.2c-2.1,4.9-4.4,10-6.7,15c-2,2.2-4.2,3.9-7.2,5.4c1.8,0.1,3.3,0.3,4.5,0.2
	c-3.5,7.4-7.1,14.6-10.6,20.9c5.6-5.7,10.9-11.4,15.6-17c-4.6,14.8-11,27.9-19.8,38.6c3.4-0.4,6.6-1.1,9.4-2.1
	c-1.2,3.4-2.5,6.7-4,9.9c-5.5,5.1-11.4,9.9-17.5,14.5c4.8-2.3,9.5-4.7,13.9-7.2c-3,5.5-6.4,10.6-10.2,15.3
	c5.7-0.6,10.9-2.2,14.6-4.8H565h2.1l0,16.5h4.2l-0.3-16.5h39.7C614.5,880.1,619.6,881.7,625.4,882.3z M596.5,813.2l-0.2-0.8
	c0.1,0.1,0.1,0.2,0.2,0.2L596.5,813.2z M564,708.3L564,708.3L564,708.3L564,708.3z M537.8,812.5l-0.2,0.8l0-0.5
	C537.6,812.6,537.7,812.6,537.8,812.5z"/>
<path class="st0" d="M620.4,888.3c-3.9-4.7-7.2-9.8-10.2-15.3c4.4,2.5,9,4.9,13.9,7.2c-6.1-4.5-11.9-9.4-17.5-14.5
	c-1.4-3.2-2.7-6.5-4-9.9c2.8,1,6,1.8,9.4,2.1c-8.8-10.7-15.2-23.8-19.8-38.6c4.7,5.6,10,11.3,15.6,17c-3.4-6.3-7-13.5-10.6-20.9
	c1.3,0,2.8-0.2,4.5-0.2c-3-1.5-5.2-3.2-7.2-5.4c-2.9-6.2-5.6-12.5-8.2-18.5c2.5,3.1,5.1,6.2,7.8,9.2c-4.8-8.2-9.1-16.7-12.8-25.5
	c3.3,1.6,7.4,2.7,11.9,3.2c-6.3-7.6-11.3-16.4-15.4-26.2c2.3,2.9,4.8,5.7,7.3,8.6c-3.6-6.1-6.8-12.3-9.8-18.6
	c0.8-0.1,1.6-0.1,2.5-0.2c-1.3-0.7-2.5-1.4-3.5-2.2c-0.8-1.9-1.7-3.8-2.5-5.7c2.3,0.9,4.7,1.2,6.8,0.9c-2.5-0.2-5.3-1.3-7.7-3.2
	c-2.1-5.3-4-10.7-5.7-16.2l-0.3-1.2c1.3,0.4,2.8,0.7,4.6,1.1c-3.7-3.5-5.5-6.9-7.3-11.7l0,0.9l0-0.9l-0.4-1.2l-0.3,1.2l0-0.1
	c-1.8,4.8-3.6,8.2-7.3,11.7c1.8-0.4,3.4-0.7,4.6-1.1c-0.4,1.5-0.9,2.9-1.4,4.4v-0.4c-1.8,4.8-3.6,8.2-7.3,11.7
	c1.4-0.3,2.6-0.5,3.6-0.8c-1,2.5-2,5-3,7.5c-2,2.2-4.2,3.9-7.2,5.4c1.8,0.1,3.4,0.3,4.7,0.2c-2.9,6.2-6.1,12.3-9.6,18.2
	c4.5-5.1,8.7-10.2,12.4-15.3l0,0c-4.6,15.6-11.2,29.3-20.4,40.5c3.7-0.4,7.2-1.2,10.2-2.5c-0.9,2.3-1.9,4.7-2.9,7.1
	c-4.7,3.7-10,5.6-14.6,5.6c3.8,0.9,8.3,0.5,12.7-1.2c-2.1,4.9-4.4,10-6.7,15c-2,2.2-4.2,3.9-7.2,5.4c1.8,0.1,3.3,0.3,4.5,0.2
	c-3.5,7.4-7.1,14.6-10.6,20.9c5.6-5.7,10.9-11.4,15.6-17c-4.6,14.8-11,27.9-19.8,38.6c3.4-0.4,6.6-1.1,9.4-2.1
	c-1.2,3.4-2.5,6.7-4,9.9c-5.5,5.1-11.4,9.9-17.5,14.5c4.8-2.3,9.5-4.7,13.9-7.2c-3,5.5-6.4,10.6-10.2,15.3
	c5.7-0.6,10.9-2.2,14.6-4.8H560h2.1l0,16.5h4.2l-0.3-16.5h39.7C609.5,886.1,614.6,887.7,620.4,888.3z M591.5,819.2l-0.2-0.8
	c0.1,0.1,0.1,0.2,0.2,0.2L591.5,819.2z M559,714.3L559,714.3L559,714.3L559,714.3z M532.8,818.5l-0.2,0.8l0-0.5
	C532.6,818.6,532.7,818.6,532.8,818.5z"/>
<path class="st0" d="M611.4,889.3c-3.9-4.7-7.2-9.8-10.2-15.3c4.4,2.5,9,4.9,13.9,7.2c-6.1-4.5-11.9-9.4-17.5-14.5
	c-1.4-3.2-2.7-6.5-4-9.9c2.8,1,6,1.8,9.4,2.1c-8.8-10.7-15.2-23.8-19.8-38.6c4.7,5.6,10,11.3,15.6,17c-3.4-6.3-7-13.5-10.6-20.9
	c1.3,0,2.8-0.2,4.5-0.2c-3-1.5-5.2-3.2-7.2-5.4c-2.9-6.2-5.6-12.5-8.2-18.5c2.5,3.1,5.1,6.2,7.8,9.2c-4.8-8.2-9.1-16.7-12.8-25.5
	c3.3,1.6,7.4,2.7,11.9,3.2c-6.3-7.6-11.3-16.4-15.4-26.2c2.3,2.9,4.8,5.7,7.3,8.6c-3.6-6.1-6.8-12.3-9.8-18.6
	c0.8-0.1,1.6-0.1,2.5-0.2c-1.3-0.7-2.5-1.4-3.5-2.2c-0.8-1.9-1.7-3.8-2.5-5.7c2.3,0.9,4.7,1.2,6.8,0.9c-2.5-0.2-5.3-1.3-7.7-3.2
	c-2.1-5.3-4-10.7-5.7-16.2l-0.3-1.2c1.3,0.4,2.8,0.7,4.6,1.1c-3.7-3.5-5.5-6.9-7.3-11.7l0,0.9l0-0.9l-0.4-1.2l-0.3,1.2l0-0.1
	c-1.8,4.8-3.6,8.2-7.3,11.7c1.8-0.4,3.4-0.7,4.6-1.1c-0.4,1.5-0.9,2.9-1.4,4.4v-0.4c-1.8,4.8-3.6,8.2-7.3,11.7
	c1.4-0.3,2.6-0.5,3.6-0.8c-1,2.5-2,5-3,7.5c-2,2.2-4.2,3.9-7.2,5.4c1.8,0.1,3.4,0.3,4.7,0.2c-2.9,6.2-6.1,12.3-9.6,18.2
	c4.5-5.1,8.7-10.2,12.4-15.3l0,0c-4.6,15.6-11.2,29.3-20.4,40.5c3.7-0.4,7.2-1.2,10.2-2.5c-0.9,2.3-1.9,4.7-2.9,7.1
	c-4.7,3.7-10,5.6-14.6,5.6c3.8,0.9,8.3,0.5,12.7-1.2c-2.1,4.9-4.4,10-6.7,15c-2,2.2-4.2,3.9-7.2,5.4c1.8,0.1,3.3,0.3,4.5,0.2
	c-3.5,7.4-7.1,14.6-10.6,20.9c5.6-5.7,10.9-11.4,15.6-17c-4.6,14.8-11,27.9-19.8,38.6c3.4-0.4,6.6-1.1,9.4-2.1
	c-1.2,3.4-2.5,6.7-4,9.9c-5.5,5.1-11.4,9.9-17.5,14.5c4.8-2.3,9.5-4.7,13.9-7.2c-3,5.5-6.4,10.6-10.2,15.3
	c5.7-0.6,10.9-2.2,14.6-4.8H551h2.1l0,16.5h4.2l-0.3-16.5h39.7C600.5,887.1,605.6,888.7,611.4,889.3z M582.5,820.2l-0.2-0.8
	c0.1,0.1,0.1,0.2,0.2,0.2L582.5,820.2z M550,715.3L550,715.3L550,715.3L550,715.3z M523.8,819.5l-0.2,0.8l0-0.5
	C523.6,819.6,523.7,819.6,523.8,819.5z"/>
<path class="st0" d="M601.4,904.3c-3.9-4.7-7.2-9.8-10.2-15.3c4.4,2.5,9,4.9,13.9,7.2c-6.1-4.5-11.9-9.4-17.5-14.5
	c-1.4-3.2-2.7-6.5-4-9.9c2.8,1,6,1.8,9.4,2.1c-8.8-10.7-15.2-23.8-19.8-38.6c4.7,5.6,10,11.3,15.6,17c-3.4-6.3-7-13.5-10.6-20.9
	c1.3,0,2.8-0.2,4.5-0.2c-3-1.5-5.2-3.2-7.2-5.4c-2.9-6.2-5.6-12.5-8.2-18.5c2.5,3.1,5.1,6.2,7.8,9.2c-4.8-8.2-9.1-16.7-12.8-25.5
	c3.3,1.6,7.4,2.7,11.9,3.2c-6.3-7.6-11.3-16.4-15.4-26.2c2.3,2.9,4.8,5.7,7.3,8.6c-3.6-6.1-6.8-12.3-9.8-18.6
	c0.8-0.1,1.6-0.1,2.5-0.2c-1.3-0.7-2.5-1.4-3.5-2.2c-0.8-1.9-1.7-3.8-2.5-5.7c2.3,0.9,4.7,1.2,6.8,0.9c-2.5-0.2-5.3-1.3-7.7-3.2
	c-2.1-5.3-4-10.7-5.7-16.2l-0.3-1.2c1.3,0.4,2.8,0.7,4.6,1.1c-3.7-3.5-5.5-6.9-7.3-11.7l0,0.9l0-0.9l-0.4-1.2l-0.3,1.2l0-0.1
	c-1.8,4.8-3.6,8.2-7.3,11.7c1.8-0.4,3.4-0.7,4.6-1.1c-0.4,1.5-0.9,2.9-1.4,4.4v-0.4c-1.8,4.8-3.6,8.2-7.3,11.7
	c1.4-0.3,2.6-0.5,3.6-0.8c-1,2.5-2,5-3,7.5c-2,2.2-4.2,3.9-7.2,5.4c1.8,0.1,3.4,0.3,4.7,0.2c-2.9,6.2-6.1,12.3-9.6,18.2
	c4.5-5.1,8.7-10.2,12.4-15.3l0,0c-4.6,15.6-11.2,29.3-20.4,40.5c3.7-0.4,7.2-1.2,10.2-2.5c-0.9,2.3-1.9,4.7-2.9,7.1
	c-4.7,3.7-10,5.6-14.6,5.6c3.8,0.9,8.3,0.5,12.7-1.2c-2.1,4.9-4.4,10-6.7,15c-2,2.2-4.2,3.9-7.2,5.4c1.8,0.1,3.3,0.3,4.5,0.2
	c-3.5,7.4-7.1,14.6-10.6,20.9c5.6-5.7,10.9-11.4,15.6-17c-4.6,14.8-11,27.9-19.8,38.6c3.4-0.4,6.6-1.1,9.4-2.1
	c-1.2,3.4-2.5,6.7-4,9.9c-5.5,5.1-11.4,9.9-17.5,14.5c4.8-2.3,9.5-4.7,13.9-7.2c-3,5.5-6.4,10.6-10.2,15.3
	c5.7-0.6,10.9-2.2,14.6-4.8H541h2.1l0,16.5h4.2l-0.3-16.5h39.7C590.5,902.1,595.6,903.7,601.4,904.3z M572.5,835.2l-0.2-0.8
	c0.1,0.1,0.1,0.2,0.2,0.2L572.5,835.2z M540,730.3L540,730.3L540,730.3L540,730.3z M513.8,834.5l-0.2,0.8l0-0.5
	C513.6,834.6,513.7,834.6,513.8,834.5z"/>
<path class="st0" d="M707.4,856.3c-3.9-4.7-7.2-9.8-10.2-15.3c4.4,2.5,9,4.9,13.9,7.2c-6.1-4.5-11.9-9.4-17.5-14.5
	c-1.4-3.2-2.7-6.5-4-9.9c2.8,1,6,1.8,9.4,2.1c-8.8-10.7-15.2-23.8-19.8-38.6c4.7,5.6,10,11.3,15.6,17c-3.4-6.3-7-13.5-10.6-20.9
	c1.3,0,2.8-0.2,4.5-0.2c-3-1.5-5.2-3.2-7.2-5.4c-2.9-6.2-5.6-12.5-8.2-18.5c2.5,3.1,5.1,6.2,7.8,9.2c-4.8-8.2-9.1-16.7-12.8-25.5
	c3.3,1.6,7.4,2.7,11.9,3.2c-6.3-7.6-11.3-16.4-15.4-26.2c2.3,2.9,4.8,5.7,7.3,8.6c-3.6-6.1-6.8-12.3-9.8-18.6
	c0.8-0.1,1.6-0.1,2.5-0.2c-1.3-0.7-2.5-1.4-3.5-2.2c-0.8-1.9-1.7-3.8-2.5-5.7c2.3,0.9,4.7,1.2,6.8,0.9c-2.5-0.2-5.3-1.3-7.7-3.2
	c-2.1-5.3-4-10.7-5.7-16.2l-0.3-1.2c1.3,0.4,2.8,0.7,4.6,1.1c-3.7-3.5-5.5-6.9-7.3-11.7l0,0.9l0-0.9l-0.4-1.2l-0.3,1.2l0-0.1
	c-1.8,4.8-3.6,8.2-7.3,11.7c1.8-0.4,3.4-0.7,4.6-1.1c-0.4,1.5-0.9,2.9-1.4,4.4v-0.4c-1.8,4.8-3.6,8.2-7.3,11.7
	c1.4-0.3,2.6-0.5,3.6-0.8c-1,2.5-2,5-3,7.5c-2,2.2-4.2,3.9-7.2,5.4c1.8,0.1,3.4,0.3,4.7,0.2c-2.9,6.2-6.1,12.3-9.6,18.2
	c4.5-5.1,8.7-10.2,12.4-15.3l0,0c-4.6,15.6-11.2,29.3-20.4,40.5c3.7-0.4,7.2-1.2,10.2-2.5c-0.9,2.3-1.9,4.7-2.9,7.1
	c-4.7,3.7-10,5.6-14.6,5.6c3.8,0.9,8.3,0.5,12.7-1.2c-2.1,4.9-4.4,10-6.7,15c-2,2.2-4.2,3.9-7.2,5.4c1.8,0.1,3.3,0.3,4.5,0.2
	c-3.5,7.4-7.1,14.6-10.6,20.9c5.6-5.7,10.9-11.4,15.6-17c-4.6,14.8-11,27.9-19.8,38.6c3.4-0.4,6.6-1.1,9.4-2.1
	c-1.2,3.4-2.5,6.7-4,9.9c-5.5,5.1-11.4,9.9-17.5,14.5c4.8-2.3,9.5-4.7,13.9-7.2c-3,5.5-6.4,10.6-10.2,15.3
	c5.7-0.6,10.9-2.2,14.6-4.8H647h2.1l0,16.5h4.2l-0.3-16.5h39.7C696.5,854.1,701.6,855.7,707.4,856.3z M678.5,787.2l-0.2-0.8
	c0.1,0.1,0.1,0.2,0.2,0.2L678.5,787.2z M646,682.3L646,682.3L646,682.3L646,682.3z M619.8,786.5l-0.2,0.8l0-0.5
	C619.6,786.6,619.7,786.6,619.8,786.5z"/>
<path class="st0" d="M735.4,864.3c-3.9-4.7-7.2-9.8-10.2-15.3c4.4,2.5,9,4.9,13.9,7.2c-6.1-4.5-11.9-9.4-17.5-14.5
	c-1.4-3.2-2.7-6.5-4-9.9c2.8,1,6,1.8,9.4,2.1c-8.8-10.7-15.2-23.8-19.8-38.6c4.7,5.6,10,11.3,15.6,17c-3.4-6.3-7-13.5-10.6-20.9
	c1.3,0,2.8-0.2,4.5-0.2c-3-1.5-5.2-3.2-7.2-5.4c-2.9-6.2-5.6-12.5-8.2-18.5c2.5,3.1,5.1,6.2,7.8,9.2c-4.8-8.2-9.1-16.7-12.8-25.5
	c3.3,1.6,7.4,2.7,11.9,3.2c-6.3-7.6-11.3-16.4-15.4-26.2c2.3,2.9,4.8,5.7,7.3,8.6c-3.6-6.1-6.8-12.3-9.8-18.6
	c0.8-0.1,1.6-0.1,2.5-0.2c-1.3-0.7-2.5-1.4-3.5-2.2c-0.8-1.9-1.7-3.8-2.5-5.7c2.3,0.9,4.7,1.2,6.8,0.9c-2.5-0.2-5.3-1.3-7.7-3.2
	c-2.1-5.3-4-10.7-5.7-16.2l-0.3-1.2c1.3,0.4,2.8,0.7,4.6,1.1c-3.7-3.5-5.5-6.9-7.3-11.7l0,0.9l0-0.9l-0.4-1.2l-0.3,1.2l0-0.1
	c-1.8,4.8-3.6,8.2-7.3,11.7c1.8-0.4,3.4-0.7,4.6-1.1c-0.4,1.5-0.9,2.9-1.4,4.4v-0.4c-1.8,4.8-3.6,8.2-7.3,11.7
	c1.4-0.3,2.6-0.5,3.6-0.8c-1,2.5-2,5-3,7.5c-2,2.2-4.2,3.9-7.2,5.4c1.8,0.1,3.4,0.3,4.7,0.2c-2.9,6.2-6.1,12.3-9.6,18.2
	c4.5-5.1,8.7-10.2,12.4-15.3l0,0c-4.6,15.6-11.2,29.3-20.4,40.5c3.7-0.4,7.2-1.2,10.2-2.5c-0.9,2.3-1.9,4.7-2.9,7.1
	c-4.7,3.7-10,5.6-14.6,5.6c3.8,0.9,8.3,0.5,12.7-1.2c-2.1,4.9-4.4,10-6.7,15c-2,2.2-4.2,3.9-7.2,5.4c1.8,0.1,3.3,0.3,4.5,0.2
	c-3.5,7.4-7.1,14.6-10.6,20.9c5.6-5.7,10.9-11.4,15.6-17c-4.6,14.8-11,27.9-19.8,38.6c3.4-0.4,6.6-1.1,9.4-2.1
	c-1.2,3.4-2.5,6.7-4,9.9c-5.5,5.1-11.4,9.9-17.5,14.5c4.8-2.3,9.5-4.7,13.9-7.2c-3,5.5-6.4,10.6-10.2,15.3
	c5.7-0.6,10.9-2.2,14.6-4.8H675h2.1l0,16.5h4.2l-0.3-16.5h39.7C724.5,862.1,729.6,863.7,735.4,864.3z M706.5,795.2l-0.2-0.8
	c0.1,0.1,0.1,0.2,0.2,0.2L706.5,795.2z M674,690.3L674,690.3L674,690.3L674,690.3z M647.8,794.5l-0.2,0.8l0-0.5
	C647.6,794.6,647.7,794.6,647.8,794.5z"/>
<path class="st0" d="M754.4,872.3c-3.9-4.7-7.2-9.8-10.2-15.3c4.4,2.5,9,4.9,13.9,7.2c-6.1-4.5-11.9-9.4-17.5-14.5
	c-1.4-3.2-2.7-6.5-4-9.9c2.8,1,6,1.8,9.4,2.1c-8.8-10.7-15.2-23.8-19.8-38.6c4.7,5.6,10,11.3,15.6,17c-3.4-6.3-7-13.5-10.6-20.9
	c1.3,0,2.8-0.2,4.5-0.2c-3-1.5-5.2-3.2-7.2-5.4c-2.9-6.2-5.6-12.5-8.2-18.5c2.5,3.1,5.1,6.2,7.8,9.2c-4.8-8.2-9.1-16.7-12.8-25.5
	c3.3,1.6,7.4,2.7,11.9,3.2c-6.3-7.6-11.3-16.4-15.4-26.2c2.3,2.9,4.8,5.7,7.3,8.6c-3.6-6.1-6.8-12.3-9.8-18.6
	c0.8-0.1,1.6-0.1,2.5-0.2c-1.3-0.7-2.5-1.4-3.5-2.2c-0.8-1.9-1.7-3.8-2.5-5.7c2.3,0.9,4.7,1.2,6.8,0.9c-2.5-0.2-5.3-1.3-7.7-3.2
	c-2.1-5.3-4-10.7-5.7-16.2l-0.3-1.2c1.3,0.4,2.8,0.7,4.6,1.1c-3.7-3.5-5.5-6.9-7.3-11.7l0,0.9l0-0.9l-0.4-1.2l-0.3,1.2l0-0.1
	c-1.8,4.8-3.6,8.2-7.3,11.7c1.8-0.4,3.4-0.7,4.6-1.1c-0.4,1.5-0.9,2.9-1.4,4.4v-0.4c-1.8,4.8-3.6,8.2-7.3,11.7
	c1.4-0.3,2.6-0.5,3.6-0.8c-1,2.5-2,5-3,7.5c-2,2.2-4.2,3.9-7.2,5.4c1.8,0.1,3.4,0.3,4.7,0.2c-2.9,6.2-6.1,12.3-9.6,18.2
	c4.5-5.1,8.7-10.2,12.4-15.3l0,0c-4.6,15.6-11.2,29.3-20.4,40.5c3.7-0.4,7.2-1.2,10.2-2.5c-0.9,2.3-1.9,4.7-2.9,7.1
	c-4.7,3.7-10,5.6-14.6,5.6c3.8,0.9,8.3,0.5,12.7-1.2c-2.1,4.9-4.4,10-6.7,15c-2,2.2-4.2,3.9-7.2,5.4c1.8,0.1,3.3,0.3,4.5,0.2
	c-3.5,7.4-7.1,14.6-10.6,20.9c5.6-5.7,10.9-11.4,15.6-17c-4.6,14.8-11,27.9-19.8,38.6c3.4-0.4,6.6-1.1,9.4-2.1
	c-1.2,3.4-2.5,6.7-4,9.9c-5.5,5.1-11.4,9.9-17.5,14.5c4.8-2.3,9.5-4.7,13.9-7.2c-3,5.5-6.4,10.6-10.2,15.3
	c5.7-0.6,10.9-2.2,14.6-4.8H694h2.1l0,16.5h4.2l-0.3-16.5h39.7C743.5,870.1,748.6,871.7,754.4,872.3z M725.5,803.2l-0.2-0.8
	c0.1,0.1,0.1,0.2,0.2,0.2L725.5,803.2z M693,698.3L693,698.3L693,698.3L693,698.3z M666.8,802.5l-0.2,0.8l0-0.5
	C666.6,802.6,666.7,802.6,666.8,802.5z"/>
<path class="st0" d="M718.4,874.3c-3.9-4.7-7.2-9.8-10.2-15.3c4.4,2.5,9,4.9,13.9,7.2c-6.1-4.5-11.9-9.4-17.5-14.5
	c-1.4-3.2-2.7-6.5-4-9.9c2.8,1,6,1.8,9.4,2.1c-8.8-10.7-15.2-23.8-19.8-38.6c4.7,5.6,10,11.3,15.6,17c-3.4-6.3-7-13.5-10.6-20.9
	c1.3,0,2.8-0.2,4.5-0.2c-3-1.5-5.2-3.2-7.2-5.4c-2.9-6.2-5.6-12.5-8.2-18.5c2.5,3.1,5.1,6.2,7.8,9.2c-4.8-8.2-9.1-16.7-12.8-25.5
	c3.3,1.6,7.4,2.7,11.9,3.2c-6.3-7.6-11.3-16.4-15.4-26.2c2.3,2.9,4.8,5.7,7.3,8.6c-3.6-6.1-6.8-12.3-9.8-18.6
	c0.8-0.1,1.6-0.1,2.5-0.2c-1.3-0.7-2.5-1.4-3.5-2.2c-0.8-1.9-1.7-3.8-2.5-5.7c2.3,0.9,4.7,1.2,6.8,0.9c-2.5-0.2-5.3-1.3-7.7-3.2
	c-2.1-5.3-4-10.7-5.7-16.2l-0.3-1.2c1.3,0.4,2.8,0.7,4.6,1.1c-3.7-3.5-5.5-6.9-7.3-11.7l0,0.9l0-0.9l-0.4-1.2l-0.3,1.2l0-0.1
	c-1.8,4.8-3.6,8.2-7.3,11.7c1.8-0.4,3.4-0.7,4.6-1.1c-0.4,1.5-0.9,2.9-1.4,4.4v-0.4c-1.8,4.8-3.6,8.2-7.3,11.7
	c1.4-0.3,2.6-0.5,3.6-0.8c-1,2.5-2,5-3,7.5c-2,2.2-4.2,3.9-7.2,5.4c1.8,0.1,3.4,0.3,4.7,0.2c-2.9,6.2-6.1,12.3-9.6,18.2
	c4.5-5.1,8.7-10.2,12.4-15.3l0,0c-4.6,15.6-11.2,29.3-20.4,40.5c3.7-0.4,7.2-1.2,10.2-2.5c-0.9,2.3-1.9,4.7-2.9,7.1
	c-4.7,3.7-10,5.6-14.6,5.6c3.8,0.9,8.3,0.5,12.7-1.2c-2.1,4.9-4.4,10-6.7,15c-2,2.2-4.2,3.9-7.2,5.4c1.8,0.1,3.3,0.3,4.5,0.2
	c-3.5,7.4-7.1,14.6-10.6,20.9c5.6-5.7,10.9-11.4,15.6-17c-4.6,14.8-11,27.9-19.8,38.6c3.4-0.4,6.6-1.1,9.4-2.1
	c-1.2,3.4-2.5,6.7-4,9.9c-5.5,5.1-11.4,9.9-17.5,14.5c4.8-2.3,9.5-4.7,13.9-7.2c-3,5.5-6.4,10.6-10.2,15.3
	c5.7-0.6,10.9-2.2,14.6-4.8H658h2.1l0,16.5h4.2l-0.3-16.5h39.7C707.5,872.1,712.6,873.7,718.4,874.3z M689.5,805.2l-0.2-0.8
	c0.1,0.1,0.1,0.2,0.2,0.2L689.5,805.2z M657,700.3L657,700.3L657,700.3L657,700.3z M630.8,804.5l-0.2,0.8l0-0.5
	C630.6,804.6,630.7,804.6,630.8,804.5z"/>
</svg>
