<?xml version="1.0" encoding="utf-8"?>
<!-- Generator: Adobe Illustrator 21.1.0, SVG Export Plug-In . SVG Version: 6.00 Build 0)  -->
<svg version="1.1" id="Seventh" xmlns="http://www.w3.org/2000/svg" xmlns:xlink="http://www.w3.org/1999/xlink" x="0px" y="0px"
	 viewBox="0 0 1920 1080" style="enable-background:new 0 0 1920 1080;" xml:space="preserve">
<style type="text/css">
	.st0{fill:#FFBE1B;}
	.st1{fill:#EC821B;}
	.st2{fill:none;stroke:#FFE473;stroke-miterlimit:10;}
</style>
<rect x="0" class="st0" width="1920" height="1080"/>
<path class="st1" d="M1206.3,430.5c-4.8,4.9-9.6,9.2-14.3,11.8c-1.4,0.2-2.8,0.5-3.5,0c-2.3-1.6-3.9-4.5-5.4-8
	c1.4,1.9,2.7,3.7,4.9,4.4c0.4-0.5,1.1-0.8,1.8-0.8c0.7,0,1.3,0.3,1.8,0.8C1196.1,437.3,1201.2,434.2,1206.3,430.5z"/>
<path class="st1" d="M1188.3,460.5c-4.8,4.9-9.6,9.2-14.3,11.8c-1.4,0.2-2.8,0.5-3.5,0c-2.3-1.6-3.9-4.5-5.4-8
	c1.4,1.9,2.7,3.7,4.9,4.4c0.4-0.5,1.1-0.8,1.8-0.8c0.7,0,1.3,0.3,1.8,0.8C1178.1,467.3,1183.2,464.2,1188.3,460.5z"/>
<path class="st1" d="M1237.2,451.5l-12.1-4.9c-0.5,0.5-1.1,0.9-1.9,0.9c-0.9,0-1.7-0.5-2.1-1.2l-6.9,5.2l7-8c0.5-0.6,1.2-1,2-1
	c0.9,0,1.7,0.5,2.1,1.1L1237.2,451.5z"/>
<path class="st1" d="M1174.6,496l-12.1-4.9c-0.5,0.5-1.1,0.9-1.9,0.9c-0.9,0-1.7-0.5-2.1-1.2l-6.9,5.2l7-8c0.5-0.6,1.2-1,2-1
	c0.9,0,1.7,0.5,2.1,1.1L1174.6,496z"/>
<g>
	<g>
		<path class="st2" d="M1127.3,198.1"/>
	</g>
</g>
</svg>
